STARTFONT 2.1
FONT -FN-Lucir-Medium-R-Normal-Sans-10-100-75-75-M-60-ISO10646-1
SIZE 10 75 75
FONTBOUNDINGBOX 10 18 -2 -5

STARTPROPERTIES 25
FONTNAME_REGISTRY ""
FOUNDRY "FN"
FAMILY_NAME "Lucir"
WEIGHT_NAME "Medium"
SLANT "R"
SETWIDTH_NAME "Normal"
ADD_STYLE_NAME "Sans"
PIXEL_SIZE 10
POINT_SIZE 100
RESOLUTION_X 75
RESOLUTION_Y 75
SPACING "M"
AVERAGE_WIDTH 60
CHARSET_REGISTRY "ISO10646"
CHARSET_ENCODING "1"
COPYRIGHT ""
FACE_NAME "Lucir"
X_HEIGHT 6
CAP_HEIGHT 7
WEIGHT 10
RESOLUTION 99
QUAD_WIDTH 6
DEFAULT_CHAR 0
FONT_DESCENT 2
FONT_ASCENT 9
ENDPROPERTIES

CHARS 1047

STARTCHAR NULL
ENCODING 0
SWIDTH 602 0
DWIDTH 6 0
BBX 3 7 1 0
BITMAP
A0
00
A0
00
A0
00
A0
ENDCHAR

STARTCHAR SPACE
ENCODING 32
SWIDTH 602 0
DWIDTH 6 0
BBX 1 1 0 0
BITMAP
00
ENDCHAR

STARTCHAR EXCLAMATION MARK
ENCODING 33
SWIDTH 602 0
DWIDTH 6 0
BBX 1 7 2 0
BITMAP
80
80
80
80
00
80
80
ENDCHAR

STARTCHAR QUOTATION MARK
ENCODING 34
SWIDTH 602 0
DWIDTH 6 0
BBX 3 3 2 5
BITMAP
A0
A0
A0
ENDCHAR

STARTCHAR NUMBER SIGN
ENCODING 35
SWIDTH 602 0
DWIDTH 6 0
BBX 5 7 0 0
BITMAP
50
50
D8
50
D8
50
50
ENDCHAR

STARTCHAR DOLLAR SIGN
ENCODING 36
SWIDTH 602 0
DWIDTH 6 0
BBX 5 9 0 -1
BITMAP
20
78
A0
A0
70
28
28
F0
20
ENDCHAR

STARTCHAR PERCENT SIGN
ENCODING 37
SWIDTH 602 0
DWIDTH 6 0
BBX 6 7 0 0
BITMAP
44
A8
50
10
28
54
88
ENDCHAR

STARTCHAR AMPERSAND
ENCODING 38
SWIDTH 602 0
DWIDTH 6 0
BBX 5 7 1 0
BITMAP
60
90
60
68
90
90
68
ENDCHAR

STARTCHAR APOSTROPHE-QUOTE
ENCODING 39
SWIDTH 602 0
DWIDTH 6 0
BBX 1 3 3 5
BITMAP
80
80
80
ENDCHAR

STARTCHAR OPENING PARENTHESIS
ENCODING 40
SWIDTH 602 0
DWIDTH 6 0
BBX 3 9 2 -1
BITMAP
20
40
80
80
80
80
80
40
20
ENDCHAR

STARTCHAR CLOSING PARENTHESIS
ENCODING 41
SWIDTH 602 0
DWIDTH 6 0
BBX 3 9 1 -1
BITMAP
80
40
20
20
20
20
20
40
80
ENDCHAR

STARTCHAR ASTERISK
ENCODING 42
SWIDTH 602 0
DWIDTH 6 0
BBX 3 3 1 4
BITMAP
A0
40
A0
ENDCHAR

STARTCHAR PLUS SIGN
ENCODING 43
SWIDTH 602 0
DWIDTH 6 0
BBX 5 5 1 1
BITMAP
20
20
F8
20
20
ENDCHAR

STARTCHAR COMMA
ENCODING 44
SWIDTH 602 0
DWIDTH 6 0
BBX 2 4 2 -2
BITMAP
40
40
40
80
ENDCHAR

STARTCHAR HYPHEN-MINUS
ENCODING 45
SWIDTH 602 0
DWIDTH 6 0
BBX 5 1 1 3
BITMAP
F8
ENDCHAR

STARTCHAR PERIOD
ENCODING 46
SWIDTH 602 0
DWIDTH 6 0
BBX 1 2 2 0
BITMAP
80
80
ENDCHAR

STARTCHAR SLASH
ENCODING 47
SWIDTH 602 0
DWIDTH 6 0
BBX 5 9 1 -1
BITMAP
08
08
10
10
20
40
40
80
80
ENDCHAR

STARTCHAR DIGIT ZERO
ENCODING 48
SWIDTH 602 0
DWIDTH 6 0
BBX 5 7 1 0
BITMAP
70
88
88
88
88
88
70
ENDCHAR

STARTCHAR DIGIT ONE
ENCODING 49
SWIDTH 602 0
DWIDTH 6 0
BBX 3 7 1 0
BITMAP
20
60
A0
20
20
20
20
ENDCHAR

STARTCHAR DIGIT TWO
ENCODING 50
SWIDTH 602 0
DWIDTH 6 0
BBX 5 7 1 0
BITMAP
70
88
08
30
40
80
F8
ENDCHAR

STARTCHAR DIGIT THREE
ENCODING 51
SWIDTH 602 0
DWIDTH 6 0
BBX 5 7 1 0
BITMAP
70
88
08
30
08
88
70
ENDCHAR

STARTCHAR DIGIT FOUR
ENCODING 52
SWIDTH 602 0
DWIDTH 6 0
BBX 5 7 1 0
BITMAP
30
50
50
90
F8
10
10
ENDCHAR

STARTCHAR DIGIT FIVE
ENCODING 53
SWIDTH 602 0
DWIDTH 6 0
BBX 5 7 1 0
BITMAP
F8
80
80
F0
08
88
70
ENDCHAR

STARTCHAR DIGIT SIX
ENCODING 54
SWIDTH 602 0
DWIDTH 6 0
BBX 5 7 1 0
BITMAP
70
88
80
F0
88
88
70
ENDCHAR

STARTCHAR DIGIT SEVEN
ENCODING 55
SWIDTH 602 0
DWIDTH 6 0
BBX 5 7 1 0
BITMAP
F8
08
10
20
20
40
40
ENDCHAR

STARTCHAR DIGIT EIGHT
ENCODING 56
SWIDTH 602 0
DWIDTH 6 0
BBX 5 7 1 0
BITMAP
70
88
88
70
88
88
70
ENDCHAR

STARTCHAR DIGIT NINE
ENCODING 57
SWIDTH 602 0
DWIDTH 6 0
BBX 5 7 1 0
BITMAP
70
88
88
78
08
88
70
ENDCHAR

STARTCHAR COLON
ENCODING 58
SWIDTH 602 0
DWIDTH 6 0
BBX 1 6 2 0
BITMAP
80
80
00
00
80
80
ENDCHAR

STARTCHAR SEMICOLON
ENCODING 59
SWIDTH 602 0
DWIDTH 6 0
BBX 2 8 2 -2
BITMAP
40
40
00
00
40
40
40
80
ENDCHAR

STARTCHAR LESS-THAN SIGN
ENCODING 60
SWIDTH 602 0
DWIDTH 6 0
BBX 3 5 2 1
BITMAP
20
40
80
40
20
ENDCHAR

STARTCHAR EQUALS SIGN
ENCODING 61
SWIDTH 602 0
DWIDTH 6 0
BBX 5 3 1 2
BITMAP
F8
00
F8
ENDCHAR

STARTCHAR GREATER-THAN SIGN
ENCODING 62
SWIDTH 602 0
DWIDTH 6 0
BBX 3 5 1 1
BITMAP
80
40
20
40
80
ENDCHAR

STARTCHAR QUESTION MARK
ENCODING 63
SWIDTH 602 0
DWIDTH 6 0
BBX 5 7 1 0
BITMAP
70
88
08
30
00
20
20
ENDCHAR

STARTCHAR COMMERCIAL AT
ENCODING 64
SWIDTH 602 0
DWIDTH 6 0
BBX 6 7 0 0
BITMAP
70
88
B8
A8
BC
80
78
ENDCHAR

STARTCHAR LATIN CAPITAL LETTER A
ENCODING 65
SWIDTH 602 0
DWIDTH 6 0
BBX 4 7 1 0
BITMAP
60
60
90
90
F0
90
90
ENDCHAR

STARTCHAR LATIN CAPITAL LETTER B
ENCODING 66
SWIDTH 602 0
DWIDTH 6 0
BBX 4 7 1 0
BITMAP
E0
90
90
E0
90
90
E0
ENDCHAR

STARTCHAR LATIN CAPITAL LETTER C
ENCODING 67
SWIDTH 602 0
DWIDTH 6 0
BBX 5 7 0 0
BITMAP
38
48
80
80
80
40
38
ENDCHAR

STARTCHAR LATIN CAPITAL LETTER D
ENCODING 68
SWIDTH 602 0
DWIDTH 6 0
BBX 5 7 1 0
BITMAP
E0
90
88
88
88
90
E0
ENDCHAR

STARTCHAR LATIN CAPITAL LETTER E
ENCODING 69
SWIDTH 602 0
DWIDTH 6 0
BBX 4 7 1 0
BITMAP
F0
80
80
E0
80
80
F0
ENDCHAR

STARTCHAR LATIN CAPITAL LETTER F
ENCODING 70
SWIDTH 602 0
DWIDTH 6 0
BBX 4 7 1 0
BITMAP
F0
80
80
E0
80
80
80
ENDCHAR

STARTCHAR LATIN CAPITAL LETTER G
ENCODING 71
SWIDTH 602 0
DWIDTH 6 0
BBX 5 7 0 0
BITMAP
38
48
80
80
88
48
38
ENDCHAR

STARTCHAR LATIN CAPITAL LETTER H
ENCODING 72
SWIDTH 602 0
DWIDTH 6 0
BBX 4 7 1 0
BITMAP
90
90
90
F0
90
90
90
ENDCHAR

STARTCHAR LATIN CAPITAL LETTER I
ENCODING 73
SWIDTH 602 0
DWIDTH 6 0
BBX 3 7 2 0
BITMAP
E0
40
40
40
40
40
E0
ENDCHAR

STARTCHAR LATIN CAPITAL LETTER J
ENCODING 74
SWIDTH 602 0
DWIDTH 6 0
BBX 5 9 0 -2
BITMAP
38
10
10
10
10
10
10
10
E0
ENDCHAR

STARTCHAR LATIN CAPITAL LETTER K
ENCODING 75
SWIDTH 602 0
DWIDTH 6 0
BBX 5 7 1 0
BITMAP
88
90
A0
C0
A0
90
88
ENDCHAR

STARTCHAR LATIN CAPITAL LETTER L
ENCODING 76
SWIDTH 602 0
DWIDTH 6 0
BBX 4 7 1 0
BITMAP
80
80
80
80
80
80
F0
ENDCHAR

STARTCHAR LATIN CAPITAL LETTER M
ENCODING 77
SWIDTH 602 0
DWIDTH 6 0
BBX 5 7 1 0
BITMAP
88
D8
D8
A8
A8
88
88
ENDCHAR

STARTCHAR LATIN CAPITAL LETTER N
ENCODING 78
SWIDTH 602 0
DWIDTH 6 0
BBX 4 7 1 0
BITMAP
90
D0
D0
B0
B0
90
90
ENDCHAR

STARTCHAR LATIN CAPITAL LETTER O
ENCODING 79
SWIDTH 602 0
DWIDTH 6 0
BBX 6 7 0 0
BITMAP
30
48
84
84
84
48
30
ENDCHAR

STARTCHAR LATIN CAPITAL LETTER P
ENCODING 80
SWIDTH 602 0
DWIDTH 6 0
BBX 4 7 1 0
BITMAP
E0
90
90
E0
80
80
80
ENDCHAR

STARTCHAR LATIN CAPITAL LETTER Q
ENCODING 81
SWIDTH 602 0
DWIDTH 6 0
BBX 6 9 0 -2
BITMAP
30
48
84
84
84
48
30
18
0C
ENDCHAR

STARTCHAR LATIN CAPITAL LETTER R
ENCODING 82
SWIDTH 602 0
DWIDTH 6 0
BBX 4 7 1 0
BITMAP
E0
90
90
E0
A0
90
90
ENDCHAR

STARTCHAR LATIN CAPITAL LETTER S
ENCODING 83
SWIDTH 602 0
DWIDTH 6 0
BBX 4 7 1 0
BITMAP
70
80
80
60
10
10
E0
ENDCHAR

STARTCHAR LATIN CAPITAL LETTER T
ENCODING 84
SWIDTH 602 0
DWIDTH 6 0
BBX 5 7 1 0
BITMAP
F8
20
20
20
20
20
20
ENDCHAR

STARTCHAR LATIN CAPITAL LETTER U
ENCODING 85
SWIDTH 602 0
DWIDTH 6 0
BBX 4 7 1 0
BITMAP
90
90
90
90
90
90
60
ENDCHAR

STARTCHAR LATIN CAPITAL LETTER V
ENCODING 86
SWIDTH 602 0
DWIDTH 6 0
BBX 4 7 1 0
BITMAP
90
90
90
90
60
60
60
ENDCHAR

STARTCHAR LATIN CAPITAL LETTER W
ENCODING 87
SWIDTH 602 0
DWIDTH 6 0
BBX 5 7 1 0
BITMAP
88
A8
A8
A8
F8
50
50
ENDCHAR

STARTCHAR LATIN CAPITAL LETTER X
ENCODING 88
SWIDTH 602 0
DWIDTH 6 0
BBX 4 7 1 0
BITMAP
90
90
60
60
60
90
90
ENDCHAR

STARTCHAR LATIN CAPITAL LETTER Y
ENCODING 89
SWIDTH 602 0
DWIDTH 6 0
BBX 5 7 1 0
BITMAP
88
88
50
20
20
20
20
ENDCHAR

STARTCHAR LATIN CAPITAL LETTER Z
ENCODING 90
SWIDTH 602 0
DWIDTH 6 0
BBX 4 7 1 0
BITMAP
F0
10
20
60
40
80
F0
ENDCHAR

STARTCHAR OPENING SQUARE BRACKET
ENCODING 91
SWIDTH 602 0
DWIDTH 6 0
BBX 3 9 2 -1
BITMAP
E0
80
80
80
80
80
80
80
E0
ENDCHAR

STARTCHAR BACKSLASH
ENCODING 92
SWIDTH 602 0
DWIDTH 6 0
BBX 5 9 1 -1
BITMAP
80
80
40
40
20
10
10
08
08
ENDCHAR

STARTCHAR CLOSING SQUARE BRACKET
ENCODING 93
SWIDTH 602 0
DWIDTH 6 0
BBX 3 9 1 -1
BITMAP
E0
20
20
20
20
20
20
20
E0
ENDCHAR

STARTCHAR SPACING CIRCUMFLEX
ENCODING 94
SWIDTH 602 0
DWIDTH 6 0
BBX 5 6 1 1
BITMAP
20
20
50
50
88
88
ENDCHAR

STARTCHAR SPACING UNDERSCORE
ENCODING 95
SWIDTH 602 0
DWIDTH 6 0
BBX 6 1 0 -1
BITMAP
FC
ENDCHAR

STARTCHAR SPACING GRAVE
ENCODING 96
SWIDTH 602 0
DWIDTH 6 0
BBX 2 2 2 7
BITMAP
80
40
ENDCHAR

STARTCHAR LATIN SMALL LETTER A
ENCODING 97
SWIDTH 602 0
DWIDTH 6 0
BBX 4 6 1 0
BITMAP
60
10
70
90
B0
50
ENDCHAR

STARTCHAR LATIN SMALL LETTER B
ENCODING 98
SWIDTH 602 0
DWIDTH 6 0
BBX 4 8 1 0
BITMAP
80
80
A0
D0
90
90
90
E0
ENDCHAR

STARTCHAR LATIN SMALL LETTER C
ENCODING 99
SWIDTH 602 0
DWIDTH 6 0
BBX 4 6 1 0
BITMAP
70
80
80
80
80
70
ENDCHAR

STARTCHAR LATIN SMALL LETTER D
ENCODING 100
SWIDTH 602 0
DWIDTH 6 0
BBX 4 8 1 0
BITMAP
10
10
70
90
90
90
B0
50
ENDCHAR

STARTCHAR LATIN SMALL LETTER E
ENCODING 101
SWIDTH 602 0
DWIDTH 6 0
BBX 4 6 1 0
BITMAP
60
90
F0
80
80
70
ENDCHAR

STARTCHAR LATIN SMALL LETTER F
ENCODING 102
SWIDTH 602 0
DWIDTH 6 0
BBX 5 8 1 0
BITMAP
38
40
F0
40
40
40
40
40
ENDCHAR

STARTCHAR LATIN SMALL LETTER G
ENCODING 103
SWIDTH 602 0
DWIDTH 6 0
BBX 4 8 1 -2
BITMAP
70
90
90
90
B0
50
10
E0
ENDCHAR

STARTCHAR LATIN SMALL LETTER H
ENCODING 104
SWIDTH 602 0
DWIDTH 6 0
BBX 4 8 1 0
BITMAP
80
80
A0
D0
90
90
90
90
ENDCHAR

STARTCHAR LATIN SMALL LETTER I
ENCODING 105
SWIDTH 602 0
DWIDTH 6 0
BBX 3 8 1 0
BITMAP
20
00
E0
20
20
20
20
20
ENDCHAR

STARTCHAR LATIN SMALL LETTER J
ENCODING 106
SWIDTH 602 0
DWIDTH 6 0
BBX 4 10 0 -2
BITMAP
10
00
70
10
10
10
10
10
10
E0
ENDCHAR

STARTCHAR LATIN SMALL LETTER K
ENCODING 107
SWIDTH 602 0
DWIDTH 6 0
BBX 5 8 1 0
BITMAP
80
80
90
A0
C0
A0
90
88
ENDCHAR

STARTCHAR LATIN SMALL LETTER L
ENCODING 108
SWIDTH 602 0
DWIDTH 6 0
BBX 3 8 1 0
BITMAP
E0
20
20
20
20
20
20
20
ENDCHAR

STARTCHAR LATIN SMALL LETTER M
ENCODING 109
SWIDTH 602 0
DWIDTH 6 0
BBX 5 6 1 0
BITMAP
D0
A8
A8
A8
A8
A8
ENDCHAR

STARTCHAR LATIN SMALL LETTER N
ENCODING 110
SWIDTH 602 0
DWIDTH 6 0
BBX 4 6 1 0
BITMAP
A0
D0
90
90
90
90
ENDCHAR

STARTCHAR LATIN SMALL LETTER O
ENCODING 111
SWIDTH 602 0
DWIDTH 6 0
BBX 4 6 1 0
BITMAP
60
90
90
90
90
60
ENDCHAR

STARTCHAR LATIN SMALL LETTER P
ENCODING 112
SWIDTH 602 0
DWIDTH 6 0
BBX 4 8 1 -2
BITMAP
A0
D0
90
90
90
E0
80
80
ENDCHAR

STARTCHAR LATIN SMALL LETTER Q
ENCODING 113
SWIDTH 602 0
DWIDTH 6 0
BBX 4 8 1 -2
BITMAP
70
90
90
90
B0
50
10
10
ENDCHAR

STARTCHAR LATIN SMALL LETTER R
ENCODING 114
SWIDTH 602 0
DWIDTH 6 0
BBX 4 6 2 0
BITMAP
B0
D0
80
80
80
80
ENDCHAR

STARTCHAR LATIN SMALL LETTER S
ENCODING 115
SWIDTH 602 0
DWIDTH 6 0
BBX 4 6 1 0
BITMAP
70
80
C0
30
10
E0
ENDCHAR

STARTCHAR LATIN SMALL LETTER T
ENCODING 116
SWIDTH 602 0
DWIDTH 6 0
BBX 4 7 1 0
BITMAP
40
F0
40
40
40
40
30
ENDCHAR

STARTCHAR LATIN SMALL LETTER U
ENCODING 117
SWIDTH 602 0
DWIDTH 6 0
BBX 4 6 1 0
BITMAP
90
90
90
90
B0
50
ENDCHAR

STARTCHAR LATIN SMALL LETTER V
ENCODING 118
SWIDTH 602 0
DWIDTH 6 0
BBX 4 6 1 0
BITMAP
90
90
90
90
60
60
ENDCHAR

STARTCHAR LATIN SMALL LETTER W
ENCODING 119
SWIDTH 602 0
DWIDTH 6 0
BBX 5 6 1 0
BITMAP
88
A8
A8
F8
50
50
ENDCHAR

STARTCHAR LATIN SMALL LETTER X
ENCODING 120
SWIDTH 602 0
DWIDTH 6 0
BBX 5 6 1 0
BITMAP
88
50
20
20
50
88
ENDCHAR

STARTCHAR LATIN SMALL LETTER Y
ENCODING 121
SWIDTH 602 0
DWIDTH 6 0
BBX 4 8 1 -2
BITMAP
90
90
90
60
60
40
80
80
ENDCHAR

STARTCHAR LATIN SMALL LETTER Z
ENCODING 122
SWIDTH 602 0
DWIDTH 6 0
BBX 4 6 1 0
BITMAP
F0
10
20
40
80
F0
ENDCHAR

STARTCHAR OPENING CURLY BRACKET
ENCODING 123
SWIDTH 602 0
DWIDTH 6 0
BBX 5 9 0 -1
BITMAP
18
20
20
20
C0
20
20
20
18
ENDCHAR

STARTCHAR VERTICAL BAR
ENCODING 124
SWIDTH 602 0
DWIDTH 6 0
BBX 1 9 3 -1
BITMAP
80
80
80
80
80
80
80
80
80
ENDCHAR

STARTCHAR CLOSING CURLY BRACKET
ENCODING 125
SWIDTH 602 0
DWIDTH 6 0
BBX 5 9 1 -1
BITMAP
C0
20
20
20
18
20
20
20
C0
ENDCHAR

STARTCHAR TILDE
ENCODING 126
SWIDTH 602 0
DWIDTH 6 0
BBX 6 2 0 3
BITMAP
64
98
ENDCHAR

STARTCHAR NON-BREAKING SPACE
ENCODING 160
SWIDTH 602 0
DWIDTH 6 0
BBX 1 1 0 0
BITMAP
00
ENDCHAR

STARTCHAR INVERTED EXCLAMATION MARK
ENCODING 161
SWIDTH 602 0
DWIDTH 6 0
BBX 1 7 3 -1
BITMAP
80
80
00
80
80
80
80
ENDCHAR

STARTCHAR CENT SIGN
ENCODING 162
SWIDTH 602 0
DWIDTH 6 0
BBX 4 7 1 0
BITMAP
20
70
A0
A0
A0
70
20
ENDCHAR

STARTCHAR POUND SIGN
ENCODING 163
SWIDTH 602 0
DWIDTH 6 0
BBX 5 7 1 0
BITMAP
38
40
40
F0
40
40
F8
ENDCHAR

STARTCHAR CURRENCY SIGN
ENCODING 164
SWIDTH 602 0
DWIDTH 6 0
BBX 6 7 0 0
BITMAP
84
78
48
48
48
78
84
ENDCHAR

STARTCHAR YEN SIGN
ENCODING 165
SWIDTH 602 0
DWIDTH 6 0
BBX 5 7 1 0
BITMAP
88
88
50
20
F8
20
20
ENDCHAR

STARTCHAR BROKEN VERTICAL BAR
ENCODING 166
SWIDTH 602 0
DWIDTH 6 0
BBX 1 9 3 -1
BITMAP
80
80
80
00
00
80
80
80
80
ENDCHAR

STARTCHAR SECTION SIGN
ENCODING 167
SWIDTH 602 0
DWIDTH 6 0
BBX 4 8 1 -1
BITMAP
70
80
E0
90
90
70
10
E0
ENDCHAR

STARTCHAR SPACING DIAERESIS
ENCODING 168
SWIDTH 602 0
DWIDTH 6 0
BBX 4 1 1 7
BITMAP
90
ENDCHAR

STARTCHAR COPYRIGHT SIGN
ENCODING 169
SWIDTH 602 0
DWIDTH 6 0
BBX 6 7 0 0
BITMAP
78
84
B4
A4
B4
84
78
ENDCHAR

STARTCHAR FEMININE ORDINAL INDICATOR
ENCODING 170
SWIDTH 602 0
DWIDTH 6 0
BBX 5 5 1 2
BITMAP
E0
10
F0
90
68
ENDCHAR

STARTCHAR LEFT POINTING GUILLEMET
ENCODING 171
SWIDTH 602 0
DWIDTH 6 0
BBX 5 3 1 2
BITMAP
48
90
48
ENDCHAR

STARTCHAR NOT SIGN
ENCODING 172
SWIDTH 602 0
DWIDTH 6 0
BBX 5 3 1 2
BITMAP
F8
08
08
ENDCHAR

STARTCHAR SOFT HYPHEN
ENCODING 173
SWIDTH 602 0
DWIDTH 6 0
BBX 2 1 2 3
BITMAP
C0
ENDCHAR

STARTCHAR REGISTERED TRADE MARK SIGN
ENCODING 174
SWIDTH 602 0
DWIDTH 6 0
BBX 6 7 0 0
BITMAP
78
84
B4
B4
AC
84
78
ENDCHAR

STARTCHAR SPACING MACRON
ENCODING 175
SWIDTH 602 0
DWIDTH 6 0
BBX 3 1 2 7
BITMAP
E0
ENDCHAR

STARTCHAR DEGREE SIGN
ENCODING 176
SWIDTH 602 0
DWIDTH 6 0
BBX 3 3 2 4
BITMAP
40
A0
40
ENDCHAR

STARTCHAR PLUS-OR-MINUS SIGN
ENCODING 177
SWIDTH 602 0
DWIDTH 6 0
BBX 5 5 1 1
BITMAP
20
F8
20
00
F8
ENDCHAR

STARTCHAR SUPERSCRIPT DIGIT TWO
ENCODING 178
SWIDTH 602 0
DWIDTH 6 0
BBX 4 5 1 2
BITMAP
E0
10
60
80
F0
ENDCHAR

STARTCHAR SUPERSCRIPT DIGIT THREE
ENCODING 179
SWIDTH 602 0
DWIDTH 6 0
BBX 4 5 1 2
BITMAP
E0
10
60
10
E0
ENDCHAR

STARTCHAR SPACING ACUTE
ENCODING 180
SWIDTH 602 0
DWIDTH 6 0
BBX 2 2 2 7
BITMAP
40
80
ENDCHAR

STARTCHAR MICRO SIGN
ENCODING 181
SWIDTH 602 0
DWIDTH 6 0
BBX 4 8 1 -2
BITMAP
90
90
90
90
B0
D0
80
80
ENDCHAR

STARTCHAR PARAGRAPH SIGN
ENCODING 182
SWIDTH 602 0
DWIDTH 6 0
BBX 5 8 0 -1
BITMAP
78
E8
E8
68
28
28
28
28
ENDCHAR

STARTCHAR MIDDLE DOT
ENCODING 183
SWIDTH 602 0
DWIDTH 6 0
BBX 2 2 2 2
BITMAP
C0
C0
ENDCHAR

STARTCHAR SPACING CEDILLA
ENCODING 184
SWIDTH 602 0
DWIDTH 6 0
BBX 2 2 2 -2
BITMAP
40
80
ENDCHAR

STARTCHAR SUPERSCRIPT DIGIT ONE
ENCODING 185
SWIDTH 602 0
DWIDTH 6 0
BBX 3 5 1 2
BITMAP
20
E0
20
20
20
ENDCHAR

STARTCHAR MASCULINE ORDINAL INDICATOR
ENCODING 186
SWIDTH 602 0
DWIDTH 6 0
BBX 4 5 1 2
BITMAP
60
90
90
90
60
ENDCHAR

STARTCHAR RIGHT POINTING GUILLEMET
ENCODING 187
SWIDTH 602 0
DWIDTH 6 0
BBX 5 3 0 2
BITMAP
90
48
90
ENDCHAR

STARTCHAR FRACTION ONE QUARTER
ENCODING 188
SWIDTH 602 0
DWIDTH 6 0
BBX 6 9 0 -1
BITMAP
C0
40
48
50
20
48
A8
3C
08
ENDCHAR

STARTCHAR FRACTION ONE HALF
ENCODING 189
SWIDTH 602 0
DWIDTH 6 0
BBX 6 9 0 -1
BITMAP
C0
44
48
50
20
58
84
08
1C
ENDCHAR

STARTCHAR FRACTION THREE QUARTERS
ENCODING 190
SWIDTH 602 0
DWIDTH 6 0
BBX 6 9 0 -1
BITMAP
E0
40
28
D0
20
48
A8
3C
08
ENDCHAR

STARTCHAR INVERTED QUESTION MARK
ENCODING 191
SWIDTH 602 0
DWIDTH 6 0
BBX 4 7 1 -1
BITMAP
20
20
00
60
80
80
70
ENDCHAR

STARTCHAR LATIN CAPITAL LETTER A GRAVE
ENCODING 192
SWIDTH 602 0
DWIDTH 6 0
BBX 4 9 1 0
BITMAP
40
20
00
60
60
90
F0
90
90
ENDCHAR

STARTCHAR LATIN CAPITAL LETTER A ACUTE
ENCODING 193
SWIDTH 602 0
DWIDTH 6 0
BBX 4 9 1 0
BITMAP
20
40
00
60
60
90
F0
90
90
ENDCHAR

STARTCHAR LATIN CAPITAL LETTER A CIRCUMFLEX
ENCODING 194
SWIDTH 602 0
DWIDTH 6 0
BBX 4 9 1 0
BITMAP
20
50
00
60
60
90
F0
90
90
ENDCHAR

STARTCHAR LATIN CAPITAL LETTER A TILDE
ENCODING 195
SWIDTH 602 0
DWIDTH 6 0
BBX 4 9 1 0
BITMAP
50
A0
00
60
60
90
F0
90
90
ENDCHAR

STARTCHAR LATIN CAPITAL LETTER A DIAERESIS
ENCODING 196
SWIDTH 602 0
DWIDTH 6 0
BBX 4 8 1 0
BITMAP
90
00
60
60
90
F0
90
90
ENDCHAR

STARTCHAR LATIN CAPITAL LETTER A RING
ENCODING 197
SWIDTH 602 0
DWIDTH 6 0
BBX 4 8 1 0
BITMAP
60
90
60
60
90
F0
90
90
ENDCHAR

STARTCHAR LATIN CAPITAL LETTER A E
ENCODING 198
SWIDTH 602 0
DWIDTH 6 0
BBX 6 7 0 0
BITMAP
3C
30
50
5C
F0
90
9C
ENDCHAR

STARTCHAR LATIN CAPITAL LETTER C CEDILLA
ENCODING 199
SWIDTH 602 0
DWIDTH 6 0
BBX 5 9 0 -2
BITMAP
38
48
80
80
80
40
38
10
20
ENDCHAR

STARTCHAR LATIN CAPITAL LETTER E GRAVE
ENCODING 200
SWIDTH 602 0
DWIDTH 6 0
BBX 4 9 1 0
BITMAP
40
20
00
F0
80
E0
80
80
F0
ENDCHAR

STARTCHAR LATIN CAPITAL LETTER E ACUTE
ENCODING 201
SWIDTH 602 0
DWIDTH 6 0
BBX 4 9 1 0
BITMAP
20
40
00
F0
80
E0
80
80
F0
ENDCHAR

STARTCHAR LATIN CAPITAL LETTER E CIRCUMFLEX
ENCODING 202
SWIDTH 602 0
DWIDTH 6 0
BBX 4 9 1 0
BITMAP
20
50
00
F0
80
E0
80
80
F0
ENDCHAR

STARTCHAR LATIN CAPITAL LETTER E DIAERESIS
ENCODING 203
SWIDTH 602 0
DWIDTH 6 0
BBX 4 8 1 0
BITMAP
50
00
F0
80
E0
80
80
F0
ENDCHAR

STARTCHAR LATIN CAPITAL LETTER I GRAVE
ENCODING 204
SWIDTH 602 0
DWIDTH 6 0
BBX 3 9 2 0
BITMAP
40
20
00
E0
40
40
40
40
E0
ENDCHAR

STARTCHAR LATIN CAPITAL LETTER I ACUTE
ENCODING 205
SWIDTH 602 0
DWIDTH 6 0
BBX 3 9 2 0
BITMAP
20
40
00
E0
40
40
40
40
E0
ENDCHAR

STARTCHAR LATIN CAPITAL LETTER I CIRCUMFLEX
ENCODING 206
SWIDTH 602 0
DWIDTH 6 0
BBX 3 9 2 0
BITMAP
40
A0
00
E0
40
40
40
40
E0
ENDCHAR

STARTCHAR LATIN CAPITAL LETTER I DIAERESIS
ENCODING 207
SWIDTH 602 0
DWIDTH 6 0
BBX 3 8 2 0
BITMAP
A0
00
E0
40
40
40
40
E0
ENDCHAR

STARTCHAR LATIN CAPITAL LETTER ETH
ENCODING 208
SWIDTH 602 0
DWIDTH 6 0
BBX 6 7 0 0
BITMAP
70
48
44
F4
44
48
70
ENDCHAR

STARTCHAR LATIN CAPITAL LETTER N TILDE
ENCODING 209
SWIDTH 602 0
DWIDTH 6 0
BBX 4 9 1 0
BITMAP
50
A0
00
90
D0
D0
B0
B0
90
ENDCHAR

STARTCHAR LATIN CAPITAL LETTER O GRAVE
ENCODING 210
SWIDTH 602 0
DWIDTH 6 0
BBX 6 9 0 0
BITMAP
20
10
00
30
48
84
84
48
30
ENDCHAR

STARTCHAR LATIN CAPITAL LETTER O ACUTE
ENCODING 211
SWIDTH 602 0
DWIDTH 6 0
BBX 6 9 0 0
BITMAP
10
20
00
30
48
84
84
48
30
ENDCHAR

STARTCHAR LATIN CAPITAL LETTER O CIRCUMFLEX
ENCODING 212
SWIDTH 602 0
DWIDTH 6 0
BBX 6 9 0 0
BITMAP
10
28
00
30
48
84
84
48
30
ENDCHAR

STARTCHAR LATIN CAPITAL LETTER O TILDE
ENCODING 213
SWIDTH 602 0
DWIDTH 6 0
BBX 6 9 0 0
BITMAP
28
50
00
30
48
84
84
48
30
ENDCHAR

STARTCHAR LATIN CAPITAL LETTER O DIAERESIS
ENCODING 214
SWIDTH 602 0
DWIDTH 6 0
BBX 6 8 0 0
BITMAP
48
00
30
48
84
84
48
30
ENDCHAR

STARTCHAR MULTIPLICATION SIGN
ENCODING 215
SWIDTH 602 0
DWIDTH 6 0
BBX 5 5 1 1
BITMAP
88
50
20
50
88
ENDCHAR

STARTCHAR LATIN CAPITAL LETTER O SLASH
ENCODING 216
SWIDTH 602 0
DWIDTH 6 0
BBX 6 7 0 0
BITMAP
34
48
94
B4
A4
48
B0
ENDCHAR

STARTCHAR LATIN CAPITAL LETTER U GRAVE
ENCODING 217
SWIDTH 602 0
DWIDTH 6 0
BBX 4 9 1 0
BITMAP
40
20
00
90
90
90
90
90
60
ENDCHAR

STARTCHAR LATIN CAPITAL LETTER U ACUTE
ENCODING 218
SWIDTH 602 0
DWIDTH 6 0
BBX 4 9 1 0
BITMAP
20
40
00
90
90
90
90
90
60
ENDCHAR

STARTCHAR LATIN CAPITAL LETTER U CIRCUMFLEX
ENCODING 219
SWIDTH 602 0
DWIDTH 6 0
BBX 4 9 1 0
BITMAP
20
50
00
90
90
90
90
90
60
ENDCHAR

STARTCHAR LATIN CAPITAL LETTER U DIAERESIS
ENCODING 220
SWIDTH 602 0
DWIDTH 6 0
BBX 4 8 1 0
BITMAP
90
00
90
90
90
90
90
60
ENDCHAR

STARTCHAR LATIN CAPITAL LETTER Y ACUTE
ENCODING 221
SWIDTH 602 0
DWIDTH 6 0
BBX 5 9 1 0
BITMAP
10
20
00
88
88
50
20
20
20
ENDCHAR

STARTCHAR LATIN CAPITAL LETTER THORN
ENCODING 222
SWIDTH 602 0
DWIDTH 6 0
BBX 4 7 1 0
BITMAP
80
E0
90
90
E0
80
80
ENDCHAR

STARTCHAR LATIN SMALL LETTER SHARP S
ENCODING 223
SWIDTH 602 0
DWIDTH 6 0
BBX 5 8 1 0
BITMAP
60
90
90
A0
90
88
88
B0
ENDCHAR

STARTCHAR LATIN SMALL LETTER A GRAVE
ENCODING 224
SWIDTH 602 0
DWIDTH 6 0
BBX 4 9 1 0
BITMAP
40
20
00
60
10
70
90
B0
50
ENDCHAR

STARTCHAR LATIN SMALL LETTER A ACUTE
ENCODING 225
SWIDTH 602 0
DWIDTH 6 0
BBX 4 9 1 0
BITMAP
20
40
00
60
10
70
90
B0
50
ENDCHAR

STARTCHAR LATIN SMALL LETTER A CIRCUMFLEX
ENCODING 226
SWIDTH 602 0
DWIDTH 6 0
BBX 4 9 1 0
BITMAP
20
50
00
60
10
70
90
B0
50
ENDCHAR

STARTCHAR LATIN SMALL LETTER A TILDE
ENCODING 227
SWIDTH 602 0
DWIDTH 6 0
BBX 4 9 1 0
BITMAP
50
A0
00
60
10
70
90
B0
50
ENDCHAR

STARTCHAR LATIN SMALL LETTER A DIAERESIS
ENCODING 228
SWIDTH 602 0
DWIDTH 6 0
BBX 4 8 1 0
BITMAP
50
00
60
10
70
90
B0
50
ENDCHAR

STARTCHAR LATIN SMALL LETTER A RING
ENCODING 229
SWIDTH 602 0
DWIDTH 6 0
BBX 4 9 1 0
BITMAP
20
50
20
60
10
70
90
B0
50
ENDCHAR

STARTCHAR LATIN SMALL LETTER A E
ENCODING 230
SWIDTH 602 0
DWIDTH 6 0
BBX 5 6 1 0
BITMAP
D8
28
78
A0
A0
D8
ENDCHAR

STARTCHAR LATIN SMALL LETTER C CEDILLA
ENCODING 231
SWIDTH 602 0
DWIDTH 6 0
BBX 4 8 1 -2
BITMAP
70
80
80
80
80
70
20
40
ENDCHAR

STARTCHAR LATIN SMALL LETTER E GRAVE
ENCODING 232
SWIDTH 602 0
DWIDTH 6 0
BBX 4 9 1 0
BITMAP
40
20
00
60
90
F0
80
80
70
ENDCHAR

STARTCHAR LATIN SMALL LETTER E ACUTE
ENCODING 233
SWIDTH 602 0
DWIDTH 6 0
BBX 4 9 1 0
BITMAP
20
40
00
60
90
F0
80
80
70
ENDCHAR

STARTCHAR LATIN SMALL LETTER E CIRCUMFLEX
ENCODING 234
SWIDTH 602 0
DWIDTH 6 0
BBX 4 9 1 0
BITMAP
20
50
00
60
90
F0
80
80
70
ENDCHAR

STARTCHAR LATIN SMALL LETTER E DIAERESIS
ENCODING 235
SWIDTH 602 0
DWIDTH 6 0
BBX 4 8 1 0
BITMAP
90
00
60
90
F0
80
80
70
ENDCHAR

STARTCHAR LATIN SMALL LETTER I GRAVE
ENCODING 236
SWIDTH 602 0
DWIDTH 6 0
BBX 3 9 1 0
BITMAP
40
20
00
E0
20
20
20
20
20
ENDCHAR

STARTCHAR LATIN SMALL LETTER I ACUTE
ENCODING 237
SWIDTH 602 0
DWIDTH 6 0
BBX 3 9 1 0
BITMAP
20
40
00
E0
20
20
20
20
20
ENDCHAR

STARTCHAR LATIN SMALL LETTER I CIRCUMFLEX
ENCODING 238
SWIDTH 602 0
DWIDTH 6 0
BBX 4 9 1 0
BITMAP
20
50
00
E0
20
20
20
20
20
ENDCHAR

STARTCHAR LATIN SMALL LETTER I DIAERESIS
ENCODING 239
SWIDTH 602 0
DWIDTH 6 0
BBX 4 8 1 0
BITMAP
50
00
E0
20
20
20
20
20
ENDCHAR

STARTCHAR LATIN SMALL LETTER ETH
ENCODING 240
SWIDTH 602 0
DWIDTH 6 0
BBX 4 9 1 0
BITMAP
50
20
50
10
70
90
90
90
60
ENDCHAR

STARTCHAR LATIN SMALL LETTER N TILDE
ENCODING 241
SWIDTH 602 0
DWIDTH 6 0
BBX 4 9 1 0
BITMAP
50
A0
00
A0
D0
90
90
90
90
ENDCHAR

STARTCHAR LATIN SMALL LETTER O GRAVE
ENCODING 242
SWIDTH 602 0
DWIDTH 6 0
BBX 4 9 1 0
BITMAP
40
20
00
60
90
90
90
90
60
ENDCHAR

STARTCHAR LATIN SMALL LETTER O ACUTE
ENCODING 243
SWIDTH 602 0
DWIDTH 6 0
BBX 4 9 1 0
BITMAP
20
40
00
60
90
90
90
90
60
ENDCHAR

STARTCHAR LATIN SMALL LETTER O CIRCUMFLEX
ENCODING 244
SWIDTH 602 0
DWIDTH 6 0
BBX 4 9 1 0
BITMAP
20
50
00
60
90
90
90
90
60
ENDCHAR

STARTCHAR LATIN SMALL LETTER O TILDE
ENCODING 245
SWIDTH 602 0
DWIDTH 6 0
BBX 4 9 1 0
BITMAP
50
A0
00
60
90
90
90
90
60
ENDCHAR

STARTCHAR LATIN SMALL LETTER O DIAERESIS
ENCODING 246
SWIDTH 602 0
DWIDTH 6 0
BBX 4 8 1 0
BITMAP
90
00
60
90
90
90
90
60
ENDCHAR

STARTCHAR DIVISION SIGN
ENCODING 247
SWIDTH 602 0
DWIDTH 6 0
BBX 5 5 1 1
BITMAP
20
00
F8
00
20
ENDCHAR

STARTCHAR LATIN SMALL LETTER O SLASH
ENCODING 248
SWIDTH 602 0
DWIDTH 6 0
BBX 6 6 0 0
BITMAP
34
48
58
68
48
B0
ENDCHAR

STARTCHAR LATIN SMALL LETTER U GRAVE
ENCODING 249
SWIDTH 602 0
DWIDTH 6 0
BBX 4 9 1 0
BITMAP
40
20
00
90
90
90
90
B0
50
ENDCHAR

STARTCHAR LATIN SMALL LETTER U ACUTE
ENCODING 250
SWIDTH 602 0
DWIDTH 6 0
BBX 4 9 1 0
BITMAP
20
40
00
90
90
90
90
B0
50
ENDCHAR

STARTCHAR LATIN SMALL LETTER U CIRCUMFLEX
ENCODING 251
SWIDTH 602 0
DWIDTH 6 0
BBX 4 9 1 0
BITMAP
20
50
00
90
90
90
90
B0
50
ENDCHAR

STARTCHAR LATIN SMALL LETTER U DIAERESIS
ENCODING 252
SWIDTH 602 0
DWIDTH 6 0
BBX 4 8 1 0
BITMAP
90
00
90
90
90
90
B0
50
ENDCHAR

STARTCHAR LATIN SMALL LETTER Y ACUTE
ENCODING 253
SWIDTH 602 0
DWIDTH 6 0
BBX 4 11 1 -2
BITMAP
20
40
00
90
90
90
60
60
40
80
80
ENDCHAR

STARTCHAR LATIN SMALL LETTER THORN
ENCODING 254
SWIDTH 602 0
DWIDTH 6 0
BBX 4 10 1 -2
BITMAP
80
80
A0
D0
90
90
90
E0
80
80
ENDCHAR

STARTCHAR LATIN SMALL LETTER Y DIAERESIS
ENCODING 255
SWIDTH 602 0
DWIDTH 6 0
BBX 4 10 1 -2
BITMAP
90
00
90
90
90
60
60
40
80
80
ENDCHAR

STARTCHAR LATIN CAPITAL LETTER A MACRON
ENCODING 256
SWIDTH 602 0
DWIDTH 6 0
BBX 4 9 1 0
BITMAP
70
00
60
60
90
90
F0
90
90
ENDCHAR

STARTCHAR LATIN SMALL LETTER A MACRON
ENCODING 257
SWIDTH 602 0
DWIDTH 6 0
BBX 4 8 1 0
BITMAP
70
00
60
10
70
90
B0
50
ENDCHAR

STARTCHAR LATIN CAPITAL LETTER A BREVE
ENCODING 258
SWIDTH 602 0
DWIDTH 6 0
BBX 4 10 1 0
BITMAP
90
60
00
60
60
90
90
F0
90
90
ENDCHAR

STARTCHAR LATIN SMALL LETTER A BREVE
ENCODING 259
SWIDTH 602 0
DWIDTH 6 0
BBX 4 9 1 0
BITMAP
90
60
00
60
10
70
90
B0
50
ENDCHAR

STARTCHAR LATIN CAPITAL LETTER A OGONEK
ENCODING 260
SWIDTH 602 0
DWIDTH 6 0
BBX 4 9 1 -2
BITMAP
60
60
90
90
F0
90
90
40
20
ENDCHAR

STARTCHAR LATIN SMALL LETTER A OGONEK
ENCODING 261
SWIDTH 602 0
DWIDTH 6 0
BBX 4 8 1 -2
BITMAP
60
10
70
90
B0
50
20
10
ENDCHAR

STARTCHAR LATIN CAPITAL LETTER C ACUTE
ENCODING 262
SWIDTH 602 0
DWIDTH 6 0
BBX 5 10 0 0
BITMAP
10
20
00
38
48
80
80
80
40
38
ENDCHAR

STARTCHAR LATIN SMALL LETTER C ACUTE
ENCODING 263
SWIDTH 602 0
DWIDTH 6 0
BBX 4 9 1 0
BITMAP
20
40
00
70
80
80
80
80
70
ENDCHAR

STARTCHAR LATIN CAPITAL LETTER C CIRCUMFLEX
ENCODING 264
SWIDTH 602 0
DWIDTH 6 0
BBX 5 10 0 0
BITMAP
10
28
00
38
48
80
80
80
40
38
ENDCHAR

STARTCHAR LATIN SMALL LETTER C CIRCUMFLEX
ENCODING 265
SWIDTH 602 0
DWIDTH 6 0
BBX 4 9 1 0
BITMAP
20
50
00
70
80
80
80
80
70
ENDCHAR

STARTCHAR LATIN CAPITAL LETTER C DOT
ENCODING 266
SWIDTH 602 0
DWIDTH 6 0
BBX 5 10 0 0
BITMAP
10
10
00
38
48
80
80
80
40
38
ENDCHAR

STARTCHAR LATIN SMALL LETTER C DOT
ENCODING 267
SWIDTH 602 0
DWIDTH 6 0
BBX 4 9 1 0
BITMAP
20
20
00
70
80
80
80
80
70
ENDCHAR

STARTCHAR LATIN CAPITAL LETTER C HACEK
ENCODING 268
SWIDTH 602 0
DWIDTH 6 0
BBX 5 10 0 0
BITMAP
28
10
00
38
48
80
80
80
40
38
ENDCHAR

STARTCHAR LATIN SMALL LETTER C HACEK
ENCODING 269
SWIDTH 602 0
DWIDTH 6 0
BBX 4 9 1 0
BITMAP
50
20
00
70
80
80
80
80
70
ENDCHAR

STARTCHAR LATIN CAPITAL LETTER D HACEK
ENCODING 270
SWIDTH 602 0
DWIDTH 6 0
BBX 5 10 1 0
BITMAP
A0
40
00
E0
90
88
88
88
90
E0
ENDCHAR

STARTCHAR LATIN SMALL LETTER D HACEK
ENCODING 271
SWIDTH 602 0
DWIDTH 6 0
BBX 4 11 1 0
BITMAP
50
20
00
10
10
70
90
90
90
B0
50
ENDCHAR

STARTCHAR LATIN CAPITAL LETTER D BAR
ENCODING 272
SWIDTH 602 0
DWIDTH 6 0
BBX 6 7 0 0
BITMAP
70
48
44
F4
44
48
70
ENDCHAR

STARTCHAR LATIN SMALL LETTER D BAR
ENCODING 273
SWIDTH 602 0
DWIDTH 6 0
BBX 4 8 1 0
BITMAP
10
70
70
90
90
90
B0
50
ENDCHAR

STARTCHAR LATIN CAPITAL LETTER E MACRON
ENCODING 274
SWIDTH 602 0
DWIDTH 6 0
BBX 4 9 1 0
BITMAP
E0
00
F0
80
80
E0
80
80
F0
ENDCHAR

STARTCHAR LATIN SMALL LETTER E MACRON
ENCODING 275
SWIDTH 602 0
DWIDTH 6 0
BBX 4 8 1 0
BITMAP
70
00
60
90
F0
80
80
70
ENDCHAR

STARTCHAR LATIN CAPITAL LETTER E BREVE
ENCODING 276
SWIDTH 602 0
DWIDTH 6 0
BBX 4 10 1 0
BITMAP
90
60
00
F0
80
80
E0
80
80
F0
ENDCHAR

STARTCHAR LATIN SMALL LETTER E BREVE
ENCODING 277
SWIDTH 602 0
DWIDTH 6 0
BBX 4 9 1 0
BITMAP
90
60
00
60
90
F0
80
80
70
ENDCHAR

STARTCHAR LATIN CAPITAL LETTER E DOT
ENCODING 278
SWIDTH 602 0
DWIDTH 6 0
BBX 4 10 1 0
BITMAP
40
40
00
F0
80
80
E0
80
80
F0
ENDCHAR

STARTCHAR LATIN SMALL LETTER E DOT
ENCODING 279
SWIDTH 602 0
DWIDTH 6 0
BBX 4 9 1 0
BITMAP
20
20
00
60
90
F0
80
80
70
ENDCHAR

STARTCHAR LATIN CAPITAL LETTER E OGONEK
ENCODING 280
SWIDTH 602 0
DWIDTH 6 0
BBX 4 9 1 -2
BITMAP
F0
80
80
E0
80
80
F0
40
20
ENDCHAR

STARTCHAR LATIN SMALL LETTER E OGONEK
ENCODING 281
SWIDTH 602 0
DWIDTH 6 0
BBX 4 8 1 -2
BITMAP
60
90
F0
80
80
70
40
20
ENDCHAR

STARTCHAR LATIN CAPITAL LETTER E HACEK
ENCODING 282
SWIDTH 602 0
DWIDTH 6 0
BBX 4 10 1 0
BITMAP
A0
40
00
F0
80
80
E0
80
80
F0
ENDCHAR

STARTCHAR LATIN SMALL LETTER E HACEK
ENCODING 283
SWIDTH 602 0
DWIDTH 6 0
BBX 4 9 1 0
BITMAP
50
20
00
60
90
F0
80
80
70
ENDCHAR

STARTCHAR LATIN CAPITAL LETTER G CIRCUMFLEX
ENCODING 284
SWIDTH 602 0
DWIDTH 6 0
BBX 5 10 0 0
BITMAP
10
28
00
38
48
80
80
88
48
38
ENDCHAR

STARTCHAR LATIN SMALL LETTER G CIRCUMFLEX
ENCODING 285
SWIDTH 602 0
DWIDTH 6 0
BBX 4 11 1 -2
BITMAP
20
50
00
70
90
90
90
B0
50
10
E0
ENDCHAR

STARTCHAR LATIN CAPITAL LETTER G BREVE
ENCODING 286
SWIDTH 602 0
DWIDTH 6 0
BBX 5 10 0 0
BITMAP
48
30
00
38
48
80
80
88
48
38
ENDCHAR

STARTCHAR LATIN SMALL LETTER G BREVE
ENCODING 287
SWIDTH 602 0
DWIDTH 6 0
BBX 4 11 1 -2
BITMAP
90
60
00
70
90
90
90
B0
50
10
E0
ENDCHAR

STARTCHAR LATIN CAPITAL LETTER G DOT
ENCODING 288
SWIDTH 602 0
DWIDTH 6 0
BBX 5 10 0 0
BITMAP
10
10
00
38
48
80
80
88
48
38
ENDCHAR

STARTCHAR LATIN SMALL LETTER G DOT
ENCODING 289
SWIDTH 602 0
DWIDTH 6 0
BBX 4 11 1 -2
BITMAP
20
20
00
70
90
90
90
B0
50
10
E0
ENDCHAR

STARTCHAR LATIN CAPITAL LETTER G CEDILLA
ENCODING 290
SWIDTH 602 0
DWIDTH 6 0
BBX 5 12 0 -5
BITMAP
38
48
80
80
88
48
38
00
10
10
10
20
ENDCHAR

STARTCHAR LATIN SMALL LETTER G CEDILLA
ENCODING 291
SWIDTH 602 0
DWIDTH 6 0
BBX 4 12 1 -2
BITMAP
20
40
40
00
70
90
90
90
B0
50
10
E0
ENDCHAR

STARTCHAR LATIN CAPITAL LETTER H CIRCUMFLEX
ENCODING 292
SWIDTH 602 0
DWIDTH 6 0
BBX 4 10 1 0
BITMAP
20
50
00
90
90
90
F0
90
90
90
ENDCHAR

STARTCHAR LATIN SMALL LETTER H CIRCUMFLEX
ENCODING 293
SWIDTH 602 0
DWIDTH 6 0
BBX 4 11 1 0
BITMAP
40
A0
00
80
80
A0
D0
90
90
90
90
ENDCHAR

STARTCHAR LATIN CAPITAL LETTER H BAR
ENCODING 294
SWIDTH 602 0
DWIDTH 6 0
BBX 4 7 1 0
BITMAP
F0
90
90
F0
90
90
90
ENDCHAR

STARTCHAR LATIN SMALL LETTER H BAR
ENCODING 295
SWIDTH 602 0
DWIDTH 6 0
BBX 4 8 1 0
BITMAP
80
E0
A0
D0
90
90
90
90
ENDCHAR

STARTCHAR LATIN CAPITAL LETTER I TILDE
ENCODING 296
SWIDTH 602 0
DWIDTH 6 0
BBX 4 10 2 0
BITMAP
50
A0
00
E0
40
40
40
40
40
E0
ENDCHAR

STARTCHAR LATIN SMALL LETTER I TILDE
ENCODING 297
SWIDTH 602 0
DWIDTH 6 0
BBX 4 9 1 0
BITMAP
50
A0
00
E0
20
20
20
20
20
ENDCHAR

STARTCHAR LATIN CAPITAL LETTER I MACRON
ENCODING 298
SWIDTH 602 0
DWIDTH 6 0
BBX 3 9 2 0
BITMAP
E0
00
E0
40
40
40
40
40
E0
ENDCHAR

STARTCHAR LATIN SMALL LETTER I MACRON
ENCODING 299
SWIDTH 602 0
DWIDTH 6 0
BBX 3 8 1 0
BITMAP
E0
00
E0
20
20
20
20
20
ENDCHAR

STARTCHAR LATIN CAPITAL LETTER I BREVE
ENCODING 300
SWIDTH 602 0
DWIDTH 6 0
BBX 4 10 2 0
BITMAP
90
60
00
E0
40
40
40
40
40
E0
ENDCHAR

STARTCHAR LATIN SMALL LETTER I BREVE
ENCODING 301
SWIDTH 602 0
DWIDTH 6 0
BBX 4 9 1 0
BITMAP
90
60
00
E0
20
20
20
20
20
ENDCHAR

STARTCHAR LATIN CAPITAL LETTER I OGONEK
ENCODING 302
SWIDTH 602 0
DWIDTH 6 0
BBX 3 9 2 -2
BITMAP
E0
40
40
40
40
40
E0
40
20
ENDCHAR

STARTCHAR LATIN SMALL LETTER I OGONEK
ENCODING 303
SWIDTH 602 0
DWIDTH 6 0
BBX 4 10 1 -2
BITMAP
20
00
E0
20
20
20
20
20
20
10
ENDCHAR

STARTCHAR LATIN CAPITAL LETTER I DOT
ENCODING 304
SWIDTH 602 0
DWIDTH 6 0
BBX 3 10 2 0
BITMAP
40
40
00
E0
40
40
40
40
40
E0
ENDCHAR

STARTCHAR LATIN SMALL LETTER DOTLESS I
ENCODING 305
SWIDTH 602 0
DWIDTH 6 0
BBX 3 6 1 0
BITMAP
E0
20
20
20
20
20
ENDCHAR

STARTCHAR LATIN CAPITAL LETTER I J
ENCODING 306
SWIDTH 602 0
DWIDTH 6 0
BBX 5 9 2 -2
BITMAP
F8
50
50
50
50
50
F0
10
E0
ENDCHAR

STARTCHAR LATIN SMALL LETTER I J
ENCODING 307
SWIDTH 602 0
DWIDTH 6 0
BBX 5 10 1 -2
BITMAP
28
00
F8
28
28
28
28
28
08
70
ENDCHAR

STARTCHAR LATIN CAPITAL LETTER J CIRCUMFLEX
ENCODING 308
SWIDTH 602 0
DWIDTH 6 0
BBX 5 12 0 -2
BITMAP
10
28
00
38
10
10
10
10
10
10
10
E0
ENDCHAR

STARTCHAR LATIN SMALL LETTER J CIRCUMFLEX
ENCODING 309
SWIDTH 602 0
DWIDTH 6 0
BBX 4 11 0 -2
BITMAP
20
50
00
70
10
10
10
10
10
10
E0
ENDCHAR

STARTCHAR LATIN CAPITAL LETTER K CEDILLA
ENCODING 310
SWIDTH 602 0
DWIDTH 6 0
BBX 5 12 1 -5
BITMAP
88
90
A0
C0
A0
90
88
00
20
20
20
40
ENDCHAR

STARTCHAR LATIN SMALL LETTER K CEDILLA
ENCODING 311
SWIDTH 602 0
DWIDTH 6 0
BBX 5 13 1 -5
BITMAP
80
80
90
A0
C0
A0
90
88
00
20
20
20
40
ENDCHAR

STARTCHAR LATIN SMALL LETTER KRA
ENCODING 312
SWIDTH 602 0
DWIDTH 6 0
BBX 5 6 1 0
BITMAP
90
A0
C0
A0
90
88
ENDCHAR

STARTCHAR LATIN CAPITAL LETTER L ACUTE
ENCODING 313
SWIDTH 602 0
DWIDTH 6 0
BBX 4 10 1 0
BITMAP
40
80
00
80
80
80
80
80
80
F0
ENDCHAR

STARTCHAR LATIN SMALL LETTER L ACUTE
ENCODING 314
SWIDTH 602 0
DWIDTH 6 0
BBX 3 11 1 0
BITMAP
20
40
00
E0
20
20
20
20
20
20
20
ENDCHAR

STARTCHAR LATIN CAPITAL LETTER L CEDILLA
ENCODING 315
SWIDTH 602 0
DWIDTH 6 0
BBX 4 12 1 -5
BITMAP
80
80
80
80
80
80
F0
00
40
40
40
80
ENDCHAR

STARTCHAR LATIN SMALL LETTER L CEDILLA
ENCODING 316
SWIDTH 602 0
DWIDTH 6 0
BBX 3 13 1 -5
BITMAP
E0
20
20
20
20
20
20
20
00
20
20
20
40
ENDCHAR

STARTCHAR LATIN CAPITAL LETTER L HACEK
ENCODING 317
SWIDTH 602 0
DWIDTH 6 0
BBX 4 10 1 0
BITMAP
A0
40
00
80
80
80
80
80
80
F0
ENDCHAR

STARTCHAR LATIN SMALL LETTER L HACEK
ENCODING 318
SWIDTH 602 0
DWIDTH 6 0
BBX 3 11 1 0
BITMAP
A0
40
00
E0
20
20
20
20
20
20
20
ENDCHAR

STARTCHAR LATIN CAPITAL LETTER L WITH MIDDLE DOT
ENCODING 319
SWIDTH 602 0
DWIDTH 6 0
BBX 4 7 1 0
BITMAP
80
80
80
E0
E0
80
F0
ENDCHAR

STARTCHAR LATIN SMALL LETTER L WITH MIDDLE DOT
ENCODING 320
SWIDTH 602 0
DWIDTH 6 0
BBX 5 8 1 0
BITMAP
E0
20
20
20
38
38
20
20
ENDCHAR

STARTCHAR LATIN CAPITAL LETTER L SLASH
ENCODING 321
SWIDTH 602 0
DWIDTH 6 0
BBX 5 7 0 0
BITMAP
40
40
50
60
C0
40
78
ENDCHAR

STARTCHAR LATIN SMALL LETTER L SLASH
ENCODING 322
SWIDTH 602 0
DWIDTH 6 0
BBX 5 8 1 0
BITMAP
E0
20
20
38
E0
20
20
20
ENDCHAR

STARTCHAR LATIN CAPITAL LETTER N ACUTE
ENCODING 323
SWIDTH 602 0
DWIDTH 6 0
BBX 4 10 1 0
BITMAP
20
40
00
90
D0
D0
B0
B0
90
90
ENDCHAR

STARTCHAR LATIN SMALL LETTER N ACUTE
ENCODING 324
SWIDTH 602 0
DWIDTH 6 0
BBX 4 9 1 0
BITMAP
20
40
00
A0
D0
90
90
90
90
ENDCHAR

STARTCHAR LATIN CAPITAL LETTER N CEDILLA
ENCODING 325
SWIDTH 602 0
DWIDTH 6 0
BBX 4 12 1 -5
BITMAP
90
D0
D0
B0
B0
90
90
00
20
20
20
40
ENDCHAR

STARTCHAR LATIN SMALL LETTER N CEDILLA
ENCODING 326
SWIDTH 602 0
DWIDTH 6 0
BBX 4 11 1 -5
BITMAP
A0
D0
90
90
90
90
00
20
20
20
40
ENDCHAR

STARTCHAR LATIN CAPITAL LETTER N HACEK
ENCODING 327
SWIDTH 602 0
DWIDTH 6 0
BBX 4 10 1 0
BITMAP
A0
40
00
90
D0
D0
B0
B0
90
90
ENDCHAR

STARTCHAR LATIN SMALL LETTER N HACEK
ENCODING 328
SWIDTH 602 0
DWIDTH 6 0
BBX 4 9 1 0
BITMAP
A0
40
00
A0
D0
90
90
90
90
ENDCHAR

STARTCHAR LATIN SMALL LETTER APOSTROPHE N
ENCODING 329
SWIDTH 602 0
DWIDTH 6 0
BBX 5 8 0 0
BITMAP
40
40
D0
68
48
48
48
48
ENDCHAR

STARTCHAR LATIN CAPITAL LETTER ENG
ENCODING 330
SWIDTH 602 0
DWIDTH 6 0
BBX 4 9 1 -2
BITMAP
90
D0
D0
B0
B0
90
90
10
E0
ENDCHAR

STARTCHAR LATIN SMALL LETTER ENG
ENCODING 331
SWIDTH 602 0
DWIDTH 6 0
BBX 4 8 1 -2
BITMAP
A0
D0
90
90
90
90
10
E0
ENDCHAR

STARTCHAR LATIN CAPITAL LETTER O MACRON
ENCODING 332
SWIDTH 602 0
DWIDTH 6 0
BBX 6 9 0 0
BITMAP
38
00
30
48
84
84
84
48
30
ENDCHAR

STARTCHAR LATIN SMALL LETTER O MACRON
ENCODING 333
SWIDTH 602 0
DWIDTH 6 0
BBX 4 8 1 0
BITMAP
70
00
60
90
90
90
90
60
ENDCHAR

STARTCHAR LATIN CAPITAL LETTER O BREVE
ENCODING 334
SWIDTH 602 0
DWIDTH 6 0
BBX 6 10 0 0
BITMAP
48
30
00
30
48
84
84
84
48
30
ENDCHAR

STARTCHAR LATIN SMALL LETTER O BREVE
ENCODING 335
SWIDTH 602 0
DWIDTH 6 0
BBX 4 9 1 0
BITMAP
90
60
00
60
90
90
90
90
60
ENDCHAR

STARTCHAR LATIN CAPITAL LETTER O DOUBLE ACUTE
ENCODING 336
SWIDTH 602 0
DWIDTH 6 0
BBX 6 10 0 0
BITMAP
24
48
00
30
48
84
84
84
48
30
ENDCHAR

STARTCHAR LATIN SMALL LETTER O DOUBLE ACUTE
ENCODING 337
SWIDTH 602 0
DWIDTH 6 0
BBX 5 9 1 0
BITMAP
48
90
00
60
90
90
90
90
60
ENDCHAR

STARTCHAR LATIN CAPITAL LETTER O E
ENCODING 338
SWIDTH 602 0
DWIDTH 6 0
BBX 6 7 0 0
BITMAP
7C
90
90
9C
90
90
7C
ENDCHAR

STARTCHAR LATIN SMALL LETTER O E
ENCODING 339
SWIDTH 602 0
DWIDTH 6 0
BBX 6 6 0 0
BITMAP
6C
94
9C
90
90
6C
ENDCHAR

STARTCHAR LATIN CAPITAL LETTER R ACUTE
ENCODING 340
SWIDTH 602 0
DWIDTH 6 0
BBX 4 10 1 0
BITMAP
20
40
00
E0
90
90
E0
A0
90
90
ENDCHAR

STARTCHAR LATIN SMALL LETTER R ACUTE
ENCODING 341
SWIDTH 602 0
DWIDTH 6 0
BBX 4 9 2 0
BITMAP
20
40
00
B0
D0
80
80
80
80
ENDCHAR

STARTCHAR LATIN CAPITAL LETTER R CEDILLA
ENCODING 342
SWIDTH 602 0
DWIDTH 6 0
BBX 4 12 1 -5
BITMAP
E0
90
90
E0
A0
90
90
00
20
20
20
40
ENDCHAR

STARTCHAR LATIN SMALL LETTER R CEDILLA
ENCODING 343
SWIDTH 602 0
DWIDTH 6 0
BBX 4 11 2 -5
BITMAP
B0
D0
80
80
80
80
00
40
40
40
80
ENDCHAR

STARTCHAR LATIN CAPITAL LETTER R HACEK
ENCODING 344
SWIDTH 602 0
DWIDTH 6 0
BBX 4 10 1 0
BITMAP
A0
40
00
E0
90
90
E0
A0
90
90
ENDCHAR

STARTCHAR LATIN SMALL LETTER R HACEK
ENCODING 345
SWIDTH 602 0
DWIDTH 6 0
BBX 4 9 2 0
BITMAP
50
20
00
B0
D0
80
80
80
80
ENDCHAR

STARTCHAR LATIN CAPITAL LETTER S ACUTE
ENCODING 346
SWIDTH 602 0
DWIDTH 6 0
BBX 4 10 1 0
BITMAP
20
40
00
70
80
80
60
10
10
E0
ENDCHAR

STARTCHAR LATIN SMALL LETTER S ACUTE
ENCODING 347
SWIDTH 602 0
DWIDTH 6 0
BBX 4 9 1 0
BITMAP
20
40
00
70
80
C0
30
10
E0
ENDCHAR

STARTCHAR LATIN CAPITAL LETTER S CIRCUMFLEX
ENCODING 348
SWIDTH 602 0
DWIDTH 6 0
BBX 4 10 1 0
BITMAP
20
50
00
70
80
80
60
10
10
E0
ENDCHAR

STARTCHAR LATIN SMALL LETTER S CIRCUMFLEX
ENCODING 349
SWIDTH 602 0
DWIDTH 6 0
BBX 4 9 1 0
BITMAP
20
50
00
70
80
C0
30
10
E0
ENDCHAR

STARTCHAR LATIN CAPITAL LETTER S CEDILLA
ENCODING 350
SWIDTH 602 0
DWIDTH 6 0
BBX 4 9 1 -2
BITMAP
70
80
80
60
10
10
E0
20
40
ENDCHAR

STARTCHAR LATIN SMALL LETTER S CEDILLA
ENCODING 351
SWIDTH 602 0
DWIDTH 6 0
BBX 4 8 1 -2
BITMAP
70
80
C0
30
10
E0
20
40
ENDCHAR

STARTCHAR LATIN CAPITAL LETTER S HACEK
ENCODING 352
SWIDTH 602 0
DWIDTH 6 0
BBX 4 9 1 0
BITMAP
50
20
00
70
80
40
20
10
E0
ENDCHAR

STARTCHAR LATIN SMALL LETTER S HACEK
ENCODING 353
SWIDTH 602 0
DWIDTH 6 0
BBX 4 9 1 0
BITMAP
50
20
00
70
80
C0
30
10
E0
ENDCHAR

STARTCHAR LATIN CAPITAL LETTER T CEDILLA
ENCODING 354
SWIDTH 602 0
DWIDTH 6 0
BBX 5 9 1 -2
BITMAP
F8
20
20
20
20
20
20
20
40
ENDCHAR

STARTCHAR LATIN SMALL LETTER T CEDILLA
ENCODING 355
SWIDTH 602 0
DWIDTH 6 0
BBX 4 9 1 -2
BITMAP
40
F0
40
40
40
40
30
20
40
ENDCHAR

STARTCHAR LATIN CAPITAL LETTER T HACEK
ENCODING 356
SWIDTH 602 0
DWIDTH 6 0
BBX 5 10 1 0
BITMAP
50
20
00
F8
20
20
20
20
20
20
ENDCHAR

STARTCHAR LATIN SMALL LETTER T HACEK
ENCODING 357
SWIDTH 602 0
DWIDTH 6 0
BBX 4 10 1 0
BITMAP
A0
40
00
40
F0
40
40
40
40
30
ENDCHAR

STARTCHAR LATIN CAPITAL LETTER T BAR
ENCODING 358
SWIDTH 602 0
DWIDTH 6 0
BBX 5 7 1 0
BITMAP
F8
20
20
70
20
20
20
ENDCHAR

STARTCHAR LATIN SMALL LETTER T BAR
ENCODING 359
SWIDTH 602 0
DWIDTH 6 0
BBX 4 7 1 0
BITMAP
40
F0
40
70
40
40
30
ENDCHAR

STARTCHAR LATIN CAPITAL LETTER U TILDE
ENCODING 360
SWIDTH 602 0
DWIDTH 6 0
BBX 4 10 1 0
BITMAP
50
A0
00
90
90
90
90
90
90
60
ENDCHAR

STARTCHAR LATIN SMALL LETTER U TILDE
ENCODING 361
SWIDTH 602 0
DWIDTH 6 0
BBX 4 9 1 0
BITMAP
50
A0
00
90
90
90
90
B0
50
ENDCHAR

STARTCHAR LATIN CAPITAL LETTER U MACRON
ENCODING 362
SWIDTH 602 0
DWIDTH 6 0
BBX 4 9 1 0
BITMAP
70
00
90
90
90
90
90
90
60
ENDCHAR

STARTCHAR LATIN SMALL LETTER U MACRON
ENCODING 363
SWIDTH 602 0
DWIDTH 6 0
BBX 4 8 1 0
BITMAP
70
00
90
90
90
90
B0
50
ENDCHAR

STARTCHAR LATIN CAPITAL LETTER U BREVE
ENCODING 364
SWIDTH 602 0
DWIDTH 6 0
BBX 4 10 1 0
BITMAP
90
60
00
90
90
90
90
90
90
60
ENDCHAR

STARTCHAR LATIN SMALL LETTER U BREVE
ENCODING 365
SWIDTH 602 0
DWIDTH 6 0
BBX 4 9 1 0
BITMAP
90
60
00
90
90
90
90
B0
50
ENDCHAR

STARTCHAR LATIN CAPITAL LETTER U RING
ENCODING 366
SWIDTH 602 0
DWIDTH 6 0
BBX 4 11 1 0
BITMAP
20
50
20
00
90
90
90
90
90
90
60
ENDCHAR

STARTCHAR LATIN SMALL LETTER U RING
ENCODING 367
SWIDTH 602 0
DWIDTH 6 0
BBX 4 10 1 0
BITMAP
20
50
20
00
90
90
90
90
B0
50
ENDCHAR

STARTCHAR LATIN CAPITAL LETTER U DOUBLE ACUTE
ENCODING 368
SWIDTH 602 0
DWIDTH 6 0
BBX 5 10 1 0
BITMAP
48
90
00
90
90
90
90
90
90
60
ENDCHAR

STARTCHAR LATIN SMALL LETTER U DOUBLE ACUTE
ENCODING 369
SWIDTH 602 0
DWIDTH 6 0
BBX 5 9 1 0
BITMAP
48
90
00
90
90
90
90
B0
50
ENDCHAR

STARTCHAR LATIN CAPITAL LETTER U OGONEK
ENCODING 370
SWIDTH 602 0
DWIDTH 6 0
BBX 4 9 1 -2
BITMAP
90
90
90
90
90
90
60
40
20
ENDCHAR

STARTCHAR LATIN SMALL LETTER U OGONEK
ENCODING 371
SWIDTH 602 0
DWIDTH 6 0
BBX 4 8 1 -2
BITMAP
90
90
90
90
B0
50
20
10
ENDCHAR

STARTCHAR LATIN CAPITAL LETTER W CIRCUMFLEX
ENCODING 372
SWIDTH 602 0
DWIDTH 6 0
BBX 5 10 1 0
BITMAP
20
50
00
88
A8
A8
A8
F8
50
50
ENDCHAR

STARTCHAR LATIN SMALL LETTER W CIRCUMFLEX
ENCODING 373
SWIDTH 602 0
DWIDTH 6 0
BBX 5 9 1 0
BITMAP
20
50
00
88
A8
A8
F8
50
50
ENDCHAR

STARTCHAR LATIN CAPITAL LETTER Y CIRCUMFLEX
ENCODING 374
SWIDTH 602 0
DWIDTH 6 0
BBX 5 10 1 0
BITMAP
20
50
00
88
88
50
20
20
20
20
ENDCHAR

STARTCHAR LATIN SMALL LETTER Y CIRCUMFLEX
ENCODING 375
SWIDTH 602 0
DWIDTH 6 0
BBX 4 11 1 -2
BITMAP
20
50
00
90
90
90
60
60
40
80
80
ENDCHAR

STARTCHAR LATIN CAPITAL LETTER Y DIAERESIS
ENCODING 376
SWIDTH 602 0
DWIDTH 6 0
BBX 5 8 1 0
BITMAP
50
00
88
88
50
20
20
20
ENDCHAR

STARTCHAR LATIN CAPITAL LETTER Z ACUTE
ENCODING 377
SWIDTH 602 0
DWIDTH 6 0
BBX 4 10 1 0
BITMAP
10
20
00
F0
10
20
60
40
80
F0
ENDCHAR

STARTCHAR LATIN SMALL LETTER Z ACUTE
ENCODING 378
SWIDTH 602 0
DWIDTH 6 0
BBX 4 9 1 0
BITMAP
10
20
00
F0
10
20
40
80
F0
ENDCHAR

STARTCHAR LATIN CAPITAL LETTER Z DOT
ENCODING 379
SWIDTH 602 0
DWIDTH 6 0
BBX 4 10 1 0
BITMAP
20
20
00
F0
10
20
60
40
80
F0
ENDCHAR

STARTCHAR LATIN SMALL LETTER Z DOT
ENCODING 380
SWIDTH 602 0
DWIDTH 6 0
BBX 4 9 1 0
BITMAP
20
20
00
F0
10
20
40
80
F0
ENDCHAR

STARTCHAR LATIN CAPITAL LETTER Z HACEK
ENCODING 381
SWIDTH 602 0
DWIDTH 6 0
BBX 4 9 1 0
BITMAP
50
20
00
F0
10
20
40
80
F0
ENDCHAR

STARTCHAR LATIN SMALL LETTER Z HACEK
ENCODING 382
SWIDTH 602 0
DWIDTH 6 0
BBX 4 9 1 0
BITMAP
50
20
00
F0
10
20
40
80
F0
ENDCHAR

STARTCHAR LATIN CAPITAL LETTER OPEN O
ENCODING 390
SWIDTH 602 0
DWIDTH 6 0
BBX 5 7 0 0
BITMAP
E0
10
08
08
08
90
E0
ENDCHAR

STARTCHAR LATIN CAPITAL LETTER AFRICAN D
ENCODING 393
SWIDTH 602 0
DWIDTH 6 0
BBX 6 7 0 0
BITMAP
70
48
44
F4
44
48
70
ENDCHAR

STARTCHAR LATIN CAPITAL LETTER TURNED E
ENCODING 398
SWIDTH 602 0
DWIDTH 6 0
BBX 4 7 1 0
BITMAP
F0
10
10
70
10
10
F0
ENDCHAR

STARTCHAR LATIN SMALL LETTER SCRIPT F
ENCODING 402
SWIDTH 602 0
DWIDTH 6 0
BBX 4 8 1 -1
BITMAP
30
40
40
F0
40
40
80
80
ENDCHAR

STARTCHAR LATIN CAPITAL LETTER BARRED I
ENCODING 407
SWIDTH 602 0
DWIDTH 6 0
BBX 3 7 2 0
BITMAP
E0
40
40
E0
40
40
E0
ENDCHAR

STARTCHAR LATIN SMALL LETTER BARRED L
ENCODING 410
SWIDTH 602 0
DWIDTH 6 0
BBX 3 8 1 0
BITMAP
E0
20
20
E0
20
20
20
20
ENDCHAR

STARTCHAR LATIN CAPITAL LETTER N HOOK
ENCODING 413
SWIDTH 602 0
DWIDTH 6 0
BBX 7 9 -2 -2
BITMAP
12
1A
1A
16
16
12
12
10
E0
ENDCHAR

STARTCHAR LATIN CAPITAL LETTER BARRED O
ENCODING 415
SWIDTH 602 0
DWIDTH 6 0
BBX 6 7 0 0
BITMAP
30
48
84
FC
84
48
30
ENDCHAR

STARTCHAR LATIN CAPITAL LETTER O HORN
ENCODING 416
SWIDTH 602 0
DWIDTH 6 0
BBX 8 7 0 0
BITMAP
31
49
86
84
84
48
30
ENDCHAR

STARTCHAR LATIN SMALL LETTER O HORN
ENCODING 417
SWIDTH 602 0
DWIDTH 6 0
BBX 6 6 1 0
BITMAP
64
94
98
90
90
60
ENDCHAR

STARTCHAR LATIN CAPITAL LETTER TONE TWO
ENCODING 423
SWIDTH 602 0
DWIDTH 6 0
BBX 4 7 1 0
BITMAP
E0
10
10
60
80
80
70
ENDCHAR

STARTCHAR LATIN SMALL LETTER TONE TWO
ENCODING 424
SWIDTH 602 0
DWIDTH 6 0
BBX 4 6 1 0
BITMAP
E0
10
30
C0
80
70
ENDCHAR

STARTCHAR LATIN CAPITAL LETTER T RETROFLEX HOOK
ENCODING 430
SWIDTH 602 0
DWIDTH 6 0
BBX 6 9 1 -2
BITMAP
F8
20
20
20
20
20
20
20
1C
ENDCHAR

STARTCHAR LATIN CAPITAL LETTER U HORN
ENCODING 431
SWIDTH 602 0
DWIDTH 6 0
BBX 6 7 1 0
BITMAP
94
94
98
90
90
90
60
ENDCHAR

STARTCHAR LATIN SMALL LETTER U HORN
ENCODING 432
SWIDTH 602 0
DWIDTH 6 0
BBX 6 6 1 0
BITMAP
94
94
98
90
B0
50
ENDCHAR

STARTCHAR LATIN CAPITAL LETTER Z BAR
ENCODING 437
SWIDTH 602 0
DWIDTH 6 0
BBX 4 7 1 0
BITMAP
F0
10
20
70
40
80
F0
ENDCHAR

STARTCHAR LATIN SMALL LETTER Z BAR
ENCODING 438
SWIDTH 602 0
DWIDTH 6 0
BBX 4 6 1 0
BITMAP
F0
10
70
40
80
F0
ENDCHAR

STARTCHAR LATIN LETTER TWO BAR
ENCODING 443
SWIDTH 602 0
DWIDTH 6 0
BBX 5 7 1 0
BITMAP
70
88
08
F8
40
80
F8
ENDCHAR

STARTCHAR LATIN CAPITAL LETTER TONE FIVE
ENCODING 444
SWIDTH 602 0
DWIDTH 6 0
BBX 5 7 1 0
BITMAP
F8
80
80
F0
08
88
70
ENDCHAR

STARTCHAR LATIN LETTER PIPE
ENCODING 448
SWIDTH 602 0
DWIDTH 6 0
BBX 1 9 3 -1
BITMAP
80
80
80
80
80
80
80
80
80
ENDCHAR

STARTCHAR LATIN LETTER PIPE DOUBLE BAR
ENCODING 450
SWIDTH 602 0
DWIDTH 6 0
BBX 5 9 1 -1
BITMAP
20
20
20
F8
20
F8
20
20
20
ENDCHAR

STARTCHAR LATIN LETTER EXCLAMATION MARK
ENCODING 451
SWIDTH 602 0
DWIDTH 6 0
BBX 1 7 2 0
BITMAP
80
80
80
80
00
80
80
ENDCHAR

STARTCHAR LATIN CAPITAL LETTER A HACEK
ENCODING 461
SWIDTH 602 0
DWIDTH 6 0
BBX 4 10 1 0
BITMAP
50
20
00
60
60
90
90
F0
90
90
ENDCHAR

STARTCHAR LATIN SMALL LETTER A HACEK
ENCODING 462
SWIDTH 602 0
DWIDTH 6 0
BBX 4 9 1 0
BITMAP
50
20
00
60
10
70
90
B0
50
ENDCHAR

STARTCHAR LATIN CAPITAL LETTER I HACEK
ENCODING 463
SWIDTH 602 0
DWIDTH 6 0
BBX 3 10 2 0
BITMAP
A0
40
00
E0
40
40
40
40
40
E0
ENDCHAR

STARTCHAR LATIN SMALL LETTER I HACEK
ENCODING 464
SWIDTH 602 0
DWIDTH 6 0
BBX 3 9 1 0
BITMAP
A0
40
00
E0
20
20
20
20
20
ENDCHAR

STARTCHAR LATIN CAPITAL LETTER O HACEK
ENCODING 465
SWIDTH 602 0
DWIDTH 6 0
BBX 6 10 0 0
BITMAP
28
10
00
30
48
84
84
84
48
30
ENDCHAR

STARTCHAR LATIN SMALL LETTER O HACEK
ENCODING 466
SWIDTH 602 0
DWIDTH 6 0
BBX 4 9 1 0
BITMAP
50
20
00
60
90
90
90
90
60
ENDCHAR

STARTCHAR LATIN CAPITAL LETTER U HACEK
ENCODING 467
SWIDTH 602 0
DWIDTH 6 0
BBX 4 10 1 0
BITMAP
50
20
00
90
90
90
90
90
90
60
ENDCHAR

STARTCHAR LATIN SMALL LETTER U HACEK
ENCODING 468
SWIDTH 602 0
DWIDTH 6 0
BBX 4 9 1 0
BITMAP
50
20
00
90
90
90
90
B0
50
ENDCHAR

STARTCHAR LATIN CAPITAL LETTER U DIAERESIS MACRON
ENCODING 469
SWIDTH 602 0
DWIDTH 6 0
BBX 4 10 1 0
BITMAP
70
00
90
00
90
90
90
90
90
60
ENDCHAR

STARTCHAR LATIN SMALL LETTER U DIAERESIS MACRON
ENCODING 470
SWIDTH 602 0
DWIDTH 6 0
BBX 4 10 1 0
BITMAP
70
00
90
00
90
90
90
90
B0
50
ENDCHAR

STARTCHAR LATIN CAPITAL LETTER U DIAERESIS ACUTE
ENCODING 471
SWIDTH 602 0
DWIDTH 6 0
BBX 4 11 1 0
BITMAP
20
40
00
90
00
90
90
90
90
90
60
ENDCHAR

STARTCHAR LATIN SMALL LETTER U DIAERESIS ACUTE
ENCODING 472
SWIDTH 602 0
DWIDTH 6 0
BBX 4 11 1 0
BITMAP
20
40
00
90
00
90
90
90
90
B0
50
ENDCHAR

STARTCHAR LATIN CAPITAL LETTER U DIAERESIS HACEK
ENCODING 473
SWIDTH 602 0
DWIDTH 6 0
BBX 4 11 1 0
BITMAP
50
20
00
90
00
90
90
90
90
90
60
ENDCHAR

STARTCHAR LATIN SMALL LETTER U DIAERESIS HACEK
ENCODING 474
SWIDTH 602 0
DWIDTH 6 0
BBX 4 11 1 0
BITMAP
50
20
00
90
00
90
90
90
90
B0
50
ENDCHAR

STARTCHAR LATIN CAPITAL LETTER U DIAERESIS GRAVE
ENCODING 475
SWIDTH 602 0
DWIDTH 6 0
BBX 4 11 1 0
BITMAP
40
20
00
90
00
90
90
90
90
90
60
ENDCHAR

STARTCHAR LATIN SMALL LETTER U DIAERESIS GRAVE
ENCODING 476
SWIDTH 602 0
DWIDTH 6 0
BBX 4 11 1 0
BITMAP
40
20
00
90
00
90
90
90
90
B0
50
ENDCHAR

STARTCHAR LATIN SMALL LETTER TURNED E
ENCODING 477
SWIDTH 602 0
DWIDTH 6 0
BBX 4 6 1 0
BITMAP
E0
10
10
F0
90
60
ENDCHAR

STARTCHAR LATIN CAPITAL LETTER A DIAERESIS MACRON
ENCODING 478
SWIDTH 602 0
DWIDTH 6 0
BBX 4 10 1 0
BITMAP
70
00
90
00
60
60
90
F0
90
90
ENDCHAR

STARTCHAR LATIN SMALL LETTER A DIAERESIS MACRON
ENCODING 479
SWIDTH 602 0
DWIDTH 6 0
BBX 4 10 1 0
BITMAP
70
00
50
00
60
10
70
90
B0
50
ENDCHAR

STARTCHAR LATIN CAPITAL LETTER A DOT MACRON
ENCODING 480
SWIDTH 602 0
DWIDTH 6 0
BBX 4 12 1 0
BITMAP
70
00
20
20
00
60
60
90
90
F0
90
90
ENDCHAR

STARTCHAR LATIN SMALL LETTER A DOT MACRON
ENCODING 481
SWIDTH 602 0
DWIDTH 6 0
BBX 4 11 1 0
BITMAP
70
00
20
20
00
60
10
70
90
B0
50
ENDCHAR

STARTCHAR LATIN CAPITAL LETTER A E MACRON
ENCODING 482
SWIDTH 602 0
DWIDTH 6 0
BBX 6 9 0 0
BITMAP
38
00
3C
30
50
5C
F0
90
9C
ENDCHAR

STARTCHAR LATIN SMALL LETTER A E MACRON
ENCODING 483
SWIDTH 602 0
DWIDTH 6 0
BBX 5 8 1 0
BITMAP
70
00
D8
28
78
A0
A0
D8
ENDCHAR

STARTCHAR LATIN CAPITAL LETTER G BAR
ENCODING 484
SWIDTH 602 0
DWIDTH 6 0
BBX 6 7 0 0
BITMAP
38
48
80
9C
88
48
38
ENDCHAR

STARTCHAR LATIN SMALL LETTER G BAR
ENCODING 485
SWIDTH 602 0
DWIDTH 6 0
BBX 4 8 1 -2
BITMAP
70
90
90
90
B0
F0
10
E0
ENDCHAR

STARTCHAR LATIN CAPITAL LETTER G HACEK
ENCODING 486
SWIDTH 602 0
DWIDTH 6 0
BBX 5 10 0 0
BITMAP
28
10
00
38
48
80
80
88
48
38
ENDCHAR

STARTCHAR LATIN SMALL LETTER G HACEK
ENCODING 487
SWIDTH 602 0
DWIDTH 6 0
BBX 4 11 1 -2
BITMAP
50
20
00
70
90
90
90
B0
50
10
E0
ENDCHAR

STARTCHAR LATIN CAPITAL LETTER K HACEK
ENCODING 488
SWIDTH 602 0
DWIDTH 6 0
BBX 5 10 1 0
BITMAP
50
20
00
88
90
A0
C0
A0
90
88
ENDCHAR

STARTCHAR LATIN SMALL LETTER K HACEK
ENCODING 489
SWIDTH 602 0
DWIDTH 6 0
BBX 5 11 1 0
BITMAP
A0
40
00
80
80
90
A0
C0
A0
90
88
ENDCHAR

STARTCHAR LATIN CAPITAL LETTER O OGONEK
ENCODING 490
SWIDTH 602 0
DWIDTH 6 0
BBX 6 9 0 -2
BITMAP
30
48
84
84
84
48
30
20
10
ENDCHAR

STARTCHAR LATIN SMALL LETTER O OGONEK
ENCODING 491
SWIDTH 602 0
DWIDTH 6 0
BBX 4 8 1 -2
BITMAP
60
90
90
90
90
60
40
20
ENDCHAR

STARTCHAR LATIN CAPITAL LETTER O OGONEK MACRON
ENCODING 492
SWIDTH 602 0
DWIDTH 6 0
BBX 6 11 0 -2
BITMAP
38
00
30
48
84
84
84
48
30
20
10
ENDCHAR

STARTCHAR LATIN SMALL LETTER O OGONEK MACRON
ENCODING 493
SWIDTH 602 0
DWIDTH 6 0
BBX 4 10 1 -2
BITMAP
70
00
60
90
90
90
90
60
40
20
ENDCHAR

STARTCHAR LATIN SMALL LETTER J HACEK
ENCODING 496
SWIDTH 602 0
DWIDTH 6 0
BBX 4 11 0 -2
BITMAP
50
20
00
70
10
10
10
10
10
10
E0
ENDCHAR

STARTCHAR LATIN CAPITAL LETTER G WITH ACUTE
ENCODING 500
SWIDTH 602 0
DWIDTH 6 0
BBX 5 10 0 0
BITMAP
10
20
00
38
48
80
80
88
48
38
ENDCHAR

STARTCHAR LATIN SMALL LETTER G WITH ACUTE
ENCODING 501
SWIDTH 602 0
DWIDTH 6 0
BBX 4 11 1 -2
BITMAP
20
40
00
70
90
90
90
B0
50
10
E0
ENDCHAR

STARTCHAR LATIN CAPITAL LETTER N WITH GRAVE
ENCODING 504
SWIDTH 602 0
DWIDTH 6 0
BBX 4 10 1 0
BITMAP
40
20
00
90
D0
D0
B0
B0
90
90
ENDCHAR

STARTCHAR LATIN SMALL LETTER N WITH GRAVE
ENCODING 505
SWIDTH 602 0
DWIDTH 6 0
BBX 4 9 1 0
BITMAP
80
40
00
A0
D0
90
90
90
90
ENDCHAR

STARTCHAR LATIN CAPITAL LETTER A WITH RING ABOVE AND ACUTE
ENCODING 506
SWIDTH 602 0
DWIDTH 6 0
BBX 4 11 1 0
BITMAP
20
40
00
60
90
60
60
90
F0
90
90
ENDCHAR

STARTCHAR LATIN SMALL LETTER A WITH RING ABOVE AND ACUTE
ENCODING 507
SWIDTH 602 0
DWIDTH 6 0
BBX 4 12 1 0
BITMAP
10
20
00
20
50
20
60
10
70
90
B0
50
ENDCHAR

STARTCHAR LATIN CAPITAL LETTER AE WITH ACUTE
ENCODING 508
SWIDTH 602 0
DWIDTH 6 0
BBX 6 10 0 0
BITMAP
08
10
00
3C
30
50
5C
F0
90
9C
ENDCHAR

STARTCHAR LATIN SMALL LETTER AE WITH ACUTE
ENCODING 509
SWIDTH 602 0
DWIDTH 6 0
BBX 5 9 1 0
BITMAP
10
20
00
D8
28
78
A0
A0
D8
ENDCHAR

STARTCHAR LATIN CAPITAL LETTER O WITH STROKE AND ACUTE
ENCODING 510
SWIDTH 602 0
DWIDTH 6 0
BBX 6 10 0 0
BITMAP
08
10
00
34
48
94
B4
A4
48
B0
ENDCHAR

STARTCHAR LATIN SMALL LETTER O WITH STROKE AND ACUTE
ENCODING 511
SWIDTH 602 0
DWIDTH 6 0
BBX 6 9 0 0
BITMAP
08
10
00
34
48
58
68
48
B0
ENDCHAR

STARTCHAR LATIN CAPITAL LETTER A WITH DOUBLE GRAVE
ENCODING 512
SWIDTH 602 0
DWIDTH 6 0
BBX 5 10 0 0
BITMAP
90
48
00
30
30
48
48
78
48
48
ENDCHAR

STARTCHAR LATIN SMALL LETTER A WITH DOUBLE GRAVE
ENCODING 513
SWIDTH 602 0
DWIDTH 6 0
BBX 5 9 1 0
BITMAP
90
48
00
60
10
70
90
B0
50
ENDCHAR

STARTCHAR LATIN CAPITAL LETTER A WITH INVERTED BREVE
ENCODING 514
SWIDTH 602 0
DWIDTH 6 0
BBX 4 10 1 0
BITMAP
60
90
00
60
60
90
90
F0
90
90
ENDCHAR

STARTCHAR LATIN SMALL LETTER A WITH INVERTED BREVE
ENCODING 515
SWIDTH 602 0
DWIDTH 6 0
BBX 4 9 1 0
BITMAP
60
90
00
60
10
70
90
B0
50
ENDCHAR

STARTCHAR LATIN CAPITAL LETTER E WITH DOUBLE GRAVE
ENCODING 516
SWIDTH 602 0
DWIDTH 6 0
BBX 5 10 0 0
BITMAP
90
48
00
78
40
40
70
40
40
78
ENDCHAR

STARTCHAR LATIN SMALL LETTER E WITH DOUBLE GRAVE
ENCODING 517
SWIDTH 602 0
DWIDTH 6 0
BBX 5 9 0 0
BITMAP
90
48
00
30
48
78
40
40
38
ENDCHAR

STARTCHAR LATIN CAPITAL LETTER E WITH INVERTED BREVE
ENCODING 518
SWIDTH 602 0
DWIDTH 6 0
BBX 4 10 1 0
BITMAP
60
90
00
F0
80
80
E0
80
80
F0
ENDCHAR

STARTCHAR LATIN SMALL LETTER E WITH INVERTED BREVE
ENCODING 519
SWIDTH 602 0
DWIDTH 6 0
BBX 4 9 1 0
BITMAP
60
90
00
60
90
F0
80
80
70
ENDCHAR

STARTCHAR LATIN CAPITAL LETTER I WITH DOUBLE GRAVE
ENCODING 520
SWIDTH 602 0
DWIDTH 6 0
BBX 5 10 1 0
BITMAP
90
48
00
70
20
20
20
20
20
70
ENDCHAR

STARTCHAR LATIN SMALL LETTER I WITH DOUBLE GRAVE
ENCODING 521
SWIDTH 602 0
DWIDTH 6 0
BBX 5 9 0 0
BITMAP
90
48
00
70
10
10
10
10
10
ENDCHAR

STARTCHAR LATIN CAPITAL LETTER I WITH INVERTED BREVE
ENCODING 522
SWIDTH 602 0
DWIDTH 6 0
BBX 4 10 2 0
BITMAP
60
90
00
E0
40
40
40
40
40
E0
ENDCHAR

STARTCHAR LATIN SMALL LETTER I WITH INVERTED BREVE
ENCODING 523
SWIDTH 602 0
DWIDTH 6 0
BBX 4 9 1 0
BITMAP
60
90
00
E0
20
20
20
20
20
ENDCHAR

STARTCHAR LATIN CAPITAL LETTER O WITH DOUBLE GRAVE
ENCODING 524
SWIDTH 602 0
DWIDTH 6 0
BBX 6 10 0 0
BITMAP
90
48
00
30
48
84
84
84
48
30
ENDCHAR

STARTCHAR LATIN SMALL LETTER O WITH DOUBLE GRAVE
ENCODING 525
SWIDTH 602 0
DWIDTH 6 0
BBX 5 9 0 0
BITMAP
90
48
00
30
48
48
48
48
30
ENDCHAR

STARTCHAR LATIN CAPITAL LETTER O WITH INVERTED BREVE
ENCODING 526
SWIDTH 602 0
DWIDTH 6 0
BBX 6 10 0 0
BITMAP
30
48
00
30
48
84
84
84
48
30
ENDCHAR

STARTCHAR LATIN SMALL LETTER O WITH INVERTED BREVE
ENCODING 527
SWIDTH 602 0
DWIDTH 6 0
BBX 4 9 1 0
BITMAP
60
90
00
60
90
90
90
90
60
ENDCHAR

STARTCHAR LATIN CAPITAL LETTER R WITH DOUBLE GRAVE
ENCODING 528
SWIDTH 602 0
DWIDTH 6 0
BBX 5 10 0 0
BITMAP
90
48
00
70
48
48
70
50
48
48
ENDCHAR

STARTCHAR LATIN SMALL LETTER R WITH DOUBLE GRAVE
ENCODING 529
SWIDTH 602 0
DWIDTH 6 0
BBX 5 9 1 0
BITMAP
90
48
00
58
68
40
40
40
40
ENDCHAR

STARTCHAR LATIN CAPITAL LETTER R WITH INVERTED BREVE
ENCODING 530
SWIDTH 602 0
DWIDTH 6 0
BBX 4 10 1 0
BITMAP
60
90
00
E0
90
90
E0
A0
90
90
ENDCHAR

STARTCHAR LATIN SMALL LETTER R WITH INVERTED BREVE
ENCODING 531
SWIDTH 602 0
DWIDTH 6 0
BBX 4 9 2 0
BITMAP
60
90
00
B0
D0
80
80
80
80
ENDCHAR

STARTCHAR LATIN CAPITAL LETTER U WITH DOUBLE GRAVE
ENCODING 532
SWIDTH 602 0
DWIDTH 6 0
BBX 5 10 0 0
BITMAP
90
48
00
48
48
48
48
48
48
30
ENDCHAR

STARTCHAR LATIN SMALL LETTER U WITH DOUBLE GRAVE
ENCODING 533
SWIDTH 602 0
DWIDTH 6 0
BBX 5 9 0 0
BITMAP
90
48
00
48
48
48
48
58
28
ENDCHAR

STARTCHAR LATIN CAPITAL LETTER U WITH INVERTED BREVE
ENCODING 534
SWIDTH 602 0
DWIDTH 6 0
BBX 4 10 1 0
BITMAP
60
90
00
90
90
90
90
90
90
60
ENDCHAR

STARTCHAR LATIN SMALL LETTER U WITH INVERTED BREVE
ENCODING 535
SWIDTH 602 0
DWIDTH 6 0
BBX 4 9 1 0
BITMAP
60
90
00
90
90
90
90
B0
50
ENDCHAR

STARTCHAR LATIN CAPITAL LETTER S WITH COMMA BELOW
ENCODING 536
SWIDTH 602 0
DWIDTH 6 0
BBX 4 12 1 -5
BITMAP
70
80
80
60
10
10
E0
00
20
20
20
40
ENDCHAR

STARTCHAR LATIN SMALL LETTER S WITH COMMA BELOW
ENCODING 537
SWIDTH 602 0
DWIDTH 6 0
BBX 4 11 1 -5
BITMAP
70
80
C0
30
10
E0
00
20
20
20
40
ENDCHAR

STARTCHAR LATIN CAPITAL LETTER T WITH COMMA BELOW
ENCODING 538
SWIDTH 602 0
DWIDTH 6 0
BBX 5 12 1 -5
BITMAP
F8
20
20
20
20
20
20
00
20
20
20
40
ENDCHAR

STARTCHAR LATIN SMALL LETTER T WITH COMMA BELOW
ENCODING 539
SWIDTH 602 0
DWIDTH 6 0
BBX 4 12 1 -5
BITMAP
40
F0
40
40
40
40
30
00
20
20
20
40
ENDCHAR

STARTCHAR LATIN CAPITAL LETTER H WITH CARON
ENCODING 542
SWIDTH 602 0
DWIDTH 6 0
BBX 4 10 1 0
BITMAP
50
20
00
90
90
90
F0
90
90
90
ENDCHAR

STARTCHAR LATIN SMALL LETTER H WITH CARON
ENCODING 543
SWIDTH 602 0
DWIDTH 6 0
BBX 4 11 1 0
BITMAP
A0
40
00
80
80
A0
D0
90
90
90
90
ENDCHAR

STARTCHAR LATIN CAPITAL LETTER A WITH DOT ABOVE
ENCODING 550
SWIDTH 602 0
DWIDTH 6 0
BBX 4 10 1 0
BITMAP
20
20
00
60
60
90
90
F0
90
90
ENDCHAR

STARTCHAR LATIN SMALL LETTER A WITH DOT ABOVE
ENCODING 551
SWIDTH 602 0
DWIDTH 6 0
BBX 4 9 1 0
BITMAP
20
20
00
60
10
70
90
B0
50
ENDCHAR

STARTCHAR LATIN CAPITAL LETTER E WITH CEDILLA
ENCODING 552
SWIDTH 602 0
DWIDTH 6 0
BBX 4 9 1 -2
BITMAP
F0
80
80
E0
80
80
F0
40
80
ENDCHAR

STARTCHAR LATIN SMALL LETTER E WITH CEDILLA
ENCODING 553
SWIDTH 602 0
DWIDTH 6 0
BBX 4 8 1 -2
BITMAP
60
90
F0
80
80
70
20
40
ENDCHAR

STARTCHAR LATIN CAPITAL LETTER O WITH DIAERESIS AND MACRON
ENCODING 554
SWIDTH 602 0
DWIDTH 6 0
BBX 6 10 0 0
BITMAP
38
00
48
00
30
48
84
84
48
30
ENDCHAR

STARTCHAR LATIN SMALL LETTER O WITH DIAERESIS AND MACRON
ENCODING 555
SWIDTH 602 0
DWIDTH 6 0
BBX 4 10 1 0
BITMAP
70
00
90
00
60
90
90
90
90
60
ENDCHAR

STARTCHAR LATIN CAPITAL LETTER O WITH TILDE AND MACRON
ENCODING 556
SWIDTH 602 0
DWIDTH 6 0
BBX 6 11 0 0
BITMAP
38
00
28
50
00
30
48
84
84
48
30
ENDCHAR

STARTCHAR LATIN SMALL LETTER O WITH TILDE AND MACRON
ENCODING 557
SWIDTH 602 0
DWIDTH 6 0
BBX 4 11 1 0
BITMAP
70
00
50
A0
00
60
90
90
90
90
60
ENDCHAR

STARTCHAR LATIN CAPITAL LETTER O WITH DOT ABOVE
ENCODING 558
SWIDTH 602 0
DWIDTH 6 0
BBX 6 10 0 0
BITMAP
10
10
00
30
48
84
84
84
48
30
ENDCHAR

STARTCHAR LATIN SMALL LETTER O WITH DOT ABOVE
ENCODING 559
SWIDTH 602 0
DWIDTH 6 0
BBX 4 9 1 0
BITMAP
20
20
00
60
90
90
90
90
60
ENDCHAR

STARTCHAR LATIN CAPITAL LETTER O WITH DOT ABOVE AND MACRON
ENCODING 560
SWIDTH 602 0
DWIDTH 6 0
BBX 6 12 0 0
BITMAP
38
00
10
10
00
30
48
84
84
84
48
30
ENDCHAR

STARTCHAR LATIN SMALL LETTER O WITH DOT ABOVE AND MACRON
ENCODING 561
SWIDTH 602 0
DWIDTH 6 0
BBX 4 11 1 0
BITMAP
70
00
20
20
00
60
90
90
90
90
60
ENDCHAR

STARTCHAR LATIN CAPITAL LETTER Y WITH MACRON
ENCODING 562
SWIDTH 602 0
DWIDTH 6 0
BBX 5 9 1 0
BITMAP
70
00
88
88
50
20
20
20
20
ENDCHAR

STARTCHAR LATIN SMALL LETTER Y WITH MACRON
ENCODING 563
SWIDTH 602 0
DWIDTH 6 0
BBX 4 10 1 -2
BITMAP
70
00
90
90
90
60
60
40
80
80
ENDCHAR

STARTCHAR LATIN SMALL LETTER TURNED A
ENCODING 592
SWIDTH 602 0
DWIDTH 6 0
BBX 4 6 1 0
BITMAP
A0
D0
90
E0
80
60
ENDCHAR

STARTCHAR LATIN SMALL LETTER OPEN O
ENCODING 596
SWIDTH 602 0
DWIDTH 6 0
BBX 4 6 1 0
BITMAP
E0
10
10
10
10
E0
ENDCHAR

STARTCHAR LATIN SMALL LETTER REVERSED E
ENCODING 600
SWIDTH 602 0
DWIDTH 6 0
BBX 4 6 1 0
BITMAP
60
90
F0
10
10
E0
ENDCHAR

STARTCHAR LATIN SMALL LETTER SCHWA
ENCODING 601
SWIDTH 602 0
DWIDTH 6 0
BBX 4 6 1 0
BITMAP
E0
10
10
F0
90
60
ENDCHAR

STARTCHAR LATIN SMALL LETTER DOTLESS J BAR
ENCODING 607
SWIDTH 602 0
DWIDTH 6 0
BBX 5 8 1 -2
BITMAP
10
10
10
10
10
78
10
E0
ENDCHAR

STARTCHAR LATIN SMALL LETTER TURNED H
ENCODING 613
SWIDTH 602 0
DWIDTH 6 0
BBX 4 8 1 -2
BITMAP
90
90
90
90
B0
50
10
10
ENDCHAR

STARTCHAR LATIN SMALL LETTER BARRED O
ENCODING 629
SWIDTH 602 0
DWIDTH 6 0
BBX 4 6 1 0
BITMAP
60
90
F0
90
90
60
ENDCHAR

STARTCHAR LATIN SMALL LETTER TURNED R
ENCODING 633
SWIDTH 602 0
DWIDTH 6 0
BBX 4 6 2 0
BITMAP
10
10
10
10
B0
D0
ENDCHAR

STARTCHAR LATIN SMALL LETTER TURNED T
ENCODING 647
SWIDTH 602 0
DWIDTH 6 0
BBX 4 7 1 0
BITMAP
C0
20
20
20
20
F0
20
ENDCHAR

STARTCHAR LATIN SMALL LETTER T RETROFLEX HOOK
ENCODING 648
SWIDTH 602 0
DWIDTH 6 0
BBX 5 9 1 -2
BITMAP
40
F0
40
40
40
40
40
40
38
ENDCHAR

STARTCHAR LATIN SMALL LETTER U BAR
ENCODING 649
SWIDTH 602 0
DWIDTH 6 0
BBX 4 6 1 0
BITMAP
90
90
F0
90
B0
50
ENDCHAR

STARTCHAR LATIN SMALL LETTER TURNED V
ENCODING 652
SWIDTH 602 0
DWIDTH 6 0
BBX 4 6 1 0
BITMAP
60
60
90
90
90
90
ENDCHAR

STARTCHAR LATIN SMALL LETTER TURNED W
ENCODING 653
SWIDTH 602 0
DWIDTH 6 0
BBX 5 6 1 0
BITMAP
50
50
F8
A8
A8
88
ENDCHAR

STARTCHAR LATIN SMALL LETTER TURNED Y
ENCODING 654
SWIDTH 602 0
DWIDTH 6 0
BBX 4 8 1 0
BITMAP
10
10
20
60
60
90
90
90
ENDCHAR

STARTCHAR LATIN SMALL LETTER TURNED K
ENCODING 670
SWIDTH 602 0
DWIDTH 6 0
BBX 5 8 1 -2
BITMAP
88
48
28
18
28
48
08
08
ENDCHAR

STARTCHAR MODIFIER LETTER TURNED COMMA
ENCODING 699
SWIDTH 602 0
DWIDTH 6 0
BBX 2 3 2 5
BITMAP
40
80
80
ENDCHAR

STARTCHAR MODIFIER LETTER APOSTROPHE
ENCODING 700
SWIDTH 602 0
DWIDTH 6 0
BBX 2 3 2 5
BITMAP
40
40
80
ENDCHAR

STARTCHAR MODIFIER LETTER REVERSED COMMA
ENCODING 701
SWIDTH 602 0
DWIDTH 6 0
BBX 2 3 2 5
BITMAP
80
80
40
ENDCHAR

STARTCHAR MODIFIER LETTER CIRCUMFLEX
ENCODING 710
SWIDTH 602 0
DWIDTH 6 0
BBX 3 2 2 7
BITMAP
40
A0
ENDCHAR

STARTCHAR MODIFIER LETTER HACEK
ENCODING 711
SWIDTH 602 0
DWIDTH 6 0
BBX 3 2 2 7
BITMAP
A0
40
ENDCHAR

STARTCHAR MODIFIER LETTER VERTICAL LINE
ENCODING 712
SWIDTH 602 0
DWIDTH 6 0
BBX 1 3 3 5
BITMAP
80
80
80
ENDCHAR

STARTCHAR MODIFIER LETTER MACRON
ENCODING 713
SWIDTH 602 0
DWIDTH 6 0
BBX 3 1 2 7
BITMAP
E0
ENDCHAR

STARTCHAR MODIFIER LETTER ACUTE
ENCODING 714
SWIDTH 602 0
DWIDTH 6 0
BBX 2 2 2 7
BITMAP
40
80
ENDCHAR

STARTCHAR MODIFIER LETTER GRAVE
ENCODING 715
SWIDTH 602 0
DWIDTH 6 0
BBX 2 2 2 7
BITMAP
80
40
ENDCHAR

STARTCHAR MODIFIER LETTER LOW MACRON
ENCODING 717
SWIDTH 602 0
DWIDTH 6 0
BBX 3 1 2 -2
BITMAP
E0
ENDCHAR

STARTCHAR MODIFIER LETTER LOW GRAVE
ENCODING 718
SWIDTH 602 0
DWIDTH 6 0
BBX 2 2 2 -3
BITMAP
80
40
ENDCHAR

STARTCHAR MODIFIER LETTER LOW ACUTE
ENCODING 719
SWIDTH 602 0
DWIDTH 6 0
BBX 2 2 2 -3
BITMAP
40
80
ENDCHAR

STARTCHAR SPACING BREVE
ENCODING 728
SWIDTH 602 0
DWIDTH 6 0
BBX 4 2 1 7
BITMAP
90
60
ENDCHAR

STARTCHAR SPACING DOT ABOVE
ENCODING 729
SWIDTH 602 0
DWIDTH 6 0
BBX 1 2 3 7
BITMAP
80
80
ENDCHAR

STARTCHAR SPACING RING ABOVE
ENCODING 730
SWIDTH 602 0
DWIDTH 6 0
BBX 3 3 2 6
BITMAP
40
A0
40
ENDCHAR

STARTCHAR SPACING OGONEK
ENCODING 731
SWIDTH 602 0
DWIDTH 6 0
BBX 2 2 2 -2
BITMAP
80
40
ENDCHAR

STARTCHAR SPACING TILDE
ENCODING 732
SWIDTH 602 0
DWIDTH 6 0
BBX 4 2 1 7
BITMAP
50
A0
ENDCHAR

STARTCHAR SPACING DOUBLE ACUTE
ENCODING 733
SWIDTH 602 0
DWIDTH 6 0
BBX 5 2 1 7
BITMAP
48
90
ENDCHAR

STARTCHAR MODIFIER LETTER DOUBLE APOSTROPHE
ENCODING 750
SWIDTH 602 0
DWIDTH 6 0
BBX 4 3 1 5
BITMAP
50
50
A0
ENDCHAR

STARTCHAR GREEK QUESTION MARK
ENCODING 894
SWIDTH 602 0
DWIDTH 6 0
BBX 2 8 2 -2
BITMAP
40
40
00
00
40
40
40
80
ENDCHAR

STARTCHAR GREEK SPACING TONOS
ENCODING 900
SWIDTH 602 0
DWIDTH 6 0
BBX 2 2 2 7
BITMAP
40
80
ENDCHAR

STARTCHAR GREEK SPACING DIAERESIS TONOS
ENCODING 901
SWIDTH 602 0
DWIDTH 6 0
BBX 4 4 1 7
BITMAP
20
40
00
90
ENDCHAR

STARTCHAR GREEK ANO TELEIA
ENCODING 903
SWIDTH 602 0
DWIDTH 6 0
BBX 2 2 2 2
BITMAP
C0
C0
ENDCHAR

STARTCHAR GREEK CAPITAL LETTER GAMMA
ENCODING 915
SWIDTH 602 0
DWIDTH 6 0
BBX 4 7 1 0
BITMAP
F0
90
80
80
80
80
80
ENDCHAR

STARTCHAR GREEK CAPITAL LETTER THETA
ENCODING 920
SWIDTH 602 0
DWIDTH 6 0
BBX 6 7 0 0
BITMAP
30
48
84
B4
84
48
30
ENDCHAR

STARTCHAR GREEK CAPITAL LETTER SIGMA
ENCODING 931
SWIDTH 602 0
DWIDTH 6 0
BBX 5 7 1 0
BITMAP
F8
40
20
10
20
40
F8
ENDCHAR

STARTCHAR GREEK CAPITAL LETTER PHI
ENCODING 934
SWIDTH 602 0
DWIDTH 6 0
BBX 5 7 0 0
BITMAP
20
70
A8
A8
A8
70
20
ENDCHAR

STARTCHAR GREEK CAPITAL LETTER OMEGA
ENCODING 937
SWIDTH 602 0
DWIDTH 6 0
BBX 5 7 1 0
BITMAP
70
88
88
88
88
50
D8
ENDCHAR

STARTCHAR GREEK SMALL LETTER ALPHA
ENCODING 945
SWIDTH 602 0
DWIDTH 6 0
BBX 5 6 1 0
BITMAP
68
90
90
90
90
68
ENDCHAR

STARTCHAR GREEK SMALL LETTER BETA
ENCODING 946
SWIDTH 602 0
DWIDTH 6 0
BBX 4 9 1 -2
BITMAP
60
90
90
E0
90
90
E0
80
80
ENDCHAR

STARTCHAR GREEK SMALL LETTER DELTA
ENCODING 948
SWIDTH 602 0
DWIDTH 6 0
BBX 4 7 1 0
BITMAP
70
80
60
90
90
90
60
ENDCHAR

STARTCHAR GREEK SMALL LETTER EPSILON
ENCODING 949
SWIDTH 602 0
DWIDTH 6 0
BBX 4 6 1 0
BITMAP
70
80
60
80
80
70
ENDCHAR

STARTCHAR GREEK SMALL LETTER LAMBDA
ENCODING 955
SWIDTH 600 0
DWIDTH 6 0
BBX 5 7 1 0
BITMAP
40
20
20
70
50
88
88
ENDCHAR

STARTCHAR GREEK SMALL LETTER MU
ENCODING 956
SWIDTH 602 0
DWIDTH 6 0
BBX 4 8 1 -2
BITMAP
90
90
90
90
B0
D0
80
80
ENDCHAR

STARTCHAR GREEK SMALL LETTER PI
ENCODING 960
SWIDTH 602 0
DWIDTH 6 0
BBX 5 6 1 0
BITMAP
F8
50
50
50
50
48
ENDCHAR

STARTCHAR GREEK SMALL LETTER SIGMA
ENCODING 963
SWIDTH 602 0
DWIDTH 6 0
BBX 5 6 1 0
BITMAP
78
90
90
90
90
60
ENDCHAR

STARTCHAR GREEK SMALL LETTER TAU
ENCODING 964
SWIDTH 602 0
DWIDTH 6 0
BBX 5 6 0 0
BITMAP
F8
20
20
20
20
18
ENDCHAR

STARTCHAR GREEK SMALL LETTER PHI
ENCODING 966
SWIDTH 602 0
DWIDTH 6 0
BBX 5 8 1 -2
BITMAP
10
A8
A8
A8
A8
70
20
20
ENDCHAR

STARTCHAR LATIN CAPITAL LETTER A WITH RING BELOW
ENCODING 7680
SWIDTH 602 0
DWIDTH 6 0
BBX 4 11 1 -4
BITMAP
60
60
90
90
F0
90
90
00
20
50
20
ENDCHAR

STARTCHAR LATIN SMALL LETTER A WITH RING BELOW
ENCODING 7681
SWIDTH 602 0
DWIDTH 6 0
BBX 4 10 1 -4
BITMAP
60
10
70
90
B0
50
00
20
50
20
ENDCHAR

STARTCHAR LATIN CAPITAL LETTER B WITH DOT ABOVE
ENCODING 7682
SWIDTH 602 0
DWIDTH 6 0
BBX 4 10 1 0
BITMAP
40
40
00
E0
90
90
E0
90
90
E0
ENDCHAR

STARTCHAR LATIN SMALL LETTER B WITH DOT ABOVE
ENCODING 7683
SWIDTH 602 0
DWIDTH 6 0
BBX 4 11 1 0
BITMAP
40
40
00
80
80
A0
D0
90
90
90
E0
ENDCHAR

STARTCHAR LATIN CAPITAL LETTER B WITH DOT BELOW
ENCODING 7684
SWIDTH 602 0
DWIDTH 6 0
BBX 4 10 1 -3
BITMAP
E0
90
90
E0
90
90
E0
00
40
40
ENDCHAR

STARTCHAR LATIN SMALL LETTER B WITH DOT BELOW
ENCODING 7685
SWIDTH 602 0
DWIDTH 6 0
BBX 4 11 1 -3
BITMAP
80
80
A0
D0
90
90
90
E0
00
40
40
ENDCHAR

STARTCHAR LATIN CAPITAL LETTER B WITH LINE BELOW
ENCODING 7686
SWIDTH 602 0
DWIDTH 6 0
BBX 4 9 1 -2
BITMAP
E0
90
90
E0
90
90
E0
00
E0
ENDCHAR

STARTCHAR LATIN SMALL LETTER B WITH LINE BELOW
ENCODING 7687
SWIDTH 602 0
DWIDTH 6 0
BBX 4 10 1 -2
BITMAP
80
80
A0
D0
90
90
90
E0
00
E0
ENDCHAR

STARTCHAR LATIN CAPITAL LETTER C WITH CEDILLA AND ACUTE
ENCODING 7688
SWIDTH 602 0
DWIDTH 6 0
BBX 5 12 0 -2
BITMAP
10
20
00
38
48
80
80
80
40
38
10
20
ENDCHAR

STARTCHAR LATIN SMALL LETTER C WITH CEDILLA AND ACUTE
ENCODING 7689
SWIDTH 602 0
DWIDTH 6 0
BBX 4 11 1 -2
BITMAP
20
40
00
70
80
80
80
80
70
20
40
ENDCHAR

STARTCHAR LATIN CAPITAL LETTER D WITH DOT ABOVE
ENCODING 7690
SWIDTH 602 0
DWIDTH 6 0
BBX 5 10 1 0
BITMAP
40
40
00
E0
90
88
88
88
90
E0
ENDCHAR

STARTCHAR LATIN SMALL LETTER D WITH DOT ABOVE
ENCODING 7691
SWIDTH 602 0
DWIDTH 6 0
BBX 4 11 1 0
BITMAP
20
20
00
10
10
70
90
90
90
B0
50
ENDCHAR

STARTCHAR LATIN CAPITAL LETTER D WITH DOT BELOW
ENCODING 7692
SWIDTH 602 0
DWIDTH 6 0
BBX 5 10 1 -3
BITMAP
E0
90
88
88
88
90
E0
00
40
40
ENDCHAR

STARTCHAR LATIN SMALL LETTER D WITH DOT BELOW
ENCODING 7693
SWIDTH 602 0
DWIDTH 6 0
BBX 4 11 1 -3
BITMAP
10
10
70
90
90
90
B0
50
00
20
20
ENDCHAR

STARTCHAR LATIN CAPITAL LETTER D WITH LINE BELOW
ENCODING 7694
SWIDTH 602 0
DWIDTH 6 0
BBX 5 9 1 -2
BITMAP
E0
90
88
88
88
90
E0
00
E0
ENDCHAR

STARTCHAR LATIN SMALL LETTER D WITH LINE BELOW
ENCODING 7695
SWIDTH 602 0
DWIDTH 6 0
BBX 4 10 1 -2
BITMAP
10
10
70
90
90
90
B0
50
00
70
ENDCHAR

STARTCHAR LATIN CAPITAL LETTER D WITH CEDILLA
ENCODING 7696
SWIDTH 602 0
DWIDTH 6 0
BBX 5 9 1 -2
BITMAP
E0
90
88
88
88
90
E0
20
40
ENDCHAR

STARTCHAR LATIN SMALL LETTER D WITH CEDILLA
ENCODING 7697
SWIDTH 602 0
DWIDTH 6 0
BBX 4 10 1 -2
BITMAP
10
10
70
90
90
90
B0
50
20
40
ENDCHAR

STARTCHAR LATIN CAPITAL LETTER D WITH CIRCUMFLEX BELOW
ENCODING 7698
SWIDTH 602 0
DWIDTH 6 0
BBX 5 10 1 -3
BITMAP
E0
90
88
88
88
90
E0
00
40
A0
ENDCHAR

STARTCHAR LATIN SMALL LETTER D WITH CIRCUMFLEX BELOW
ENCODING 7699
SWIDTH 602 0
DWIDTH 6 0
BBX 4 11 1 -3
BITMAP
10
10
70
90
90
90
B0
50
00
20
50
ENDCHAR

STARTCHAR LATIN CAPITAL LETTER E WITH MACRON AND GRAVE
ENCODING 7700
SWIDTH 602 0
DWIDTH 6 0
BBX 4 12 1 0
BITMAP
40
20
00
E0
00
F0
80
80
E0
80
80
F0
ENDCHAR

STARTCHAR LATIN SMALL LETTER E WITH MACRON AND GRAVE
ENCODING 7701
SWIDTH 602 0
DWIDTH 6 0
BBX 4 11 1 0
BITMAP
40
20
00
70
00
60
90
F0
80
80
70
ENDCHAR

STARTCHAR LATIN CAPITAL LETTER E WITH MACRON AND ACUTE
ENCODING 7702
SWIDTH 602 0
DWIDTH 6 0
BBX 4 12 1 0
BITMAP
20
40
00
E0
00
F0
80
80
E0
80
80
F0
ENDCHAR

STARTCHAR LATIN SMALL LETTER E WITH MACRON AND ACUTE
ENCODING 7703
SWIDTH 602 0
DWIDTH 6 0
BBX 4 11 1 0
BITMAP
10
20
00
70
00
60
90
F0
80
80
70
ENDCHAR

STARTCHAR LATIN CAPITAL LETTER E WITH CIRCUMFLEX BELOW
ENCODING 7704
SWIDTH 602 0
DWIDTH 6 0
BBX 4 10 1 -3
BITMAP
F0
80
80
E0
80
80
F0
00
40
A0
ENDCHAR

STARTCHAR LATIN SMALL LETTER E WITH CIRCUMFLEX BELOW
ENCODING 7705
SWIDTH 602 0
DWIDTH 6 0
BBX 4 9 1 -3
BITMAP
60
90
F0
80
80
70
00
20
50
ENDCHAR

STARTCHAR LATIN CAPITAL LETTER E WITH TILDE BELOW
ENCODING 7706
SWIDTH 602 0
DWIDTH 6 0
BBX 5 10 0 -3
BITMAP
78
40
40
70
40
40
78
00
50
A0
ENDCHAR

STARTCHAR LATIN SMALL LETTER E WITH TILDE BELOW
ENCODING 7707
SWIDTH 602 0
DWIDTH 6 0
BBX 4 9 1 -3
BITMAP
60
90
F0
80
80
70
00
50
A0
ENDCHAR

STARTCHAR LATIN CAPITAL LETTER E WITH CEDILLA AND BREVE
ENCODING 7708
SWIDTH 602 0
DWIDTH 6 0
BBX 4 12 1 -2
BITMAP
90
60
00
F0
80
80
E0
80
80
F0
40
80
ENDCHAR

STARTCHAR LATIN SMALL LETTER E WITH CEDILLA AND BREVE
ENCODING 7709
SWIDTH 602 0
DWIDTH 6 0
BBX 4 11 1 -2
BITMAP
90
60
00
60
90
F0
80
80
70
20
40
ENDCHAR

STARTCHAR LATIN CAPITAL LETTER F WITH DOT ABOVE
ENCODING 7710
SWIDTH 602 0
DWIDTH 6 0
BBX 4 10 1 0
BITMAP
40
40
00
F0
80
80
E0
80
80
80
ENDCHAR

STARTCHAR LATIN SMALL LETTER F WITH DOT ABOVE
ENCODING 7711
SWIDTH 602 0
DWIDTH 6 0
BBX 5 11 1 0
BITMAP
20
20
00
38
40
F0
40
40
40
40
40
ENDCHAR

STARTCHAR LATIN CAPITAL LETTER G WITH MACRON
ENCODING 7712
SWIDTH 602 0
DWIDTH 6 0
BBX 5 9 0 0
BITMAP
38
00
38
48
80
80
88
48
38
ENDCHAR

STARTCHAR LATIN SMALL LETTER G WITH MACRON
ENCODING 7713
SWIDTH 602 0
DWIDTH 6 0
BBX 4 10 1 -2
BITMAP
70
00
70
90
90
90
B0
50
10
E0
ENDCHAR

STARTCHAR LATIN CAPITAL LETTER H WITH DOT ABOVE
ENCODING 7714
SWIDTH 602 0
DWIDTH 6 0
BBX 4 10 1 0
BITMAP
20
20
00
90
90
90
F0
90
90
90
ENDCHAR

STARTCHAR LATIN SMALL LETTER H WITH DOT ABOVE
ENCODING 7715
SWIDTH 602 0
DWIDTH 6 0
BBX 4 11 1 0
BITMAP
40
40
00
80
80
A0
D0
90
90
90
90
ENDCHAR

STARTCHAR LATIN CAPITAL LETTER H WITH DOT BELOW
ENCODING 7716
SWIDTH 602 0
DWIDTH 6 0
BBX 4 10 1 -3
BITMAP
90
90
90
F0
90
90
90
00
20
20
ENDCHAR

STARTCHAR LATIN SMALL LETTER H WITH DOT BELOW
ENCODING 7717
SWIDTH 602 0
DWIDTH 6 0
BBX 4 11 1 -3
BITMAP
80
80
A0
D0
90
90
90
90
00
20
20
ENDCHAR

STARTCHAR LATIN CAPITAL LETTER H WITH DIAERESIS
ENCODING 7718
SWIDTH 602 0
DWIDTH 6 0
BBX 4 9 1 0
BITMAP
90
00
90
90
90
F0
90
90
90
ENDCHAR

STARTCHAR LATIN SMALL LETTER H WITH DIAERESIS
ENCODING 7719
SWIDTH 602 0
DWIDTH 6 0
BBX 5 10 0 0
BITMAP
90
00
40
40
50
68
48
48
48
48
ENDCHAR

STARTCHAR LATIN CAPITAL LETTER H WITH CEDILLA
ENCODING 7720
SWIDTH 602 0
DWIDTH 6 0
BBX 4 9 1 -2
BITMAP
90
90
90
F0
90
90
90
20
40
ENDCHAR

STARTCHAR LATIN SMALL LETTER H WITH CEDILLA
ENCODING 7721
SWIDTH 602 0
DWIDTH 6 0
BBX 4 10 1 -2
BITMAP
80
80
A0
D0
90
90
90
90
20
40
ENDCHAR

STARTCHAR LATIN CAPITAL LETTER H WITH BREVE BELOW
ENCODING 7722
SWIDTH 602 0
DWIDTH 6 0
BBX 4 10 1 -3
BITMAP
90
90
90
F0
90
90
90
00
90
60
ENDCHAR

STARTCHAR LATIN SMALL LETTER H WITH BREVE BELOW
ENCODING 7723
SWIDTH 602 0
DWIDTH 6 0
BBX 4 11 1 -3
BITMAP
80
80
A0
D0
90
90
90
90
00
90
60
ENDCHAR

STARTCHAR LATIN CAPITAL LETTER I WITH TILDE BELOW
ENCODING 7724
SWIDTH 602 0
DWIDTH 6 0
BBX 4 10 1 -3
BITMAP
70
20
20
20
20
20
70
00
50
A0
ENDCHAR

STARTCHAR LATIN SMALL LETTER I WITH TILDE BELOW
ENCODING 7725
SWIDTH 602 0
DWIDTH 6 0
BBX 4 11 1 -3
BITMAP
20
00
E0
20
20
20
20
20
00
50
A0
ENDCHAR

STARTCHAR LATIN CAPITAL LETTER I WITH DIAERESIS AND ACUTE
ENCODING 7726
SWIDTH 602 0
DWIDTH 6 0
BBX 3 11 2 0
BITMAP
20
40
00
A0
00
E0
40
40
40
40
E0
ENDCHAR

STARTCHAR LATIN SMALL LETTER I WITH DIAERESIS AND ACUTE
ENCODING 7727
SWIDTH 602 0
DWIDTH 6 0
BBX 4 11 1 0
BITMAP
20
40
00
50
00
E0
20
20
20
20
20
ENDCHAR

STARTCHAR LATIN CAPITAL LETTER K WITH ACUTE
ENCODING 7728
SWIDTH 602 0
DWIDTH 6 0
BBX 5 10 1 0
BITMAP
10
20
00
88
90
A0
C0
A0
90
88
ENDCHAR

STARTCHAR LATIN SMALL LETTER K WITH ACUTE
ENCODING 7729
SWIDTH 602 0
DWIDTH 6 0
BBX 5 11 1 0
BITMAP
20
40
00
80
80
90
A0
C0
A0
90
88
ENDCHAR

STARTCHAR LATIN CAPITAL LETTER K WITH DOT BELOW
ENCODING 7730
SWIDTH 602 0
DWIDTH 6 0
BBX 5 10 1 -3
BITMAP
88
90
A0
C0
A0
90
88
00
20
20
ENDCHAR

STARTCHAR LATIN SMALL LETTER K WITH DOT BELOW
ENCODING 7731
SWIDTH 602 0
DWIDTH 6 0
BBX 5 11 1 -3
BITMAP
80
80
90
A0
C0
A0
90
88
00
20
20
ENDCHAR

STARTCHAR LATIN CAPITAL LETTER K WITH LINE BELOW
ENCODING 7732
SWIDTH 602 0
DWIDTH 6 0
BBX 5 9 1 -2
BITMAP
88
90
A0
C0
A0
90
88
00
70
ENDCHAR

STARTCHAR LATIN SMALL LETTER K WITH LINE BELOW
ENCODING 7733
SWIDTH 602 0
DWIDTH 6 0
BBX 5 10 1 -2
BITMAP
80
80
90
A0
C0
A0
90
88
00
70
ENDCHAR

STARTCHAR LATIN CAPITAL LETTER L WITH DOT BELOW
ENCODING 7734
SWIDTH 602 0
DWIDTH 6 0
BBX 4 10 1 -3
BITMAP
80
80
80
80
80
80
F0
00
40
40
ENDCHAR

STARTCHAR LATIN SMALL LETTER L WITH DOT BELOW
ENCODING 7735
SWIDTH 602 0
DWIDTH 6 0
BBX 3 11 1 -3
BITMAP
E0
20
20
20
20
20
20
20
00
20
20
ENDCHAR

STARTCHAR LATIN CAPITAL LETTER L WITH DOT BELOW AND MACRON
ENCODING 7736
SWIDTH 602 0
DWIDTH 6 0
BBX 4 12 1 -3
BITMAP
E0
00
80
80
80
80
80
80
F0
00
40
40
ENDCHAR

STARTCHAR LATIN SMALL LETTER L WITH DOT BELOW AND MACRON
ENCODING 7737
SWIDTH 602 0
DWIDTH 6 0
BBX 3 13 1 -3
BITMAP
E0
00
E0
20
20
20
20
20
20
20
00
20
20
ENDCHAR

STARTCHAR LATIN CAPITAL LETTER L WITH LINE BELOW
ENCODING 7738
SWIDTH 602 0
DWIDTH 6 0
BBX 4 9 1 -2
BITMAP
80
80
80
80
80
80
F0
00
E0
ENDCHAR

STARTCHAR LATIN SMALL LETTER L WITH LINE BELOW
ENCODING 7739
SWIDTH 602 0
DWIDTH 6 0
BBX 4 10 1 -2
BITMAP
E0
20
20
20
20
20
20
20
00
70
ENDCHAR

STARTCHAR LATIN CAPITAL LETTER L WITH CIRCUMFLEX BELOW
ENCODING 7740
SWIDTH 602 0
DWIDTH 6 0
BBX 4 10 1 -3
BITMAP
80
80
80
80
80
80
F0
00
40
A0
ENDCHAR

STARTCHAR LATIN SMALL LETTER L WITH CIRCUMFLEX BELOW
ENCODING 7741
SWIDTH 602 0
DWIDTH 6 0
BBX 4 11 1 -3
BITMAP
E0
20
20
20
20
20
20
20
00
20
50
ENDCHAR

STARTCHAR LATIN CAPITAL LETTER M WITH ACUTE
ENCODING 7742
SWIDTH 602 0
DWIDTH 6 0
BBX 5 10 1 0
BITMAP
10
20
00
88
D8
D8
A8
A8
88
88
ENDCHAR

STARTCHAR LATIN SMALL LETTER M WITH ACUTE
ENCODING 7743
SWIDTH 602 0
DWIDTH 6 0
BBX 5 9 1 0
BITMAP
10
20
00
D0
A8
A8
A8
A8
A8
ENDCHAR

STARTCHAR LATIN CAPITAL LETTER M WITH DOT ABOVE
ENCODING 7744
SWIDTH 602 0
DWIDTH 6 0
BBX 5 10 1 0
BITMAP
20
20
00
88
D8
D8
A8
A8
88
88
ENDCHAR

STARTCHAR LATIN SMALL LETTER M WITH DOT ABOVE
ENCODING 7745
SWIDTH 602 0
DWIDTH 6 0
BBX 5 9 1 0
BITMAP
20
20
00
D0
A8
A8
A8
A8
A8
ENDCHAR

STARTCHAR LATIN CAPITAL LETTER M WITH DOT BELOW
ENCODING 7746
SWIDTH 602 0
DWIDTH 6 0
BBX 5 10 1 -3
BITMAP
88
D8
D8
A8
A8
88
88
00
20
20
ENDCHAR

STARTCHAR LATIN SMALL LETTER M WITH DOT BELOW
ENCODING 7747
SWIDTH 602 0
DWIDTH 6 0
BBX 5 9 1 -3
BITMAP
D0
A8
A8
A8
A8
A8
00
20
20
ENDCHAR

STARTCHAR LATIN CAPITAL LETTER N WITH DOT ABOVE
ENCODING 7748
SWIDTH 602 0
DWIDTH 6 0
BBX 4 10 1 0
BITMAP
40
40
00
90
D0
D0
B0
B0
90
90
ENDCHAR

STARTCHAR LATIN SMALL LETTER N WITH DOT ABOVE
ENCODING 7749
SWIDTH 602 0
DWIDTH 6 0
BBX 4 9 1 0
BITMAP
40
40
00
A0
D0
90
90
90
90
ENDCHAR

STARTCHAR LATIN CAPITAL LETTER N WITH DOT BELOW
ENCODING 7750
SWIDTH 602 0
DWIDTH 6 0
BBX 4 10 1 -3
BITMAP
90
D0
D0
B0
B0
90
90
00
20
20
ENDCHAR

STARTCHAR LATIN SMALL LETTER N WITH DOT BELOW
ENCODING 7751
SWIDTH 602 0
DWIDTH 6 0
BBX 4 9 1 -3
BITMAP
A0
D0
90
90
90
90
00
20
20
ENDCHAR

STARTCHAR LATIN CAPITAL LETTER N WITH LINE BELOW
ENCODING 7752
SWIDTH 602 0
DWIDTH 6 0
BBX 4 9 1 -2
BITMAP
90
D0
D0
B0
B0
90
90
00
70
ENDCHAR

STARTCHAR LATIN SMALL LETTER N WITH LINE BELOW
ENCODING 7753
SWIDTH 602 0
DWIDTH 6 0
BBX 4 8 1 -2
BITMAP
A0
D0
90
90
90
90
00
70
ENDCHAR

STARTCHAR LATIN CAPITAL LETTER N WITH CIRCUMFLEX BELOW
ENCODING 7754
SWIDTH 602 0
DWIDTH 6 0
BBX 4 10 1 -3
BITMAP
90
D0
D0
B0
B0
90
90
00
20
50
ENDCHAR

STARTCHAR LATIN SMALL LETTER N WITH CIRCUMFLEX BELOW
ENCODING 7755
SWIDTH 602 0
DWIDTH 6 0
BBX 4 9 1 -3
BITMAP
A0
D0
90
90
90
90
00
20
50
ENDCHAR

STARTCHAR LATIN CAPITAL LETTER O WITH TILDE AND ACUTE
ENCODING 7756
SWIDTH 602 0
DWIDTH 6 0
BBX 6 12 0 0
BITMAP
10
20
00
28
50
00
30
48
84
84
48
30
ENDCHAR

STARTCHAR LATIN SMALL LETTER O WITH TILDE AND ACUTE
ENCODING 7757
SWIDTH 602 0
DWIDTH 6 0
BBX 4 12 1 0
BITMAP
20
40
00
50
A0
00
60
90
90
90
90
60
ENDCHAR

STARTCHAR LATIN CAPITAL LETTER O WITH TILDE AND DIAERESIS
ENCODING 7758
SWIDTH 602 0
DWIDTH 6 0
BBX 6 11 0 0
BITMAP
48
00
28
50
00
30
48
84
84
48
30
ENDCHAR

STARTCHAR LATIN SMALL LETTER O WITH TILDE AND DIAERESIS
ENCODING 7759
SWIDTH 602 0
DWIDTH 6 0
BBX 4 11 1 0
BITMAP
90
00
50
A0
00
60
90
90
90
90
60
ENDCHAR

STARTCHAR LATIN CAPITAL LETTER O WITH MACRON AND GRAVE
ENCODING 7760
SWIDTH 602 0
DWIDTH 6 0
BBX 6 12 0 0
BITMAP
20
10
00
38
00
30
48
84
84
84
48
30
ENDCHAR

STARTCHAR LATIN SMALL LETTER O WITH MACRON AND GRAVE
ENCODING 7761
SWIDTH 602 0
DWIDTH 6 0
BBX 4 11 1 0
BITMAP
40
20
00
70
00
60
90
90
90
90
60
ENDCHAR

STARTCHAR LATIN CAPITAL LETTER O WITH MACRON AND ACUTE
ENCODING 7762
SWIDTH 602 0
DWIDTH 6 0
BBX 6 12 0 0
BITMAP
08
10
00
38
00
30
48
84
84
84
48
30
ENDCHAR

STARTCHAR LATIN SMALL LETTER O WITH MACRON AND ACUTE
ENCODING 7763
SWIDTH 602 0
DWIDTH 6 0
BBX 4 11 1 0
BITMAP
10
20
00
70
00
60
90
90
90
90
60
ENDCHAR

STARTCHAR LATIN CAPITAL LETTER P WITH ACUTE
ENCODING 7764
SWIDTH 602 0
DWIDTH 6 0
BBX 4 10 1 0
BITMAP
20
40
00
E0
90
90
E0
80
80
80
ENDCHAR

STARTCHAR LATIN SMALL LETTER P WITH ACUTE
ENCODING 7765
SWIDTH 602 0
DWIDTH 6 0
BBX 4 11 1 -2
BITMAP
20
40
00
A0
D0
90
90
90
E0
80
80
ENDCHAR

STARTCHAR LATIN CAPITAL LETTER P WITH DOT ABOVE
ENCODING 7766
SWIDTH 602 0
DWIDTH 6 0
BBX 4 10 1 0
BITMAP
40
40
00
E0
90
90
E0
80
80
80
ENDCHAR

STARTCHAR LATIN SMALL LETTER P WITH DOT ABOVE
ENCODING 7767
SWIDTH 602 0
DWIDTH 6 0
BBX 4 11 1 -2
BITMAP
40
40
00
A0
D0
90
90
90
E0
80
80
ENDCHAR

STARTCHAR LATIN CAPITAL LETTER R WITH DOT ABOVE
ENCODING 7768
SWIDTH 602 0
DWIDTH 6 0
BBX 4 10 1 0
BITMAP
40
40
00
E0
90
90
E0
A0
90
90
ENDCHAR

STARTCHAR LATIN SMALL LETTER R WITH DOT ABOVE
ENCODING 7769
SWIDTH 602 0
DWIDTH 6 0
BBX 4 9 2 0
BITMAP
20
20
00
B0
D0
80
80
80
80
ENDCHAR

STARTCHAR LATIN CAPITAL LETTER R WITH DOT BELOW
ENCODING 7770
SWIDTH 602 0
DWIDTH 6 0
BBX 4 10 1 -3
BITMAP
E0
90
90
E0
A0
90
90
00
20
20
ENDCHAR

STARTCHAR LATIN SMALL LETTER R WITH DOT BELOW
ENCODING 7771
SWIDTH 602 0
DWIDTH 6 0
BBX 4 9 2 -3
BITMAP
B0
D0
80
80
80
80
00
40
40
ENDCHAR

STARTCHAR LATIN CAPITAL LETTER R WITH DOT BELOW AND MACRON
ENCODING 7772
SWIDTH 602 0
DWIDTH 6 0
BBX 4 12 1 -3
BITMAP
E0
00
E0
90
90
E0
A0
90
90
00
20
20
ENDCHAR

STARTCHAR LATIN SMALL LETTER R WITH DOT BELOW AND MACRON
ENCODING 7773
SWIDTH 602 0
DWIDTH 6 0
BBX 4 11 2 -3
BITMAP
E0
00
B0
D0
80
80
80
80
00
40
40
ENDCHAR

STARTCHAR LATIN CAPITAL LETTER R WITH LINE BELOW
ENCODING 7774
SWIDTH 602 0
DWIDTH 6 0
BBX 4 9 1 -2
BITMAP
E0
90
90
E0
A0
90
90
00
70
ENDCHAR

STARTCHAR LATIN SMALL LETTER R WITH LINE BELOW
ENCODING 7775
SWIDTH 602 0
DWIDTH 6 0
BBX 4 8 2 -2
BITMAP
B0
D0
80
80
80
80
00
E0
ENDCHAR

STARTCHAR LATIN CAPITAL LETTER S WITH DOT ABOVE
ENCODING 7776
SWIDTH 602 0
DWIDTH 6 0
BBX 4 10 1 0
BITMAP
20
20
00
70
80
80
60
10
10
E0
ENDCHAR

STARTCHAR LATIN SMALL LETTER S WITH DOT ABOVE
ENCODING 7777
SWIDTH 602 0
DWIDTH 6 0
BBX 4 9 1 0
BITMAP
20
20
00
70
80
C0
30
10
E0
ENDCHAR

STARTCHAR LATIN CAPITAL LETTER S WITH DOT BELOW
ENCODING 7778
SWIDTH 602 0
DWIDTH 6 0
BBX 4 10 1 -3
BITMAP
70
80
80
60
10
10
E0
00
20
20
ENDCHAR

STARTCHAR LATIN SMALL LETTER S WITH DOT BELOW
ENCODING 7779
SWIDTH 602 0
DWIDTH 6 0
BBX 4 9 1 -3
BITMAP
70
80
C0
30
10
E0
00
20
20
ENDCHAR

STARTCHAR LATIN CAPITAL LETTER S WITH ACUTE AND DOT ABOVE
ENCODING 7780
SWIDTH 602 0
DWIDTH 6 0
BBX 4 13 1 0
BITMAP
20
20
00
20
40
00
70
80
80
60
10
10
E0
ENDCHAR

STARTCHAR LATIN SMALL LETTER S WITH ACUTE AND DOT ABOVE
ENCODING 7781
SWIDTH 602 0
DWIDTH 6 0
BBX 4 12 1 0
BITMAP
20
20
00
20
40
00
70
80
C0
30
10
E0
ENDCHAR

STARTCHAR LATIN CAPITAL LETTER S WITH CARON AND DOT ABOVE
ENCODING 7782
SWIDTH 602 0
DWIDTH 6 0
BBX 4 12 1 0
BITMAP
20
20
00
50
20
00
70
80
40
20
10
E0
ENDCHAR

STARTCHAR LATIN SMALL LETTER S WITH CARON AND DOT ABOVE
ENCODING 7783
SWIDTH 602 0
DWIDTH 6 0
BBX 4 12 1 0
BITMAP
20
20
00
50
20
00
70
80
C0
30
10
E0
ENDCHAR

STARTCHAR LATIN CAPITAL LETTER S WITH DOT BELOW AND DOT ABOVE
ENCODING 7784
SWIDTH 602 0
DWIDTH 6 0
BBX 4 13 1 -3
BITMAP
40
40
00
70
80
80
60
10
10
E0
00
20
20
ENDCHAR

STARTCHAR LATIN SMALL LETTER S WITH DOT BELOW AND DOT ABOVE
ENCODING 7785
SWIDTH 602 0
DWIDTH 6 0
BBX 4 12 1 -3
BITMAP
40
40
00
70
80
C0
30
10
E0
00
20
20
ENDCHAR

STARTCHAR LATIN CAPITAL LETTER T WITH DOT ABOVE
ENCODING 7786
SWIDTH 602 0
DWIDTH 6 0
BBX 5 10 1 0
BITMAP
20
20
00
F8
20
20
20
20
20
20
ENDCHAR

STARTCHAR LATIN SMALL LETTER T WITH DOT ABOVE
ENCODING 7787
SWIDTH 602 0
DWIDTH 6 0
BBX 4 10 1 0
BITMAP
40
40
00
40
F0
40
40
40
40
30
ENDCHAR

STARTCHAR LATIN CAPITAL LETTER T WITH DOT BELOW
ENCODING 7788
SWIDTH 602 0
DWIDTH 6 0
BBX 5 10 1 -3
BITMAP
F8
20
20
20
20
20
20
00
20
20
ENDCHAR

STARTCHAR LATIN SMALL LETTER T WITH DOT BELOW
ENCODING 7789
SWIDTH 602 0
DWIDTH 6 0
BBX 4 10 1 -3
BITMAP
40
F0
40
40
40
40
30
00
20
20
ENDCHAR

STARTCHAR LATIN CAPITAL LETTER T WITH LINE BELOW
ENCODING 7790
SWIDTH 602 0
DWIDTH 6 0
BBX 5 9 1 -2
BITMAP
F8
20
20
20
20
20
20
00
70
ENDCHAR

STARTCHAR LATIN SMALL LETTER T WITH LINE BELOW
ENCODING 7791
SWIDTH 602 0
DWIDTH 6 0
BBX 4 9 1 -2
BITMAP
40
F0
40
40
40
40
30
00
70
ENDCHAR

STARTCHAR LATIN CAPITAL LETTER T WITH CIRCUMFLEX BELOW
ENCODING 7792
SWIDTH 602 0
DWIDTH 6 0
BBX 5 10 1 -3
BITMAP
F8
20
20
20
20
20
20
00
20
50
ENDCHAR

STARTCHAR LATIN SMALL LETTER T WITH CIRCUMFLEX BELOW
ENCODING 7793
SWIDTH 602 0
DWIDTH 6 0
BBX 4 10 1 -3
BITMAP
40
F0
40
40
40
40
30
00
20
50
ENDCHAR

STARTCHAR LATIN CAPITAL LETTER U WITH DIAERESIS BELOW
ENCODING 7794
SWIDTH 602 0
DWIDTH 6 0
BBX 4 9 1 -2
BITMAP
90
90
90
90
90
90
60
00
90
ENDCHAR

STARTCHAR LATIN SMALL LETTER U WITH DIAERESIS BELOW
ENCODING 7795
SWIDTH 602 0
DWIDTH 6 0
BBX 4 8 1 -2
BITMAP
90
90
90
90
B0
50
00
90
ENDCHAR

STARTCHAR LATIN CAPITAL LETTER U WITH TILDE BELOW
ENCODING 7796
SWIDTH 602 0
DWIDTH 6 0
BBX 4 10 1 -3
BITMAP
90
90
90
90
90
90
60
00
50
A0
ENDCHAR

STARTCHAR LATIN SMALL LETTER U WITH TILDE BELOW
ENCODING 7797
SWIDTH 602 0
DWIDTH 6 0
BBX 4 9 1 -3
BITMAP
90
90
90
90
B0
50
00
50
A0
ENDCHAR

STARTCHAR LATIN CAPITAL LETTER U WITH CIRCUMFLEX BELOW
ENCODING 7798
SWIDTH 602 0
DWIDTH 6 0
BBX 4 10 1 -3
BITMAP
90
90
90
90
90
90
60
00
20
50
ENDCHAR

STARTCHAR LATIN SMALL LETTER U WITH CIRCUMFLEX BELOW
ENCODING 7799
SWIDTH 602 0
DWIDTH 6 0
BBX 4 9 1 -3
BITMAP
90
90
90
90
B0
50
00
20
50
ENDCHAR

STARTCHAR LATIN CAPITAL LETTER U WITH TILDE AND ACUTE
ENCODING 7800
SWIDTH 602 0
DWIDTH 6 0
BBX 4 13 1 0
BITMAP
20
40
00
50
A0
00
90
90
90
90
90
90
60
ENDCHAR

STARTCHAR LATIN SMALL LETTER U WITH TILDE AND ACUTE
ENCODING 7801
SWIDTH 602 0
DWIDTH 6 0
BBX 4 12 1 0
BITMAP
20
40
00
50
A0
00
90
90
90
90
B0
50
ENDCHAR

STARTCHAR LATIN CAPITAL LETTER U WITH MACRON AND DIAERESIS
ENCODING 7802
SWIDTH 602 0
DWIDTH 6 0
BBX 4 11 1 0
BITMAP
90
00
70
00
90
90
90
90
90
90
60
ENDCHAR

STARTCHAR LATIN SMALL LETTER U WITH MACRON AND DIAERESIS
ENCODING 7803
SWIDTH 602 0
DWIDTH 6 0
BBX 4 10 1 0
BITMAP
90
00
70
00
90
90
90
90
B0
50
ENDCHAR

STARTCHAR LATIN CAPITAL LETTER V WITH TILDE
ENCODING 7804
SWIDTH 602 0
DWIDTH 6 0
BBX 4 10 1 0
BITMAP
50
A0
00
90
90
90
90
60
60
60
ENDCHAR

STARTCHAR LATIN SMALL LETTER V WITH TILDE
ENCODING 7805
SWIDTH 602 0
DWIDTH 6 0
BBX 4 9 1 0
BITMAP
50
A0
00
90
90
90
90
60
60
ENDCHAR

STARTCHAR LATIN CAPITAL LETTER V WITH DOT BELOW
ENCODING 7806
SWIDTH 602 0
DWIDTH 6 0
BBX 4 10 1 -3
BITMAP
90
90
90
90
60
60
60
00
20
20
ENDCHAR

STARTCHAR LATIN SMALL LETTER V WITH DOT BELOW
ENCODING 7807
SWIDTH 602 0
DWIDTH 6 0
BBX 4 9 1 -3
BITMAP
90
90
90
90
60
60
00
20
20
ENDCHAR

STARTCHAR LATIN CAPITAL LETTER W WITH GRAVE
ENCODING 7808
SWIDTH 602 0
DWIDTH 6 0
BBX 5 10 1 0
BITMAP
40
20
00
88
A8
A8
A8
F8
50
50
ENDCHAR

STARTCHAR LATIN SMALL LETTER W WITH GRAVE
ENCODING 7809
SWIDTH 602 0
DWIDTH 6 0
BBX 5 9 1 0
BITMAP
40
20
00
88
A8
A8
F8
50
50
ENDCHAR

STARTCHAR LATIN CAPITAL LETTER W WITH ACUTE
ENCODING 7810
SWIDTH 602 0
DWIDTH 6 0
BBX 5 10 1 0
BITMAP
10
20
00
88
A8
A8
A8
F8
50
50
ENDCHAR

STARTCHAR LATIN SMALL LETTER W WITH ACUTE
ENCODING 7811
SWIDTH 602 0
DWIDTH 6 0
BBX 5 9 1 0
BITMAP
10
20
00
88
A8
A8
F8
50
50
ENDCHAR

STARTCHAR LATIN CAPITAL LETTER W WITH DIAERESIS
ENCODING 7812
SWIDTH 602 0
DWIDTH 6 0
BBX 5 9 1 0
BITMAP
48
00
88
A8
A8
A8
F8
50
50
ENDCHAR

STARTCHAR LATIN SMALL LETTER W WITH DIAERESIS
ENCODING 7813
SWIDTH 602 0
DWIDTH 6 0
BBX 5 8 1 0
BITMAP
48
00
88
A8
A8
F8
50
50
ENDCHAR

STARTCHAR LATIN CAPITAL LETTER W WITH DOT ABOVE
ENCODING 7814
SWIDTH 602 0
DWIDTH 6 0
BBX 5 10 1 0
BITMAP
20
20
00
88
A8
A8
A8
F8
50
50
ENDCHAR

STARTCHAR LATIN SMALL LETTER W WITH DOT ABOVE
ENCODING 7815
SWIDTH 602 0
DWIDTH 6 0
BBX 5 9 1 0
BITMAP
20
20
00
88
A8
A8
F8
50
50
ENDCHAR

STARTCHAR LATIN CAPITAL LETTER W WITH DOT BELOW
ENCODING 7816
SWIDTH 602 0
DWIDTH 6 0
BBX 5 10 1 -3
BITMAP
88
A8
A8
A8
F8
50
50
00
20
20
ENDCHAR

STARTCHAR LATIN SMALL LETTER W WITH DOT BELOW
ENCODING 7817
SWIDTH 602 0
DWIDTH 6 0
BBX 5 9 1 -3
BITMAP
88
A8
A8
F8
50
50
00
20
20
ENDCHAR

STARTCHAR LATIN CAPITAL LETTER X WITH DOT ABOVE
ENCODING 7818
SWIDTH 602 0
DWIDTH 6 0
BBX 4 10 1 0
BITMAP
20
20
00
90
90
60
60
60
90
90
ENDCHAR

STARTCHAR LATIN SMALL LETTER X WITH DOT ABOVE
ENCODING 7819
SWIDTH 602 0
DWIDTH 6 0
BBX 5 9 1 0
BITMAP
20
20
00
88
50
20
20
50
88
ENDCHAR

STARTCHAR LATIN CAPITAL LETTER X WITH DIAERESIS
ENCODING 7820
SWIDTH 602 0
DWIDTH 6 0
BBX 4 9 1 0
BITMAP
90
00
90
90
60
60
60
90
90
ENDCHAR

STARTCHAR LATIN SMALL LETTER X WITH DIAERESIS
ENCODING 7821
SWIDTH 602 0
DWIDTH 6 0
BBX 5 8 1 0
BITMAP
48
00
88
50
20
20
50
88
ENDCHAR

STARTCHAR LATIN CAPITAL LETTER Y WITH DOT ABOVE
ENCODING 7822
SWIDTH 602 0
DWIDTH 6 0
BBX 5 10 1 0
BITMAP
20
20
00
88
88
50
20
20
20
20
ENDCHAR

STARTCHAR LATIN SMALL LETTER Y WITH DOT ABOVE
ENCODING 7823
SWIDTH 602 0
DWIDTH 6 0
BBX 4 11 1 -2
BITMAP
20
20
00
90
90
90
60
60
40
80
80
ENDCHAR

STARTCHAR LATIN CAPITAL LETTER Z WITH CIRCUMFLEX
ENCODING 7824
SWIDTH 602 0
DWIDTH 6 0
BBX 4 10 1 0
BITMAP
20
50
00
F0
10
20
60
40
80
F0
ENDCHAR

STARTCHAR LATIN SMALL LETTER Z WITH CIRCUMFLEX
ENCODING 7825
SWIDTH 602 0
DWIDTH 6 0
BBX 4 9 1 0
BITMAP
20
50
00
F0
10
20
40
80
F0
ENDCHAR

STARTCHAR LATIN CAPITAL LETTER Z WITH DOT BELOW
ENCODING 7826
SWIDTH 602 0
DWIDTH 6 0
BBX 4 10 1 -3
BITMAP
F0
10
20
60
40
80
F0
00
40
40
ENDCHAR

STARTCHAR LATIN SMALL LETTER Z WITH DOT BELOW
ENCODING 7827
SWIDTH 602 0
DWIDTH 6 0
BBX 4 9 1 -3
BITMAP
F0
10
20
40
80
F0
00
40
40
ENDCHAR

STARTCHAR LATIN CAPITAL LETTER Z WITH LINE BELOW
ENCODING 7828
SWIDTH 602 0
DWIDTH 6 0
BBX 4 9 1 -2
BITMAP
F0
10
20
60
40
80
F0
00
E0
ENDCHAR

STARTCHAR LATIN SMALL LETTER Z WITH LINE BELOW
ENCODING 7829
SWIDTH 602 0
DWIDTH 6 0
BBX 4 8 1 -2
BITMAP
F0
10
20
40
80
F0
00
E0
ENDCHAR

STARTCHAR LATIN SMALL LETTER H WITH LINE BELOW
ENCODING 7830
SWIDTH 602 0
DWIDTH 6 0
BBX 4 10 1 -2
BITMAP
80
80
A0
D0
90
90
90
90
00
70
ENDCHAR

STARTCHAR LATIN SMALL LETTER T WITH DIAERESIS
ENCODING 7831
SWIDTH 602 0
DWIDTH 6 0
BBX 4 9 1 0
BITMAP
90
00
40
F0
40
40
40
40
30
ENDCHAR

STARTCHAR LATIN SMALL LETTER W WITH RING ABOVE
ENCODING 7832
SWIDTH 602 0
DWIDTH 6 0
BBX 5 10 1 0
BITMAP
20
50
20
00
88
A8
A8
F8
50
50
ENDCHAR

STARTCHAR LATIN SMALL LETTER Y WITH RING ABOVE
ENCODING 7833
SWIDTH 602 0
DWIDTH 6 0
BBX 4 12 1 -2
BITMAP
20
50
20
00
90
90
90
60
60
40
80
80
ENDCHAR

STARTCHAR LATIN CAPITAL LETTER A WITH DOT BELOW
ENCODING 7840
SWIDTH 602 0
DWIDTH 6 0
BBX 4 10 1 -3
BITMAP
60
60
90
90
F0
90
90
00
20
20
ENDCHAR

STARTCHAR LATIN SMALL LETTER A WITH DOT BELOW
ENCODING 7841
SWIDTH 602 0
DWIDTH 6 0
BBX 4 9 1 -3
BITMAP
60
10
70
90
B0
50
00
20
20
ENDCHAR

STARTCHAR LATIN CAPITAL LETTER A WITH CIRCUMFLEX AND ACUTE
ENCODING 7844
SWIDTH 602 0
DWIDTH 6 0
BBX 4 12 1 0
BITMAP
10
20
00
20
50
00
60
60
90
F0
90
90
ENDCHAR

STARTCHAR LATIN SMALL LETTER A WITH CIRCUMFLEX AND ACUTE
ENCODING 7845
SWIDTH 602 0
DWIDTH 6 0
BBX 4 12 1 0
BITMAP
10
20
00
20
50
00
60
10
70
90
B0
50
ENDCHAR

STARTCHAR LATIN CAPITAL LETTER A WITH CIRCUMFLEX AND GRAVE
ENCODING 7846
SWIDTH 602 0
DWIDTH 6 0
BBX 4 12 1 0
BITMAP
40
20
00
20
50
00
60
60
90
F0
90
90
ENDCHAR

STARTCHAR LATIN SMALL LETTER A WITH CIRCUMFLEX AND GRAVE
ENCODING 7847
SWIDTH 602 0
DWIDTH 6 0
BBX 4 12 1 0
BITMAP
40
20
00
20
50
00
60
10
70
90
B0
50
ENDCHAR

STARTCHAR LATIN CAPITAL LETTER A WITH CIRCUMFLEX AND TILDE
ENCODING 7850
SWIDTH 602 0
DWIDTH 6 0
BBX 5 12 1 0
BITMAP
28
50
00
20
50
00
60
60
90
F0
90
90
ENDCHAR

STARTCHAR LATIN SMALL LETTER A WITH CIRCUMFLEX AND TILDE
ENCODING 7851
SWIDTH 602 0
DWIDTH 6 0
BBX 5 12 1 0
BITMAP
28
50
00
20
50
00
60
10
70
90
B0
50
ENDCHAR

STARTCHAR LATIN CAPITAL LETTER A WITH CIRCUMFLEX AND DOT BELOW
ENCODING 7852
SWIDTH 602 0
DWIDTH 6 0
BBX 4 13 1 -3
BITMAP
20
50
00
60
60
90
90
F0
90
90
00
20
20
ENDCHAR

STARTCHAR LATIN SMALL LETTER A WITH CIRCUMFLEX AND DOT BELOW
ENCODING 7853
SWIDTH 602 0
DWIDTH 6 0
BBX 4 12 1 -3
BITMAP
20
50
00
60
10
70
90
B0
50
00
20
20
ENDCHAR

STARTCHAR LATIN CAPITAL LETTER A WITH BREVE AND ACUTE
ENCODING 7854
SWIDTH 602 0
DWIDTH 6 0
BBX 4 13 1 0
BITMAP
20
40
00
90
60
00
60
60
90
90
F0
90
90
ENDCHAR

STARTCHAR LATIN SMALL LETTER A WITH BREVE AND ACUTE
ENCODING 7855
SWIDTH 602 0
DWIDTH 6 0
BBX 4 12 1 0
BITMAP
20
40
00
90
60
00
60
10
70
90
B0
50
ENDCHAR

STARTCHAR LATIN CAPITAL LETTER A WITH BREVE AND GRAVE
ENCODING 7856
SWIDTH 602 0
DWIDTH 6 0
BBX 4 13 1 0
BITMAP
40
20
00
90
60
00
60
60
90
90
F0
90
90
ENDCHAR

STARTCHAR LATIN SMALL LETTER A WITH BREVE AND GRAVE
ENCODING 7857
SWIDTH 602 0
DWIDTH 6 0
BBX 4 12 1 0
BITMAP
40
20
00
90
60
00
60
10
70
90
B0
50
ENDCHAR

STARTCHAR LATIN CAPITAL LETTER A WITH BREVE AND TILDE
ENCODING 7860
SWIDTH 602 0
DWIDTH 6 0
BBX 4 13 1 0
BITMAP
50
A0
00
90
60
00
60
60
90
90
F0
90
90
ENDCHAR

STARTCHAR LATIN SMALL LETTER A WITH BREVE AND TILDE
ENCODING 7861
SWIDTH 602 0
DWIDTH 6 0
BBX 4 12 1 0
BITMAP
50
A0
00
90
60
00
60
10
70
90
B0
50
ENDCHAR

STARTCHAR LATIN CAPITAL LETTER A WITH BREVE AND DOT BELOW
ENCODING 7862
SWIDTH 602 0
DWIDTH 6 0
BBX 4 13 1 -3
BITMAP
90
60
00
60
60
90
90
F0
90
90
00
20
20
ENDCHAR

STARTCHAR LATIN SMALL LETTER A WITH BREVE AND DOT BELOW
ENCODING 7863
SWIDTH 602 0
DWIDTH 6 0
BBX 4 12 1 -3
BITMAP
90
60
00
60
10
70
90
B0
50
00
20
20
ENDCHAR

STARTCHAR LATIN CAPITAL LETTER E WITH DOT BELOW
ENCODING 7864
SWIDTH 602 0
DWIDTH 6 0
BBX 4 10 1 -3
BITMAP
F0
80
80
E0
80
80
F0
00
40
40
ENDCHAR

STARTCHAR LATIN SMALL LETTER E WITH DOT BELOW
ENCODING 7865
SWIDTH 602 0
DWIDTH 6 0
BBX 4 9 1 -3
BITMAP
60
90
F0
80
80
70
00
20
20
ENDCHAR

STARTCHAR LATIN CAPITAL LETTER E WITH TILDE
ENCODING 7868
SWIDTH 602 0
DWIDTH 6 0
BBX 4 10 1 0
BITMAP
50
A0
00
F0
80
80
E0
80
80
F0
ENDCHAR

STARTCHAR LATIN SMALL LETTER E WITH TILDE
ENCODING 7869
SWIDTH 602 0
DWIDTH 6 0
BBX 4 9 1 0
BITMAP
50
A0
00
60
90
F0
80
80
70
ENDCHAR

STARTCHAR LATIN CAPITAL LETTER E WITH CIRCUMFLEX AND ACUTE
ENCODING 7870
SWIDTH 602 0
DWIDTH 6 0
BBX 4 12 1 0
BITMAP
10
20
00
20
50
00
F0
80
E0
80
80
F0
ENDCHAR

STARTCHAR LATIN SMALL LETTER E WITH CIRCUMFLEX AND ACUTE
ENCODING 7871
SWIDTH 602 0
DWIDTH 6 0
BBX 4 12 1 0
BITMAP
10
20
00
20
50
00
60
90
F0
80
80
70
ENDCHAR

STARTCHAR LATIN CAPITAL LETTER E WITH CIRCUMFLEX AND GRAVE
ENCODING 7872
SWIDTH 602 0
DWIDTH 6 0
BBX 4 12 1 0
BITMAP
40
20
00
20
50
00
F0
80
E0
80
80
F0
ENDCHAR

STARTCHAR LATIN SMALL LETTER E WITH CIRCUMFLEX AND GRAVE
ENCODING 7873
SWIDTH 602 0
DWIDTH 6 0
BBX 4 12 1 0
BITMAP
40
20
00
20
50
00
60
90
F0
80
80
70
ENDCHAR

STARTCHAR LATIN CAPITAL LETTER E WITH CIRCUMFLEX AND TILDE
ENCODING 7876
SWIDTH 602 0
DWIDTH 6 0
BBX 5 12 1 0
BITMAP
28
50
00
20
50
00
F0
80
E0
80
80
F0
ENDCHAR

STARTCHAR LATIN SMALL LETTER E WITH CIRCUMFLEX AND TILDE
ENCODING 7877
SWIDTH 602 0
DWIDTH 6 0
BBX 5 12 1 0
BITMAP
28
50
00
20
50
00
60
90
F0
80
80
70
ENDCHAR

STARTCHAR LATIN CAPITAL LETTER E WITH CIRCUMFLEX AND DOT BELOW
ENCODING 7878
SWIDTH 602 0
DWIDTH 6 0
BBX 4 13 1 -3
BITMAP
40
A0
00
F0
80
80
E0
80
80
F0
00
40
40
ENDCHAR

STARTCHAR LATIN SMALL LETTER E WITH CIRCUMFLEX AND DOT BELOW
ENCODING 7879
SWIDTH 602 0
DWIDTH 6 0
BBX 4 12 1 -3
BITMAP
20
50
00
60
90
F0
80
80
70
00
20
20
ENDCHAR

STARTCHAR LATIN CAPITAL LETTER I WITH DOT BELOW
ENCODING 7882
SWIDTH 602 0
DWIDTH 6 0
BBX 3 10 2 -3
BITMAP
E0
40
40
40
40
40
E0
00
40
40
ENDCHAR

STARTCHAR LATIN SMALL LETTER I WITH DOT BELOW
ENCODING 7883
SWIDTH 602 0
DWIDTH 6 0
BBX 3 11 1 -3
BITMAP
20
00
E0
20
20
20
20
20
00
20
20
ENDCHAR

STARTCHAR LATIN CAPITAL LETTER O WITH DOT BELOW
ENCODING 7884
SWIDTH 602 0
DWIDTH 6 0
BBX 6 10 0 -3
BITMAP
30
48
84
84
84
48
30
00
10
10
ENDCHAR

STARTCHAR LATIN SMALL LETTER O WITH DOT BELOW
ENCODING 7885
SWIDTH 602 0
DWIDTH 6 0
BBX 4 9 1 -3
BITMAP
60
90
90
90
90
60
00
20
20
ENDCHAR

STARTCHAR LATIN CAPITAL LETTER O WITH CIRCUMFLEX AND ACUTE
ENCODING 7888
SWIDTH 602 0
DWIDTH 6 0
BBX 6 12 0 0
BITMAP
08
10
00
10
28
00
30
48
84
84
48
30
ENDCHAR

STARTCHAR LATIN SMALL LETTER O WITH CIRCUMFLEX AND ACUTE
ENCODING 7889
SWIDTH 602 0
DWIDTH 6 0
BBX 4 12 1 0
BITMAP
10
20
00
20
50
00
60
90
90
90
90
60
ENDCHAR

STARTCHAR LATIN CAPITAL LETTER O WITH CIRCUMFLEX AND GRAVE
ENCODING 7890
SWIDTH 602 0
DWIDTH 6 0
BBX 6 12 0 0
BITMAP
20
10
00
10
28
00
30
48
84
84
48
30
ENDCHAR

STARTCHAR LATIN SMALL LETTER O WITH CIRCUMFLEX AND GRAVE
ENCODING 7891
SWIDTH 602 0
DWIDTH 6 0
BBX 4 12 1 0
BITMAP
40
20
00
20
50
00
60
90
90
90
90
60
ENDCHAR

STARTCHAR LATIN CAPITAL LETTER O WITH CIRCUMFLEX AND TILDE
ENCODING 7894
SWIDTH 602 0
DWIDTH 6 0
BBX 6 12 0 0
BITMAP
14
28
00
10
28
00
30
48
84
84
48
30
ENDCHAR

STARTCHAR LATIN SMALL LETTER O WITH CIRCUMFLEX AND TILDE
ENCODING 7895
SWIDTH 602 0
DWIDTH 6 0
BBX 5 12 1 0
BITMAP
28
50
00
20
50
00
60
90
90
90
90
60
ENDCHAR

STARTCHAR LATIN CAPITAL LETTER O WITH CIRCUMFLEX AND DOT BELOW
ENCODING 7896
SWIDTH 602 0
DWIDTH 6 0
BBX 6 13 0 -3
BITMAP
10
28
00
30
48
84
84
84
48
30
00
10
10
ENDCHAR

STARTCHAR LATIN SMALL LETTER O WITH CIRCUMFLEX AND DOT BELOW
ENCODING 7897
SWIDTH 602 0
DWIDTH 6 0
BBX 4 12 1 -3
BITMAP
20
50
00
60
90
90
90
90
60
00
20
20
ENDCHAR

STARTCHAR LATIN CAPITAL LETTER O WITH HORN AND ACUTE
ENCODING 7898
SWIDTH 602 0
DWIDTH 6 0
BBX 8 10 0 0
BITMAP
04
08
00
31
49
86
84
84
48
30
ENDCHAR

STARTCHAR LATIN SMALL LETTER O WITH HORN AND ACUTE
ENCODING 7899
SWIDTH 602 0
DWIDTH 6 0
BBX 6 9 1 0
BITMAP
10
20
00
64
94
98
90
90
60
ENDCHAR

STARTCHAR LATIN CAPITAL LETTER O WITH HORN AND GRAVE
ENCODING 7900
SWIDTH 602 0
DWIDTH 6 0
BBX 8 10 0 0
BITMAP
10
08
00
31
49
86
84
84
48
30
ENDCHAR

STARTCHAR LATIN SMALL LETTER O WITH HORN AND GRAVE
ENCODING 7901
SWIDTH 602 0
DWIDTH 6 0
BBX 6 9 1 0
BITMAP
20
10
00
64
94
98
90
90
60
ENDCHAR

STARTCHAR LATIN CAPITAL LETTER O WITH HORN AND TILDE
ENCODING 7904
SWIDTH 602 0
DWIDTH 6 0
BBX 8 10 0 0
BITMAP
0A
14
00
31
49
86
84
84
48
30
ENDCHAR

STARTCHAR LATIN SMALL LETTER O WITH HORN AND TILDE
ENCODING 7905
SWIDTH 602 0
DWIDTH 6 0
BBX 6 9 1 0
BITMAP
28
50
00
64
94
98
90
90
60
ENDCHAR

STARTCHAR LATIN CAPITAL LETTER O WITH HORN AND DOT BELOW
ENCODING 7906
SWIDTH 602 0
DWIDTH 6 0
BBX 8 10 0 -3
BITMAP
31
49
86
84
84
48
30
00
10
10
ENDCHAR

STARTCHAR LATIN SMALL LETTER O WITH HORN AND DOT BELOW
ENCODING 7907
SWIDTH 602 0
DWIDTH 6 0
BBX 6 9 1 -3
BITMAP
64
94
98
90
90
60
00
20
20
ENDCHAR

STARTCHAR LATIN CAPITAL LETTER U WITH DOT BELOW
ENCODING 7908
SWIDTH 602 0
DWIDTH 6 0
BBX 4 10 1 -3
BITMAP
90
90
90
90
90
90
60
00
20
20
ENDCHAR

STARTCHAR LATIN SMALL LETTER U WITH DOT BELOW
ENCODING 7909
SWIDTH 602 0
DWIDTH 6 0
BBX 4 9 1 -3
BITMAP
90
90
90
90
B0
50
00
20
20
ENDCHAR

STARTCHAR LATIN CAPITAL LETTER U WITH HORN AND ACUTE
ENCODING 7912
SWIDTH 602 0
DWIDTH 6 0
BBX 6 10 1 0
BITMAP
10
20
00
94
94
98
90
90
90
60
ENDCHAR

STARTCHAR LATIN SMALL LETTER U WITH HORN AND ACUTE
ENCODING 7913
SWIDTH 602 0
DWIDTH 6 0
BBX 6 9 1 0
BITMAP
10
20
00
94
94
98
90
B0
50
ENDCHAR

STARTCHAR LATIN CAPITAL LETTER U WITH HORN AND GRAVE
ENCODING 7914
SWIDTH 602 0
DWIDTH 6 0
BBX 6 10 1 0
BITMAP
20
10
00
94
94
98
90
90
90
60
ENDCHAR

STARTCHAR LATIN SMALL LETTER U WITH HORN AND GRAVE
ENCODING 7915
SWIDTH 602 0
DWIDTH 6 0
BBX 6 9 1 0
BITMAP
20
10
00
94
94
98
90
B0
50
ENDCHAR

STARTCHAR LATIN CAPITAL LETTER U WITH HORN AND TILDE
ENCODING 7918
SWIDTH 602 0
DWIDTH 6 0
BBX 6 10 1 0
BITMAP
28
50
00
94
94
98
90
90
90
60
ENDCHAR

STARTCHAR LATIN SMALL LETTER U WITH HORN AND TILDE
ENCODING 7919
SWIDTH 602 0
DWIDTH 6 0
BBX 6 9 1 0
BITMAP
28
50
00
94
94
98
90
B0
50
ENDCHAR

STARTCHAR LATIN CAPITAL LETTER U WITH HORN AND DOT BELOW
ENCODING 7920
SWIDTH 602 0
DWIDTH 6 0
BBX 6 10 1 -3
BITMAP
94
94
98
90
90
90
60
00
20
20
ENDCHAR

STARTCHAR LATIN SMALL LETTER U WITH HORN AND DOT BELOW
ENCODING 7921
SWIDTH 602 0
DWIDTH 6 0
BBX 6 9 1 -3
BITMAP
94
94
98
90
B0
50
00
20
20
ENDCHAR

STARTCHAR LATIN CAPITAL LETTER Y WITH GRAVE
ENCODING 7922
SWIDTH 602 0
DWIDTH 6 0
BBX 5 10 1 0
BITMAP
40
20
00
88
88
50
20
20
20
20
ENDCHAR

STARTCHAR LATIN SMALL LETTER Y WITH GRAVE
ENCODING 7923
SWIDTH 602 0
DWIDTH 6 0
BBX 4 11 1 -2
BITMAP
40
20
00
90
90
90
60
60
40
80
80
ENDCHAR

STARTCHAR LATIN CAPITAL LETTER Y WITH DOT BELOW
ENCODING 7924
SWIDTH 602 0
DWIDTH 6 0
BBX 5 10 1 -3
BITMAP
88
88
50
20
20
20
20
00
20
20
ENDCHAR

STARTCHAR LATIN SMALL LETTER Y WITH DOT BELOW
ENCODING 7925
SWIDTH 602 0
DWIDTH 6 0
BBX 4 11 1 -5
BITMAP
90
90
90
60
60
40
80
80
00
40
40
ENDCHAR

STARTCHAR LATIN CAPITAL LETTER Y WITH TILDE
ENCODING 7928
SWIDTH 602 0
DWIDTH 6 0
BBX 5 10 1 0
BITMAP
28
50
00
88
88
50
20
20
20
20
ENDCHAR

STARTCHAR LATIN SMALL LETTER Y WITH TILDE
ENCODING 7929
SWIDTH 602 0
DWIDTH 6 0
BBX 4 11 1 -2
BITMAP
50
A0
00
90
90
90
60
60
40
80
80
ENDCHAR

STARTCHAR EN QUAD
ENCODING 8192
SWIDTH 602 0
DWIDTH 6 0
BBX 1 1 0 0
BITMAP
00
ENDCHAR

STARTCHAR EM QUAD
ENCODING 8193
SWIDTH 602 0
DWIDTH 6 0
BBX 1 1 0 0
BITMAP
00
ENDCHAR

STARTCHAR EN SPACE
ENCODING 8194
SWIDTH 602 0
DWIDTH 6 0
BBX 1 1 0 0
BITMAP
00
ENDCHAR

STARTCHAR EM SPACE
ENCODING 8195
SWIDTH 602 0
DWIDTH 6 0
BBX 1 1 0 0
BITMAP
00
ENDCHAR

STARTCHAR THREE-PER-EM SPACE
ENCODING 8196
SWIDTH 602 0
DWIDTH 6 0
BBX 1 1 0 0
BITMAP
00
ENDCHAR

STARTCHAR FOUR-PER-EM SPACE
ENCODING 8197
SWIDTH 602 0
DWIDTH 6 0
BBX 1 1 0 0
BITMAP
00
ENDCHAR

STARTCHAR SIX-PER-EM SPACE
ENCODING 8198
SWIDTH 602 0
DWIDTH 6 0
BBX 1 1 0 0
BITMAP
00
ENDCHAR

STARTCHAR FIGURE SPACE
ENCODING 8199
SWIDTH 602 0
DWIDTH 6 0
BBX 1 1 0 0
BITMAP
00
ENDCHAR

STARTCHAR PUNCTUATION SPACE
ENCODING 8200
SWIDTH 602 0
DWIDTH 6 0
BBX 1 1 0 0
BITMAP
00
ENDCHAR

STARTCHAR THIN SPACE
ENCODING 8201
SWIDTH 602 0
DWIDTH 6 0
BBX 1 1 0 0
BITMAP
00
ENDCHAR

STARTCHAR HAIR SPACE
ENCODING 8202
SWIDTH 602 0
DWIDTH 6 0
BBX 1 1 0 0
BITMAP
00
ENDCHAR

STARTCHAR HYPHEN
ENCODING 8208
SWIDTH 602 0
DWIDTH 6 0
BBX 2 1 2 3
BITMAP
C0
ENDCHAR

STARTCHAR NON-BREAKING HYPHEN
ENCODING 8209
SWIDTH 602 0
DWIDTH 6 0
BBX 2 1 2 3
BITMAP
C0
ENDCHAR

STARTCHAR FIGURE DASH
ENCODING 8210
SWIDTH 602 0
DWIDTH 6 0
BBX 4 1 1 3
BITMAP
F0
ENDCHAR

STARTCHAR EN DASH
ENCODING 8211
SWIDTH 602 0
DWIDTH 6 0
BBX 4 1 1 3
BITMAP
F0
ENDCHAR

STARTCHAR EM DASH
ENCODING 8212
SWIDTH 602 0
DWIDTH 6 0
BBX 4 1 1 3
BITMAP
F0
ENDCHAR

STARTCHAR QUOTATION DASH
ENCODING 8213
SWIDTH 602 0
DWIDTH 6 0
BBX 4 1 1 3
BITMAP
F0
ENDCHAR

STARTCHAR SINGLE TURNED COMMA QUOTATION MARK
ENCODING 8216
SWIDTH 602 0
DWIDTH 6 0
BBX 2 3 2 5
BITMAP
40
80
80
ENDCHAR

STARTCHAR SINGLE COMMA QUOTATION MARK
ENCODING 8217
SWIDTH 602 0
DWIDTH 6 0
BBX 2 3 2 5
BITMAP
40
40
80
ENDCHAR

STARTCHAR LOW SINGLE COMMA QUOTATION MARK
ENCODING 8218
SWIDTH 602 0
DWIDTH 6 0
BBX 2 3 2 -1
BITMAP
40
40
80
ENDCHAR

STARTCHAR SINGLE REVERSED COMMA QUOTATION MARK
ENCODING 8219
SWIDTH 602 0
DWIDTH 6 0
BBX 2 3 2 5
BITMAP
80
80
40
ENDCHAR

STARTCHAR DOUBLE TURNED COMMA QUOTATION MARK
ENCODING 8220
SWIDTH 602 0
DWIDTH 6 0
BBX 4 3 1 5
BITMAP
50
A0
A0
ENDCHAR

STARTCHAR DOUBLE COMMA QUOTATION MARK
ENCODING 8221
SWIDTH 602 0
DWIDTH 6 0
BBX 4 3 1 5
BITMAP
50
50
A0
ENDCHAR

STARTCHAR LOW DOUBLE COMMA QUOTATION MARK
ENCODING 8222
SWIDTH 602 0
DWIDTH 6 0
BBX 4 3 1 -1
BITMAP
50
50
A0
ENDCHAR

STARTCHAR DOUBLE REVERSED COMMA QUOTATION MARK
ENCODING 8223
SWIDTH 602 0
DWIDTH 6 0
BBX 4 3 1 5
BITMAP
A0
A0
50
ENDCHAR

STARTCHAR DAGGER
ENCODING 8224
SWIDTH 602 0
DWIDTH 6 0
BBX 5 8 1 -1
BITMAP
20
20
F8
20
20
20
20
20
ENDCHAR

STARTCHAR DOUBLE DAGGER
ENCODING 8225
SWIDTH 602 0
DWIDTH 6 0
BBX 5 8 1 -1
BITMAP
20
20
F8
20
20
F8
20
20
ENDCHAR

STARTCHAR BULLET
ENCODING 8226
SWIDTH 602 0
DWIDTH 6 0
BBX 3 2 2 2
BITMAP
E0
E0
ENDCHAR

STARTCHAR HORIZONTAL ELLIPSIS
ENCODING 8230
SWIDTH 602 0
DWIDTH 6 0
BBX 4 2 1 0
BITMAP
90
90
ENDCHAR

STARTCHAR PER MILLE SIGN
ENCODING 8240
SWIDTH 602 0
DWIDTH 6 0
BBX 6 8 0 0
BITMAP
40
A0
4C
30
C0
28
54
28
ENDCHAR

STARTCHAR LEFT POINTING SINGLE GUILLEMET
ENCODING 8249
SWIDTH 602 0
DWIDTH 6 0
BBX 2 3 2 2
BITMAP
40
80
40
ENDCHAR

STARTCHAR RIGHT POINTING SINGLE GUILLEMET
ENCODING 8250
SWIDTH 602 0
DWIDTH 6 0
BBX 2 3 2 2
BITMAP
80
40
80
ENDCHAR

STARTCHAR DOUBLE EXCLAMATION MARK
ENCODING 8252
SWIDTH 602 0
DWIDTH 6 0
BBX 4 7 1 0
BITMAP
90
90
90
90
00
90
90
ENDCHAR

STARTCHAR INTERROBANG
ENCODING 8253
SWIDTH 602 0
DWIDTH 6 0
BBX 5 7 1 0
BITMAP
70
A8
28
30
00
20
20
ENDCHAR

STARTCHAR FRACTION SLASH
ENCODING 8260
SWIDTH 602 0
DWIDTH 6 0
BBX 6 7 0 0
BITMAP
04
08
10
10
20
40
80
ENDCHAR

STARTCHAR SUPERSCRIPT LATIN SMALL LETTER N
ENCODING 8319
SWIDTH 602 0
DWIDTH 6 0
BBX 3 3 1 4
BITMAP
C0
A0
A0
ENDCHAR

STARTCHAR SUBSCRIPT DIGIT ONE
ENCODING 8321
SWIDTH 602 0
DWIDTH 6 0
BBX 3 5 1 -2
BITMAP
20
E0
20
20
20
ENDCHAR

STARTCHAR SUBSCRIPT DIGIT TWO
ENCODING 8322
SWIDTH 602 0
DWIDTH 6 0
BBX 4 5 1 -2
BITMAP
E0
10
60
80
F0
ENDCHAR

STARTCHAR SUBSCRIPT DIGIT THREE
ENCODING 8323
SWIDTH 602 0
DWIDTH 6 0
BBX 4 5 1 -2
BITMAP
E0
10
60
10
E0
ENDCHAR

STARTCHAR MILL SIGN
ENCODING 8357
SWIDTH 602 0
DWIDTH 6 0
BBX 5 9 1 -1
BITMAP
08
08
D0
B8
A8
E8
E8
A8
80
ENDCHAR

STARTCHAR NAIRA SIGN
ENCODING 8358
SWIDTH 602 0
DWIDTH 6 0
BBX 5 7 1 0
BITMAP
90
D0
F8
B0
F8
90
90
ENDCHAR

STARTCHAR PESETA SIGN
ENCODING 8359
SWIDTH 602 0
DWIDTH 6 0
BBX 6 7 0 0
BITMAP
E8
9C
98
E8
88
88
84
ENDCHAR

STARTCHAR WON SIGN
ENCODING 8361
SWIDTH 602 0
DWIDTH 6 0
BBX 5 7 1 0
BITMAP
88
A8
F8
A8
F8
50
50
ENDCHAR

STARTCHAR EURO SIGN
ENCODING 8364
SWIDTH 602 0
DWIDTH 6 0
BBX 6 7 -1 0
BITMAP
1C
24
F8
40
F8
20
1C
ENDCHAR

STARTCHAR KIP SIGN
ENCODING 8365
SWIDTH 602 0
DWIDTH 6 0
BBX 5 7 1 0
BITMAP
88
90
A0
F8
A0
90
88
ENDCHAR

STARTCHAR TRADEMARK
ENCODING 8482
SWIDTH 602 0
DWIDTH 6 0
BBX 6 3 0 4
BITMAP
FC
5C
54
ENDCHAR

STARTCHAR DEGREES KELVIN
ENCODING 8490
SWIDTH 602 0
DWIDTH 6 0
BBX 5 7 1 0
BITMAP
88
90
A0
C0
A0
90
88
ENDCHAR

STARTCHAR ANGSTROM UNIT
ENCODING 8491
SWIDTH 602 0
DWIDTH 6 0
BBX 4 8 1 0
BITMAP
60
90
60
60
90
F0
90
90
ENDCHAR

STARTCHAR TURNED F
ENCODING 8498
SWIDTH 602 0
DWIDTH 6 0
BBX 4 7 1 0
BITMAP
10
10
10
70
10
10
F0
ENDCHAR

STARTCHAR LEFT ARROW
ENCODING 8592
SWIDTH 602 0
DWIDTH 6 0
BBX 6 5 0 1
BITMAP
20
40
FC
40
20
ENDCHAR

STARTCHAR UP ARROW
ENCODING 8593
SWIDTH 602 0
DWIDTH 6 0
BBX 5 6 1 1
BITMAP
20
70
A8
20
20
20
ENDCHAR

STARTCHAR RIGHT ARROW
ENCODING 8594
SWIDTH 602 0
DWIDTH 6 0
BBX 6 5 0 1
BITMAP
10
08
FC
08
10
ENDCHAR

STARTCHAR DOWN ARROW
ENCODING 8595
SWIDTH 602 0
DWIDTH 6 0
BBX 5 6 1 1
BITMAP
20
20
20
A8
70
20
ENDCHAR

STARTCHAR LEFT RIGHT ARROW
ENCODING 8596
SWIDTH 602 0
DWIDTH 6 0
BBX 6 3 0 2
BITMAP
48
FC
48
ENDCHAR

STARTCHAR UP DOWN ARROW
ENCODING 8597
SWIDTH 602 0
DWIDTH 6 0
BBX 3 6 2 1
BITMAP
40
E0
40
40
E0
40
ENDCHAR

STARTCHAR UPPER LEFT ARROW
ENCODING 8598
SWIDTH 602 0
DWIDTH 6 0
BBX 5 5 1 1
BITMAP
E0
C0
A0
10
08
ENDCHAR

STARTCHAR UPPER RIGHT ARROW
ENCODING 8599
SWIDTH 602 0
DWIDTH 6 0
BBX 5 5 1 2
BITMAP
38
18
28
40
80
ENDCHAR

STARTCHAR LOWER RIGHT ARROW
ENCODING 8600
SWIDTH 602 0
DWIDTH 6 0
BBX 5 5 1 1
BITMAP
80
40
28
18
38
ENDCHAR

STARTCHAR LOWER LEFT ARROW
ENCODING 8601
SWIDTH 602 0
DWIDTH 6 0
BBX 5 5 1 1
BITMAP
08
10
A0
C0
E0
ENDCHAR

STARTCHAR UP DOWN ARROW WITH BASE
ENCODING 8616
SWIDTH 602 0
DWIDTH 6 0
BBX 3 7 2 0
BITMAP
40
E0
40
40
E0
40
E0
ENDCHAR

STARTCHAR UP ARROW WITH TIP LEFT
ENCODING 8624
SWIDTH 602 0
DWIDTH 6 0
BBX 5 8 1 0
BITMAP
20
40
F8
48
28
08
08
08
ENDCHAR

STARTCHAR UP ARROW WITH TIP RIGHT
ENCODING 8625
SWIDTH 602 0
DWIDTH 6 0
BBX 5 8 1 0
BITMAP
20
10
F8
90
A0
80
80
80
ENDCHAR

STARTCHAR DOWN ARROW WITH TIP LEFT
ENCODING 8626
SWIDTH 602 0
DWIDTH 6 0
BBX 5 8 1 -1
BITMAP
08
08
08
28
48
F8
40
20
ENDCHAR

STARTCHAR DOWN ARROW WITH TIP RIGHT
ENCODING 8627
SWIDTH 602 0
DWIDTH 6 0
BBX 5 8 1 -1
BITMAP
80
80
80
A0
90
F8
10
20
ENDCHAR

STARTCHAR RIGHT ARROW WITH CORNER DOWN
ENCODING 8628
SWIDTH 602 0
DWIDTH 6 0
BBX 5 7 1 0
BITMAP
E0
20
20
20
A8
70
20
ENDCHAR

STARTCHAR DOWN ARROW WITH CORNER LEFT
ENCODING 8629
SWIDTH 602 0
DWIDTH 6 0
BBX 5 6 1 1
BITMAP
08
28
48
F8
40
20
ENDCHAR

STARTCHAR LEFT PAIRED ARROWS
ENCODING 8647
SWIDTH 602 0
DWIDTH 6 0
BBX 6 9 0 -1
BITMAP
20
40
FC
40
20
40
FC
40
20
ENDCHAR

STARTCHAR UP PAIRED ARROWS
ENCODING 8648
SWIDTH 602 0
DWIDTH 6 0
BBX 6 6 0 1
BITMAP
48
FC
48
48
48
48
ENDCHAR

STARTCHAR RIGHT PAIRED ARROWS
ENCODING 8649
SWIDTH 602 0
DWIDTH 6 0
BBX 6 9 0 -1
BITMAP
10
08
FC
08
10
08
FC
08
10
ENDCHAR

STARTCHAR DOWN PAIRED ARROWS
ENCODING 8650
SWIDTH 602 0
DWIDTH 6 0
BBX 6 6 0 1
BITMAP
48
48
48
48
FC
48
ENDCHAR

STARTCHAR FOR ALL
ENCODING 8704
SWIDTH 602 0
DWIDTH 6 0
BBX 4 7 1 0
BITMAP
90
90
F0
90
90
60
60
ENDCHAR

STARTCHAR COMPLEMENT
ENCODING 8705
SWIDTH 602 0
DWIDTH 6 0
BBX 4 7 1 0
BITMAP
60
90
80
80
80
90
60
ENDCHAR

STARTCHAR PARTIAL DIFFERENTIAL
ENCODING 8706
SWIDTH 602 0
DWIDTH 6 0
BBX 4 7 1 0
BITMAP
60
10
50
B0
90
90
60
ENDCHAR

STARTCHAR THERE EXISTS
ENCODING 8707
SWIDTH 602 0
DWIDTH 6 0
BBX 4 7 1 0
BITMAP
F0
10
10
70
10
10
F0
ENDCHAR

STARTCHAR THERE DOES NOT EXIST
ENCODING 8708
SWIDTH 602 0
DWIDTH 6 0
BBX 5 9 1 -1
BITMAP
08
F8
10
10
70
50
50
F0
80
ENDCHAR

STARTCHAR EMPTY SET
ENCODING 8709
SWIDTH 602 0
DWIDTH 6 0
BBX 5 5 1 1
BITMAP
68
90
A8
48
B0
ENDCHAR

STARTCHAR INCREMENT
ENCODING 8710
SWIDTH 602 0
DWIDTH 6 0
BBX 5 7 1 0
BITMAP
20
20
50
50
88
88
F8
ENDCHAR

STARTCHAR NABLA
ENCODING 8711
SWIDTH 602 0
DWIDTH 6 0
BBX 5 7 1 0
BITMAP
F8
88
88
50
50
20
20
ENDCHAR

STARTCHAR ELEMENT OF
ENCODING 8712
SWIDTH 602 0
DWIDTH 6 0
BBX 4 7 1 0
BITMAP
70
80
80
F0
80
80
70
ENDCHAR

STARTCHAR NOT AN ELEMENT OF
ENCODING 8713
SWIDTH 602 0
DWIDTH 6 0
BBX 4 9 1 -1
BITMAP
20
70
A0
A0
F0
A0
A0
70
20
ENDCHAR

STARTCHAR SMALL ELEMENT OF
ENCODING 8714
SWIDTH 602 0
DWIDTH 6 0
BBX 4 5 1 1
BITMAP
70
80
F0
80
70
ENDCHAR

STARTCHAR CONTAINS AS MEMBER
ENCODING 8715
SWIDTH 602 0
DWIDTH 6 0
BBX 4 7 1 0
BITMAP
E0
10
10
F0
10
10
E0
ENDCHAR

STARTCHAR DOES NOT CONTAIN AS MEMBER
ENCODING 8716
SWIDTH 602 0
DWIDTH 6 0
BBX 4 9 1 -1
BITMAP
40
E0
50
50
F0
50
50
E0
40
ENDCHAR

STARTCHAR SMALL CONTAINS AS MEMBER
ENCODING 8717
SWIDTH 602 0
DWIDTH 6 0
BBX 4 5 1 1
BITMAP
E0
10
F0
10
E0
ENDCHAR

STARTCHAR END OF PROOF
ENCODING 8718
SWIDTH 602 0
DWIDTH 6 0
BBX 4 6 1 0
BITMAP
F0
F0
F0
F0
F0
F0
ENDCHAR

STARTCHAR N-ARY PRODUCT
ENCODING 8719
SWIDTH 602 0
DWIDTH 6 0
BBX 5 9 1 -1
BITMAP
F8
88
88
88
88
88
88
88
88
ENDCHAR

STARTCHAR N-ARY COPRODUCT
ENCODING 8720
SWIDTH 602 0
DWIDTH 6 0
BBX 5 9 1 -1
BITMAP
88
88
88
88
88
88
88
88
F8
ENDCHAR

STARTCHAR N-ARY SUMMATION
ENCODING 8721
SWIDTH 602 0
DWIDTH 6 0
BBX 5 9 1 -1
BITMAP
F8
80
40
20
10
20
40
80
F8
ENDCHAR

STARTCHAR MINUS SIGN
ENCODING 8722
SWIDTH 602 0
DWIDTH 6 0
BBX 5 1 1 3
BITMAP
F8
ENDCHAR

STARTCHAR MINUS-OR-PLUS SIGN
ENCODING 8723
SWIDTH 602 0
DWIDTH 6 0
BBX 5 5 1 1
BITMAP
F8
00
20
F8
20
ENDCHAR

STARTCHAR DOT PLUS
ENCODING 8724
SWIDTH 602 0
DWIDTH 6 0
BBX 5 5 1 1
BITMAP
20
00
20
F8
20
ENDCHAR

STARTCHAR DIVISION SLASH
ENCODING 8725
SWIDTH 602 0
DWIDTH 6 0
BBX 6 7 0 0
BITMAP
04
08
10
10
20
40
80
ENDCHAR

STARTCHAR SET MINUS
ENCODING 8726
SWIDTH 602 0
DWIDTH 6 0
BBX 6 7 0 0
BITMAP
80
40
20
20
10
08
04
ENDCHAR

STARTCHAR ASTERISK OPERATOR
ENCODING 8727
SWIDTH 602 0
DWIDTH 6 0
BBX 3 3 2 2
BITMAP
A0
40
A0
ENDCHAR

STARTCHAR RING OPERATOR
ENCODING 8728
SWIDTH 602 0
DWIDTH 6 0
BBX 4 4 1 1
BITMAP
60
90
90
60
ENDCHAR

STARTCHAR BULLET OPERATOR
ENCODING 8729
SWIDTH 602 0
DWIDTH 6 0
BBX 2 2 2 2
BITMAP
C0
C0
ENDCHAR

STARTCHAR SQUARE ROOT
ENCODING 8730
SWIDTH 602 0
DWIDTH 6 0
BBX 5 7 1 0
BITMAP
18
10
10
10
90
50
30
ENDCHAR

STARTCHAR PROPORTIONAL TO
ENCODING 8733
SWIDTH 602 0
DWIDTH 6 0
BBX 4 3 1 2
BITMAP
50
A0
50
ENDCHAR

STARTCHAR INFINITY
ENCODING 8734
SWIDTH 602 0
DWIDTH 6 0
BBX 5 3 1 2
BITMAP
50
A8
50
ENDCHAR

STARTCHAR RIGHT ANGLE
ENCODING 8735
SWIDTH 602 0
DWIDTH 6 0
BBX 5 5 1 1
BITMAP
80
80
80
80
F8
ENDCHAR

STARTCHAR DIVIDES
ENCODING 8739
SWIDTH 602 0
DWIDTH 6 0
BBX 3 7 2 0
BITMAP
80
80
40
40
40
20
20
ENDCHAR

STARTCHAR LOGICAL AND
ENCODING 8743
SWIDTH 602 0
DWIDTH 6 0
BBX 5 5 1 1
BITMAP
20
20
50
50
88
ENDCHAR

STARTCHAR LOGICAL OR
ENCODING 8744
SWIDTH 602 0
DWIDTH 6 0
BBX 5 5 1 1
BITMAP
88
50
50
20
20
ENDCHAR

STARTCHAR INTERSECTION
ENCODING 8745
SWIDTH 602 0
DWIDTH 6 0
BBX 5 6 1 0
BITMAP
70
88
88
88
88
88
ENDCHAR

STARTCHAR UNION
ENCODING 8746
SWIDTH 602 0
DWIDTH 6 0
BBX 5 6 1 0
BITMAP
88
88
88
88
88
70
ENDCHAR

STARTCHAR RATIO
ENCODING 8758
SWIDTH 602 0
DWIDTH 6 0
BBX 1 6 2 0
BITMAP
80
80
00
00
80
80
ENDCHAR

STARTCHAR TILDE OPERATOR
ENCODING 8764
SWIDTH 602 0
DWIDTH 6 0
BBX 6 2 0 2
BITMAP
64
98
ENDCHAR

STARTCHAR ALMOST EQUAL TO
ENCODING 8776
SWIDTH 602 0
DWIDTH 6 0
BBX 6 5 0 1
BITMAP
64
98
00
64
98
ENDCHAR

STARTCHAR ESTIMATES
ENCODING 8793
SWIDTH 602 0
DWIDTH 6 0
BBX 5 6 1 2
BITMAP
20
50
00
F8
00
F8
ENDCHAR

STARTCHAR EQUIANGULAR TO
ENCODING 8794
SWIDTH 602 0
DWIDTH 6 0
BBX 5 6 1 2
BITMAP
50
20
00
F8
00
F8
ENDCHAR

STARTCHAR NOT EQUAL TO
ENCODING 8800
SWIDTH 602 0
DWIDTH 6 0
BBX 5 9 1 -1
BITMAP
08
08
10
F8
20
F8
40
80
80
ENDCHAR

STARTCHAR IDENTICAL TO
ENCODING 8801
SWIDTH 602 0
DWIDTH 6 0
BBX 5 5 0 1
BITMAP
F8
00
F8
00
F8
ENDCHAR

STARTCHAR NOT IDENTICAL TO
ENCODING 8802
SWIDTH 602 0
DWIDTH 6 0
BBX 5 9 0 -1
BITMAP
08
08
F8
10
F8
40
F8
80
80
ENDCHAR

STARTCHAR LESS THAN OR EQUAL TO
ENCODING 8804
SWIDTH 602 0
DWIDTH 6 0
BBX 3 7 2 -1
BITMAP
20
40
80
40
20
00
E0
ENDCHAR

STARTCHAR GREATER THAN OR EQUAL TO
ENCODING 8805
SWIDTH 602 0
DWIDTH 6 0
BBX 3 7 1 -1
BITMAP
80
40
20
40
80
00
E0
ENDCHAR

STARTCHAR NOT LESS THAN
ENCODING 8814
SWIDTH 602 0
DWIDTH 6 0
BBX 5 9 1 -1
BITMAP
08
08
10
30
60
60
50
80
80
ENDCHAR

STARTCHAR NOT GREATER THAN
ENCODING 8815
SWIDTH 602 0
DWIDTH 6 0
BBX 5 9 0 -1
BITMAP
08
08
50
30
30
60
40
80
80
ENDCHAR

STARTCHAR NEITHER LESS THAN NOR EQUAL TO
ENCODING 8816
SWIDTH 602 0
DWIDTH 6 0
BBX 5 9 1 -2
BITMAP
08
18
30
50
20
50
40
F0
80
ENDCHAR

STARTCHAR NEITHER GREATER THAN NOR EQUAL TO
ENCODING 8817
SWIDTH 602 0
DWIDTH 6 0
BBX 5 9 0 -2
BITMAP
08
48
30
10
20
40
40
F0
80
ENDCHAR

STARTCHAR SUBSET OF
ENCODING 8834
SWIDTH 602 0
DWIDTH 6 0
BBX 5 5 1 1
BITMAP
78
80
80
80
78
ENDCHAR

STARTCHAR SUPERSET OF
ENCODING 8835
SWIDTH 602 0
DWIDTH 6 0
BBX 5 5 1 1
BITMAP
F0
08
08
08
F0
ENDCHAR

STARTCHAR SUBSET OF OR EQUAL TO
ENCODING 8838
SWIDTH 602 0
DWIDTH 6 0
BBX 5 7 1 -1
BITMAP
78
80
80
80
78
00
F8
ENDCHAR

STARTCHAR SUPERSET OF OR EQUAL TO
ENCODING 8839
SWIDTH 602 0
DWIDTH 6 0
BBX 5 7 1 -1
BITMAP
F0
08
08
08
F0
00
F8
ENDCHAR

STARTCHAR SQUARE IMAGE OF
ENCODING 8847
SWIDTH 602 0
DWIDTH 6 0
BBX 5 5 1 1
BITMAP
F8
80
80
80
F8
ENDCHAR

STARTCHAR SQUARE ORIGINAL OF
ENCODING 8848
SWIDTH 602 0
DWIDTH 6 0
BBX 5 5 1 1
BITMAP
F8
08
08
08
F8
ENDCHAR

STARTCHAR SQUARE IMAGE OF OR EQUAL TO
ENCODING 8849
SWIDTH 602 0
DWIDTH 6 0
BBX 5 7 1 -1
BITMAP
F8
80
80
80
F8
00
F8
ENDCHAR

STARTCHAR SQUARE ORIGINAL OF OR EQUAL TO
ENCODING 8850
SWIDTH 602 0
DWIDTH 6 0
BBX 5 7 1 -1
BITMAP
F8
08
08
08
F8
00
F8
ENDCHAR

STARTCHAR SQUARE CAP
ENCODING 8851
SWIDTH 602 0
DWIDTH 6 0
BBX 5 5 1 1
BITMAP
F8
88
88
88
88
ENDCHAR

STARTCHAR SQUARE CUP
ENCODING 8852
SWIDTH 602 0
DWIDTH 6 0
BBX 5 5 1 1
BITMAP
88
88
88
88
F8
ENDCHAR

STARTCHAR CIRCLED MINUS
ENCODING 8854
SWIDTH 602 0
DWIDTH 6 0
BBX 5 5 1 1
BITMAP
70
88
F8
88
70
ENDCHAR

STARTCHAR CIRCLED DOT OPERATOR
ENCODING 8857
SWIDTH 602 0
DWIDTH 6 0
BBX 5 5 1 1
BITMAP
70
88
A8
88
70
ENDCHAR

STARTCHAR RIGHT TACK
ENCODING 8866
SWIDTH 602 0
DWIDTH 6 0
BBX 5 5 1 1
BITMAP
80
80
F8
80
80
ENDCHAR

STARTCHAR LEFT TACK
ENCODING 8867
SWIDTH 602 0
DWIDTH 6 0
BBX 5 5 1 1
BITMAP
08
08
F8
08
08
ENDCHAR

STARTCHAR DOWN TACK
ENCODING 8868
SWIDTH 602 0
DWIDTH 6 0
BBX 5 5 1 1
BITMAP
F8
20
20
20
20
ENDCHAR

STARTCHAR UP TACK
ENCODING 8869
SWIDTH 602 0
DWIDTH 6 0
BBX 5 5 1 1
BITMAP
20
20
20
20
F8
ENDCHAR

STARTCHAR DIAMOND OPERATOR
ENCODING 8900
SWIDTH 602 0
DWIDTH 6 0
BBX 5 5 1 1
BITMAP
20
50
88
50
20
ENDCHAR

STARTCHAR STAR OPERATOR
ENCODING 8902
SWIDTH 602 0
DWIDTH 6 0
BBX 5 5 1 1
BITMAP
20
A8
70
50
88
ENDCHAR

STARTCHAR HOUSE
ENCODING 8962
SWIDTH 602 0
DWIDTH 6 0
BBX 5 6 1 0
BITMAP
20
50
88
88
88
F8
ENDCHAR

STARTCHAR LEFT CEILING
ENCODING 8968
SWIDTH 602 0
DWIDTH 6 0
BBX 3 9 2 -1
BITMAP
E0
80
80
80
80
80
80
80
80
ENDCHAR

STARTCHAR RIGHT CEILING
ENCODING 8969
SWIDTH 602 0
DWIDTH 6 0
BBX 3 9 1 -1
BITMAP
E0
20
20
20
20
20
20
20
20
ENDCHAR

STARTCHAR LEFT FLOOR
ENCODING 8970
SWIDTH 602 0
DWIDTH 6 0
BBX 3 9 2 -1
BITMAP
80
80
80
80
80
80
80
80
E0
ENDCHAR

STARTCHAR RIGHT FLOOR
ENCODING 8971
SWIDTH 602 0
DWIDTH 6 0
BBX 3 9 1 -1
BITMAP
20
20
20
20
20
20
20
20
E0
ENDCHAR

STARTCHAR REVERSED NOT SIGN
ENCODING 8976
SWIDTH 602 0
DWIDTH 6 0
BBX 5 3 1 2
BITMAP
F8
80
80
ENDCHAR

STARTCHAR TOP HALF INTEGRAL
ENCODING 8992
SWIDTH 602 0
DWIDTH 6 0
BBX 3 10 2 -2
BITMAP
60
80
80
80
80
80
80
80
80
80
ENDCHAR

STARTCHAR BOTTOM HALF INTEGRAL
ENCODING 8993
SWIDTH 602 0
DWIDTH 6 0
BBX 3 11 0 -2
BITMAP
20
20
20
20
20
20
20
20
20
20
C0
ENDCHAR

STARTCHAR APL FUNCTIONAL SYMBOL I-BEAM
ENCODING 9014
SWIDTH 602 0
DWIDTH 6 0
BBX 5 7 1 0
BITMAP
F8
20
20
20
20
20
F8
ENDCHAR

STARTCHAR APL FUNCTIONAL SYMBOL SQUISH QUAD
ENCODING 9015
SWIDTH 602 0
DWIDTH 6 0
BBX 3 7 2 0
BITMAP
E0
A0
A0
A0
A0
A0
E0
ENDCHAR

STARTCHAR APL FUNCTIONAL SYMBOL QUAD EQUAL
ENCODING 9016
SWIDTH 602 0
DWIDTH 6 0
BBX 5 7 1 0
BITMAP
F8
88
F8
88
F8
88
F8
ENDCHAR

STARTCHAR APL FUNCTIONAL SYMBOL QUAD DIVIDE
ENCODING 9017
SWIDTH 602 0
DWIDTH 6 0
BBX 5 7 1 0
BITMAP
F8
88
A8
F8
A8
88
F8
ENDCHAR

STARTCHAR APL FUNCTIONAL SYMBOL QUAD DIAMOND
ENCODING 9018
SWIDTH 602 0
DWIDTH 6 0
BBX 5 7 1 0
BITMAP
F8
88
A8
D8
A8
88
F8
ENDCHAR

STARTCHAR APL FUNCTIONAL SYMBOL CIRCLE STILE
ENCODING 9021
SWIDTH 602 0
DWIDTH 6 0
BBX 5 7 1 0
BITMAP
20
70
A8
A8
A8
70
20
ENDCHAR

STARTCHAR APL FUNCTIONAL SYMBOL SLASH BAR
ENCODING 9023
SWIDTH 602 0
DWIDTH 6 0
BBX 5 5 1 1
BITMAP
08
10
F8
40
80
ENDCHAR

STARTCHAR APL FUNCTIONAL SYMBOL BACKSLASH BAR
ENCODING 9024
SWIDTH 602 0
DWIDTH 6 0
BBX 5 5 1 1
BITMAP
80
40
F8
10
08
ENDCHAR

STARTCHAR APL FUNCTIONAL SYMBOL QUAD SLASH
ENCODING 9025
SWIDTH 602 0
DWIDTH 6 0
BBX 5 7 1 0
BITMAP
F8
98
A8
A8
A8
C8
F8
ENDCHAR

STARTCHAR APL FUNCTIONAL SYMBOL QUAD LEFTWARDS ARROW
ENCODING 9031
SWIDTH 602 0
DWIDTH 6 0
BBX 5 7 1 0
BITMAP
F8
88
C8
F8
C8
88
F8
ENDCHAR

STARTCHAR APL FUNCTIONAL SYMBOL QUAD RIGHTWARDS ARROW
ENCODING 9032
SWIDTH 602 0
DWIDTH 6 0
BBX 5 7 1 0
BITMAP
F8
88
98
F8
98
88
F8
ENDCHAR

STARTCHAR APL FUNCTIONAL SYMBOL CIRCLE BACKSLASH
ENCODING 9033
SWIDTH 602 0
DWIDTH 6 0
BBX 5 5 1 1
BITMAP
B0
48
A8
90
68
ENDCHAR

STARTCHAR APL FUNCTIONAL SYMBOL DELTA STILE
ENCODING 9035
SWIDTH 602 0
DWIDTH 6 0
BBX 5 7 1 0
BITMAP
20
20
70
70
A8
A8
F8
ENDCHAR

STARTCHAR APL FUNCTIONAL SYMBOL DOWN TACK JOT
ENCODING 9038
SWIDTH 602 0
DWIDTH 6 0
BBX 5 8 1 0
BITMAP
20
70
A8
A8
A8
70
20
F8
ENDCHAR

STARTCHAR APL FUNCTIONAL SYMBOL QUAD UPWARDS ARROW
ENCODING 9040
SWIDTH 602 0
DWIDTH 6 0
BBX 5 7 1 0
BITMAP
F8
A8
F8
A8
A8
A8
F8
ENDCHAR

STARTCHAR APL FUNCTIONAL SYMBOL DEL STILE
ENCODING 9042
SWIDTH 602 0
DWIDTH 6 0
BBX 5 7 1 0
BITMAP
F8
A8
A8
70
70
20
20
ENDCHAR

STARTCHAR APL FUNCTIONAL SYMBOL UP TACK JOT
ENCODING 9045
SWIDTH 602 0
DWIDTH 6 0
BBX 5 8 1 0
BITMAP
F8
20
70
A8
A8
A8
70
20
ENDCHAR

STARTCHAR APL FUNCTIONAL SYMBOL QUAD DOWNWARDS ARROW
ENCODING 9047
SWIDTH 602 0
DWIDTH 6 0
BBX 5 7 1 0
BITMAP
F8
A8
A8
A8
F8
A8
F8
ENDCHAR

STARTCHAR APL FUNCTIONAL SYMBOL DELTA UNDERBAR
ENCODING 9049
SWIDTH 602 0
DWIDTH 6 0
BBX 5 9 1 -2
BITMAP
20
20
50
50
88
88
F8
00
F8
ENDCHAR

STARTCHAR APL FUNCTIONAL SYMBOL UP SHOE JOT
ENCODING 9053
SWIDTH 602 0
DWIDTH 6 0
BBX 5 6 1 0
BITMAP
70
88
88
F8
88
88
ENDCHAR

STARTCHAR APL FUNCTIONAL SYMBOL QUOTE QUAD
ENCODING 9054
SWIDTH 602 0
DWIDTH 6 0
BBX 5 7 1 0
BITMAP
F8
A8
A8
88
88
88
F8
ENDCHAR

STARTCHAR APL FUNCTIONAL SYMBOL CIRCLE STAR
ENCODING 9055
SWIDTH 602 0
DWIDTH 6 0
BBX 5 5 1 1
BITMAP
70
D8
A8
D8
70
ENDCHAR

STARTCHAR APL FUNCTIONAL SYMBOL QUAD COLON
ENCODING 9056
SWIDTH 602 0
DWIDTH 6 0
BBX 5 7 1 0
BITMAP
F8
88
A8
88
A8
88
F8
ENDCHAR

STARTCHAR APL FUNCTIONAL SYMBOL UP TACK DIAERESIS
ENCODING 9057
SWIDTH 602 0
DWIDTH 6 0
BBX 5 7 1 0
BITMAP
50
00
F8
20
20
20
20
ENDCHAR

STARTCHAR APL FUNCTIONAL SYMBOL STAR DIAERESIS
ENCODING 9059
SWIDTH 602 0
DWIDTH 6 0
BBX 5 7 1 0
BITMAP
50
00
20
A8
70
50
88
ENDCHAR

STARTCHAR APL FUNCTIONAL SYMBOL JOT DIAERESIS
ENCODING 9060
SWIDTH 602 0
DWIDTH 6 0
BBX 3 5 2 2
BITMAP
A0
00
40
A0
40
ENDCHAR

STARTCHAR APL FUNCTIONAL SYMBOL DOWN SHOE STILE
ENCODING 9062
SWIDTH 602 0
DWIDTH 6 0
BBX 5 7 1 0
BITMAP
20
20
A8
A8
70
20
20
ENDCHAR

STARTCHAR APL FUNCTIONAL SYMBOL TILDE DIAERESIS
ENCODING 9064
SWIDTH 602 0
DWIDTH 6 0
BBX 6 4 0 3
BITMAP
50
00
64
98
ENDCHAR

STARTCHAR APL FUNCTIONAL SYMBOL COMMA BAR
ENCODING 9066
SWIDTH 602 0
DWIDTH 6 0
BBX 5 6 1 -2
BITMAP
F8
00
20
20
20
40
ENDCHAR

STARTCHAR APL FUNCTIONAL SYMBOL DEL TILDE
ENCODING 9067
SWIDTH 602 0
DWIDTH 6 0
BBX 6 8 0 0
BITMAP
64
98
00
7C
44
28
28
10
ENDCHAR

STARTCHAR APL FUNCTIONAL SYMBOL ZILDE
ENCODING 9068
SWIDTH 602 0
DWIDTH 6 0
BBX 6 7 0 0
BITMAP
38
44
44
64
DC
44
38
ENDCHAR

STARTCHAR APL FUNCTIONAL SYMBOL STILE TILDE
ENCODING 9069
SWIDTH 602 0
DWIDTH 6 0
BBX 6 6 0 0
BITMAP
20
20
64
98
20
20
ENDCHAR

STARTCHAR APL FUNCTIONAL SYMBOL DOWN CARET TILDE
ENCODING 9073
SWIDTH 602 0
DWIDTH 6 0
BBX 6 7 0 0
BITMAP
64
98
00
44
28
28
10
ENDCHAR

STARTCHAR APL FUNCTIONAL SYMBOL UP CARET TILDE
ENCODING 9074
SWIDTH 602 0
DWIDTH 6 0
BBX 6 7 0 0
BITMAP
64
98
00
10
28
28
44
ENDCHAR

STARTCHAR APL FUNCTIONAL SYMBOL IOTA
ENCODING 9075
SWIDTH 602 0
DWIDTH 6 0
BBX 4 6 1 0
BITMAP
C0
40
40
40
40
30
ENDCHAR

STARTCHAR APL FUNCTIONAL SYMBOL RHO
ENCODING 9076
SWIDTH 602 0
DWIDTH 6 0
BBX 4 8 1 -2
BITMAP
20
50
90
90
90
E0
80
80
ENDCHAR

STARTCHAR APL FUNCTIONAL SYMBOL OMEGA
ENCODING 9077
SWIDTH 602 0
DWIDTH 6 0
BBX 5 6 1 0
BITMAP
50
88
88
A8
50
50
ENDCHAR

STARTCHAR APL FUNCTIONAL SYMBOL ALPHA UNDERBAR
ENCODING 9078
SWIDTH 602 0
DWIDTH 6 0
BBX 5 8 1 -2
BITMAP
68
90
90
90
90
68
00
F8
ENDCHAR

STARTCHAR APL FUNCTIONAL SYMBOL EPSILON UNDERBAR
ENCODING 9079
SWIDTH 602 0
DWIDTH 6 0
BBX 4 8 1 -2
BITMAP
70
80
60
80
80
70
00
F0
ENDCHAR

STARTCHAR APL FUNCTIONAL SYMBOL IOTA UNDERBAR
ENCODING 9080
SWIDTH 602 0
DWIDTH 6 0
BBX 4 8 1 -2
BITMAP
C0
40
40
40
40
30
00
F0
ENDCHAR

STARTCHAR APL FUNCTIONAL SYMBOL OMEGA UNDERBAR
ENCODING 9081
SWIDTH 602 0
DWIDTH 6 0
BBX 5 8 1 -2
BITMAP
50
88
88
A8
50
50
00
F8
ENDCHAR

STARTCHAR APL FUNCTIONAL SYMBOL ALPHA
ENCODING 9082
SWIDTH 602 0
DWIDTH 6 0
BBX 5 6 1 0
BITMAP
68
90
90
90
90
68
ENDCHAR

STARTCHAR APL FUNCTIONAL SYMBOL QUAD
ENCODING 9109
SWIDTH 602 0
DWIDTH 6 0
BBX 5 7 1 0
BITMAP
F8
88
88
88
88
88
F8
ENDCHAR

STARTCHAR FORMS LIGHT HORIZONTAL
ENCODING 9472
SWIDTH 602 0
DWIDTH 6 0
BBX 6 1 0 3
BITMAP
FC
ENDCHAR

STARTCHAR FORMS HEAVY HORIZONTAL
ENCODING 9473
SWIDTH 602 0
DWIDTH 6 0
BBX 6 3 0 2
BITMAP
FC
FC
FC
ENDCHAR

STARTCHAR FORMS LIGHT VERTICAL
ENCODING 9474
SWIDTH 602 0
DWIDTH 6 0
BBX 1 11 2 -2
BITMAP
80
80
80
80
80
80
80
80
80
80
80
ENDCHAR

STARTCHAR FORMS HEAVY VERTICAL
ENCODING 9475
SWIDTH 602 0
DWIDTH 6 0
BBX 3 11 1 -2
BITMAP
E0
E0
E0
E0
E0
E0
E0
E0
E0
E0
E0
ENDCHAR

STARTCHAR FORMS LIGHT DOWN AND RIGHT
ENCODING 9484
SWIDTH 602 0
DWIDTH 6 0
BBX 4 6 2 -2
BITMAP
F0
80
80
80
80
80
ENDCHAR

STARTCHAR FORMS DOWN LIGHT AND RIGHT HEAVY
ENCODING 9485
SWIDTH 602 0
DWIDTH 6 0
BBX 5 7 1 -2
BITMAP
F8
F8
F8
40
40
40
40
ENDCHAR

STARTCHAR FORMS DOWN HEAVY AND RIGHT LIGHT
ENCODING 9486
SWIDTH 602 0
DWIDTH 6 0
BBX 5 7 1 -2
BITMAP
E0
F8
E0
E0
E0
E0
E0
ENDCHAR

STARTCHAR FORMS HEAVY DOWN AND RIGHT
ENCODING 9487
SWIDTH 602 0
DWIDTH 6 0
BBX 5 7 1 -2
BITMAP
F8
F8
F8
E0
E0
E0
E0
ENDCHAR

STARTCHAR FORMS LIGHT DOWN AND LEFT
ENCODING 9488
SWIDTH 602 0
DWIDTH 6 0
BBX 3 6 0 -2
BITMAP
E0
20
20
20
20
20
ENDCHAR

STARTCHAR FORMS DOWN LIGHT AND LEFT HEAVY
ENCODING 9489
SWIDTH 602 0
DWIDTH 6 0
BBX 4 7 0 -2
BITMAP
F0
F0
F0
20
20
20
20
ENDCHAR

STARTCHAR FORMS DOWN HEAVY AND LEFT LIGHT
ENCODING 9490
SWIDTH 602 0
DWIDTH 6 0
BBX 4 7 0 -2
BITMAP
70
F0
70
70
70
70
70
ENDCHAR

STARTCHAR FORMS HEAVY DOWN AND LEFT
ENCODING 9491
SWIDTH 602 0
DWIDTH 6 0
BBX 4 7 0 -2
BITMAP
F0
F0
F0
70
70
70
70
ENDCHAR

STARTCHAR FORMS LIGHT UP AND RIGHT
ENCODING 9492
SWIDTH 602 0
DWIDTH 6 0
BBX 4 6 2 3
BITMAP
80
80
80
80
80
F0
ENDCHAR

STARTCHAR FORMS UP LIGHT AND RIGHT HEAVY
ENCODING 9493
SWIDTH 602 0
DWIDTH 6 0
BBX 5 7 1 2
BITMAP
40
40
40
40
F8
F8
F8
ENDCHAR

STARTCHAR FORMS UP HEAVY AND RIGHT LIGHT
ENCODING 9494
SWIDTH 602 0
DWIDTH 6 0
BBX 5 7 1 2
BITMAP
E0
E0
E0
E0
E0
F8
E0
ENDCHAR

STARTCHAR FORMS HEAVY UP AND RIGHT
ENCODING 9495
SWIDTH 602 0
DWIDTH 6 0
BBX 5 7 1 2
BITMAP
E0
E0
E0
E0
F8
F8
F8
ENDCHAR

STARTCHAR FORMS LIGHT UP AND LEFT
ENCODING 9496
SWIDTH 602 0
DWIDTH 6 0
BBX 3 6 0 3
BITMAP
20
20
20
20
20
E0
ENDCHAR

STARTCHAR FORMS UP LIGHT AND LEFT HEAVY
ENCODING 9497
SWIDTH 602 0
DWIDTH 6 0
BBX 4 7 0 2
BITMAP
20
20
20
20
F0
F0
F0
ENDCHAR

STARTCHAR FORMS UP HEAVY AND LEFT LIGHT
ENCODING 9498
SWIDTH 602 0
DWIDTH 6 0
BBX 4 7 0 2
BITMAP
70
70
70
70
70
F0
70
ENDCHAR

STARTCHAR FORMS HEAVY UP AND LEFT
ENCODING 9499
SWIDTH 602 0
DWIDTH 6 0
BBX 4 7 0 2
BITMAP
70
70
70
70
F0
F0
F0
ENDCHAR

STARTCHAR FORMS LIGHT VERTICAL AND RIGHT
ENCODING 9500
SWIDTH 602 0
DWIDTH 6 0
BBX 4 11 2 -2
BITMAP
80
80
80
80
80
F0
80
80
80
80
80
ENDCHAR

STARTCHAR FORMS VERTICAL LIGHT AND RIGHT HEAVY
ENCODING 9501
SWIDTH 602 0
DWIDTH 6 0
BBX 5 11 1 -2
BITMAP
40
40
40
40
F8
F8
F8
40
40
40
40
ENDCHAR

STARTCHAR FORMS UP HEAVY AND RIGHT DOWN LIGHT
ENCODING 9502
SWIDTH 602 0
DWIDTH 6 0
BBX 5 11 1 -2
BITMAP
E0
E0
E0
E0
E0
F8
E0
40
40
40
40
ENDCHAR

STARTCHAR FORMS DOWN HEAVY AND RIGHT UP LIGHT
ENCODING 9503
SWIDTH 602 0
DWIDTH 6 0
BBX 5 11 1 -2
BITMAP
40
40
40
40
E0
F8
E0
E0
E0
E0
E0
ENDCHAR

STARTCHAR FORMS VERTICAL HEAVY AND RIGHT LIGHT
ENCODING 9504
SWIDTH 602 0
DWIDTH 6 0
BBX 5 11 1 -2
BITMAP
E0
E0
E0
E0
E0
F8
E0
E0
E0
E0
E0
ENDCHAR

STARTCHAR FORMS DOWN LIGHT AND RIGHT UP HEAVY
ENCODING 9505
SWIDTH 602 0
DWIDTH 6 0
BBX 5 11 1 -2
BITMAP
E0
E0
E0
E0
F8
F8
F8
40
40
40
40
ENDCHAR

STARTCHAR FORMS UP LIGHT AND RIGHT DOWN HEAVY
ENCODING 9506
SWIDTH 602 0
DWIDTH 6 0
BBX 5 11 1 -2
BITMAP
40
40
40
40
F8
F8
F8
E0
E0
E0
E0
ENDCHAR

STARTCHAR FORMS HEAVY VERTICAL AND RIGHT
ENCODING 9507
SWIDTH 602 0
DWIDTH 6 0
BBX 5 11 1 -2
BITMAP
E0
E0
E0
E0
F8
F8
F8
E0
E0
E0
E0
ENDCHAR

STARTCHAR FORMS LIGHT VERTICAL AND LEFT
ENCODING 9508
SWIDTH 602 0
DWIDTH 6 0
BBX 3 11 0 -2
BITMAP
20
20
20
20
20
E0
20
20
20
20
20
ENDCHAR

STARTCHAR FORMS VERTICAL LIGHT AND LEFT HEAVY
ENCODING 9509
SWIDTH 602 0
DWIDTH 6 0
BBX 4 11 0 -2
BITMAP
20
20
20
20
F0
F0
F0
20
20
20
20
ENDCHAR

STARTCHAR FORMS UP HEAVY AND LEFT DOWN LIGHT
ENCODING 9510
SWIDTH 602 0
DWIDTH 6 0
BBX 4 11 0 -2
BITMAP
70
70
70
70
70
F0
70
20
20
20
20
ENDCHAR

STARTCHAR FORMS DOWN HEAVY AND LEFT UP LIGHT
ENCODING 9511
SWIDTH 602 0
DWIDTH 6 0
BBX 4 11 0 -2
BITMAP
20
20
20
20
70
F0
70
70
70
70
70
ENDCHAR

STARTCHAR FORMS VERTICAL HEAVY AND LEFT LIGHT
ENCODING 9512
SWIDTH 602 0
DWIDTH 6 0
BBX 4 11 0 -2
BITMAP
70
70
70
70
70
F0
70
70
70
70
70
ENDCHAR

STARTCHAR FORMS DOWN LIGHT AND LEFT UP HEAVY
ENCODING 9513
SWIDTH 602 0
DWIDTH 6 0
BBX 4 11 0 -2
BITMAP
70
70
70
70
F0
F0
F0
20
20
20
20
ENDCHAR

STARTCHAR FORMS UP LIGHT AND LEFT DOWN HEAVY
ENCODING 9514
SWIDTH 602 0
DWIDTH 6 0
BBX 4 11 0 -2
BITMAP
20
20
20
20
F0
F0
F0
70
70
70
70
ENDCHAR

STARTCHAR FORMS HEAVY VERTICAL AND LEFT
ENCODING 9515
SWIDTH 602 0
DWIDTH 6 0
BBX 4 11 0 -2
BITMAP
70
70
70
70
F0
F0
F0
70
70
70
70
ENDCHAR

STARTCHAR FORMS LIGHT DOWN AND HORIZONTAL
ENCODING 9516
SWIDTH 602 0
DWIDTH 6 0
BBX 6 6 0 -2
BITMAP
FC
20
20
20
20
20
ENDCHAR

STARTCHAR FORMS LEFT HEAVY AND RIGHT DOWN LIGHT
ENCODING 9517
SWIDTH 602 0
DWIDTH 6 0
BBX 6 7 0 -2
BITMAP
F0
FC
F0
20
20
20
20
ENDCHAR

STARTCHAR FORMS RIGHT HEAVY AND LEFT DOWN LIGHT
ENCODING 9518
SWIDTH 602 0
DWIDTH 6 0
BBX 6 7 0 -2
BITMAP
7C
FC
7C
20
20
20
20
ENDCHAR

STARTCHAR FORMS DOWN LIGHT AND HORIZONTAL HEAVY
ENCODING 9519
SWIDTH 602 0
DWIDTH 6 0
BBX 6 7 0 -2
BITMAP
FC
FC
FC
20
20
20
20
ENDCHAR

STARTCHAR FORMS DOWN HEAVY AND HORIZONTAL LIGHT
ENCODING 9520
SWIDTH 602 0
DWIDTH 6 0
BBX 6 7 0 -2
BITMAP
70
FC
70
70
70
70
70
ENDCHAR

STARTCHAR FORMS RIGHT LIGHT AND LEFT DOWN HEAVY
ENCODING 9521
SWIDTH 602 0
DWIDTH 6 0
BBX 6 7 0 -2
BITMAP
F0
FC
F0
70
70
70
70
ENDCHAR

STARTCHAR FORMS LEFT LIGHT AND RIGHT DOWN HEAVY
ENCODING 9522
SWIDTH 602 0
DWIDTH 6 0
BBX 6 7 0 -2
BITMAP
7C
FC
7C
70
70
70
70
ENDCHAR

STARTCHAR FORMS HEAVY DOWN AND HORIZONTAL
ENCODING 9523
SWIDTH 602 0
DWIDTH 6 0
BBX 6 7 0 -2
BITMAP
FC
FC
FC
70
70
70
70
ENDCHAR

STARTCHAR FORMS LIGHT UP AND HORIZONTAL
ENCODING 9524
SWIDTH 602 0
DWIDTH 6 0
BBX 6 6 0 3
BITMAP
20
20
20
20
20
FC
ENDCHAR

STARTCHAR FORMS LEFT HEAVY AND RIGHT UP LIGHT
ENCODING 9525
SWIDTH 602 0
DWIDTH 6 0
BBX 6 7 0 2
BITMAP
20
20
20
20
F0
FC
F0
ENDCHAR

STARTCHAR FORMS RIGHT HEAVY AND LEFT UP LIGHT
ENCODING 9526
SWIDTH 602 0
DWIDTH 6 0
BBX 6 7 0 2
BITMAP
20
20
20
20
7C
FC
7C
ENDCHAR

STARTCHAR FORMS UP LIGHT AND HORIZONTAL HEAVY
ENCODING 9527
SWIDTH 602 0
DWIDTH 6 0
BBX 6 7 0 2
BITMAP
20
20
20
20
FC
FC
FC
ENDCHAR

STARTCHAR FORMS UP HEAVY AND HORIZONTAL LIGHT
ENCODING 9528
SWIDTH 602 0
DWIDTH 6 0
BBX 6 7 0 2
BITMAP
70
70
70
70
70
FC
70
ENDCHAR

STARTCHAR FORMS RIGHT LIGHT AND LEFT UP HEAVY
ENCODING 9529
SWIDTH 602 0
DWIDTH 6 0
BBX 6 7 0 2
BITMAP
70
70
70
70
F0
FC
F0
ENDCHAR

STARTCHAR FORMS LEFT LIGHT AND RIGHT UP HEAVY
ENCODING 9530
SWIDTH 602 0
DWIDTH 6 0
BBX 6 7 0 2
BITMAP
70
70
70
70
7C
FC
7C
ENDCHAR

STARTCHAR FORMS HEAVY UP AND HORIZONTAL
ENCODING 9531
SWIDTH 602 0
DWIDTH 6 0
BBX 6 7 0 2
BITMAP
70
70
70
70
FC
FC
FC
ENDCHAR

STARTCHAR FORMS LIGHT VERTICAL AND HORIZONTAL
ENCODING 9532
SWIDTH 602 0
DWIDTH 6 0
BBX 6 11 0 -2
BITMAP
20
20
20
20
20
FC
20
20
20
20
20
ENDCHAR

STARTCHAR FORMS LEFT HEAVY AND RIGHT VERTICAL LIGHT
ENCODING 9533
SWIDTH 602 0
DWIDTH 6 0
BBX 6 11 0 -2
BITMAP
20
20
20
20
F0
FC
F0
20
20
20
20
ENDCHAR

STARTCHAR FORMS RIGHT HEAVY AND LEFT VERTICAL LIGHT
ENCODING 9534
SWIDTH 602 0
DWIDTH 6 0
BBX 6 11 0 -2
BITMAP
20
20
20
20
7C
FC
7C
20
20
20
20
ENDCHAR

STARTCHAR FORMS VERTICAL LIGHT AND HORIZONTAL HEAVY
ENCODING 9535
SWIDTH 602 0
DWIDTH 6 0
BBX 6 11 0 -2
BITMAP
20
20
20
20
FC
FC
FC
20
20
20
20
ENDCHAR

STARTCHAR FORMS UP HEAVY AND DOWN HORIZONTAL LIGHT
ENCODING 9536
SWIDTH 602 0
DWIDTH 6 0
BBX 6 11 0 -2
BITMAP
70
70
70
70
70
FC
70
20
20
20
20
ENDCHAR

STARTCHAR FORMS DOWN HEAVY AND UP HORIZONTAL LIGHT
ENCODING 9537
SWIDTH 602 0
DWIDTH 6 0
BBX 6 11 0 -2
BITMAP
20
20
20
20
70
FC
70
70
70
70
70
ENDCHAR

STARTCHAR FORMS VERTICAL HEAVY AND HORIZONTAL LIGHT
ENCODING 9538
SWIDTH 602 0
DWIDTH 6 0
BBX 6 11 0 -2
BITMAP
70
70
70
70
70
FC
70
70
70
70
70
ENDCHAR

STARTCHAR FORMS LEFT UP HEAVY AND RIGHT DOWN LIGHT
ENCODING 9539
SWIDTH 602 0
DWIDTH 6 0
BBX 6 11 0 -2
BITMAP
70
70
70
70
F0
FC
F0
20
20
20
20
ENDCHAR

STARTCHAR FORMS RIGHT UP HEAVY AND LEFT DOWN LIGHT
ENCODING 9540
SWIDTH 602 0
DWIDTH 6 0
BBX 6 11 0 -2
BITMAP
70
70
70
70
7C
FC
7C
20
20
20
20
ENDCHAR

STARTCHAR FORMS LEFT DOWN HEAVY AND RIGHT UP LIGHT
ENCODING 9541
SWIDTH 602 0
DWIDTH 6 0
BBX 6 11 0 -2
BITMAP
20
20
20
20
F0
FC
F0
70
70
70
70
ENDCHAR

STARTCHAR FORMS RIGHT DOWN HEAVY AND LEFT UP LIGHT
ENCODING 9542
SWIDTH 602 0
DWIDTH 6 0
BBX 6 11 0 -2
BITMAP
20
20
20
20
7C
FC
7C
70
70
70
70
ENDCHAR

STARTCHAR FORMS DOWN LIGHT AND UP HORIZONTAL HEAVY
ENCODING 9543
SWIDTH 602 0
DWIDTH 6 0
BBX 6 11 0 -2
BITMAP
70
70
70
70
FC
FC
FC
20
20
20
20
ENDCHAR

STARTCHAR FORMS UP LIGHT AND DOWN HORIZONTAL HEAVY
ENCODING 9544
SWIDTH 602 0
DWIDTH 6 0
BBX 6 11 0 -2
BITMAP
20
20
20
20
FC
FC
FC
70
70
70
70
ENDCHAR

STARTCHAR FORMS RIGHT LIGHT AND LEFT VERTICAL HEAVY
ENCODING 9545
SWIDTH 602 0
DWIDTH 6 0
BBX 6 11 0 -2
BITMAP
70
70
70
70
F0
FC
F0
70
70
70
70
ENDCHAR

STARTCHAR FORMS LEFT LIGHT AND RIGHT VERTICAL HEAVY
ENCODING 9546
SWIDTH 602 0
DWIDTH 6 0
BBX 6 11 0 -2
BITMAP
70
70
70
70
7C
FC
7C
70
70
70
70
ENDCHAR

STARTCHAR FORMS HEAVY VERTICAL AND HORIZONTAL
ENCODING 9547
SWIDTH 602 0
DWIDTH 6 0
BBX 6 11 0 -2
BITMAP
70
70
70
70
FC
FC
FC
70
70
70
70
ENDCHAR

STARTCHAR FORMS LIGHT DOUBLE DASH HORIZONTAL
ENCODING 9548
SWIDTH 602 0
DWIDTH 6 0
BBX 6 1 0 3
BITMAP
DC
ENDCHAR

STARTCHAR FORMS HEAVY DOUBLE DASH HORIZONTAL
ENCODING 9549
SWIDTH 602 0
DWIDTH 6 0
BBX 6 3 0 2
BITMAP
DC
DC
DC
ENDCHAR

STARTCHAR FORMS LIGHT DOUBLE DASH VERTICAL
ENCODING 9550
SWIDTH 602 0
DWIDTH 6 0
BBX 1 11 2 -2
BITMAP
80
80
80
80
80
00
80
80
80
80
80
ENDCHAR

STARTCHAR FORMS HEAVY DOUBLE DASH VERTICAL
ENCODING 9551
SWIDTH 602 0
DWIDTH 6 0
BBX 3 11 1 -2
BITMAP
E0
E0
E0
E0
E0
00
E0
E0
E0
E0
E0
ENDCHAR

STARTCHAR FORMS DOUBLE HORIZONTAL
ENCODING 9552
SWIDTH 602 0
DWIDTH 6 0
BBX 6 3 0 2
BITMAP
FC
00
FC
ENDCHAR

STARTCHAR FORMS DOUBLE VERTICAL
ENCODING 9553
SWIDTH 602 0
DWIDTH 6 0
BBX 3 11 1 -2
BITMAP
A0
A0
A0
A0
A0
A0
A0
A0
A0
A0
A0
ENDCHAR

STARTCHAR FORMS DOWN SINGLE AND RIGHT DOUBLE
ENCODING 9554
SWIDTH 602 0
DWIDTH 6 0
BBX 4 7 2 -2
BITMAP
F0
80
F0
80
80
80
80
ENDCHAR

STARTCHAR FORMS DOWN DOUBLE AND RIGHT SINGLE
ENCODING 9555
SWIDTH 602 0
DWIDTH 6 0
BBX 5 6 1 -2
BITMAP
F8
A0
A0
A0
A0
A0
ENDCHAR

STARTCHAR FORMS DOUBLE DOWN AND RIGHT
ENCODING 9556
SWIDTH 602 0
DWIDTH 6 0
BBX 5 7 1 -2
BITMAP
F8
80
B8
A0
A0
A0
A0
ENDCHAR

STARTCHAR FORMS DOWN SINGLE AND LEFT DOUBLE
ENCODING 9557
SWIDTH 602 0
DWIDTH 6 0
BBX 3 7 0 -2
BITMAP
E0
20
E0
20
20
20
20
ENDCHAR

STARTCHAR FORMS DOWN DOUBLE AND LEFT SINGLE
ENCODING 9558
SWIDTH 602 0
DWIDTH 6 0
BBX 4 6 0 -2
BITMAP
F0
50
50
50
50
50
ENDCHAR

STARTCHAR FORMS DOUBLE DOWN AND LEFT
ENCODING 9559
SWIDTH 602 0
DWIDTH 6 0
BBX 4 7 0 -2
BITMAP
F0
10
D0
50
50
50
50
ENDCHAR

STARTCHAR FORMS UP SINGLE AND RIGHT DOUBLE
ENCODING 9560
SWIDTH 602 0
DWIDTH 6 0
BBX 4 7 2 2
BITMAP
80
80
80
80
F0
80
F0
ENDCHAR

STARTCHAR FORMS UP DOUBLE AND RIGHT SINGLE
ENCODING 9561
SWIDTH 602 0
DWIDTH 6 0
BBX 5 6 1 3
BITMAP
A0
A0
A0
A0
A0
F8
ENDCHAR

STARTCHAR FORMS DOUBLE UP AND RIGHT
ENCODING 9562
SWIDTH 602 0
DWIDTH 6 0
BBX 5 7 1 2
BITMAP
A0
A0
A0
A0
B8
80
F8
ENDCHAR

STARTCHAR FORMS UP SINGLE AND LEFT DOUBLE
ENCODING 9563
SWIDTH 602 0
DWIDTH 6 0
BBX 3 7 0 2
BITMAP
20
20
20
20
E0
20
E0
ENDCHAR

STARTCHAR FORMS UP DOUBLE AND LEFT SINGLE
ENCODING 9564
SWIDTH 602 0
DWIDTH 6 0
BBX 4 6 0 3
BITMAP
50
50
50
50
50
F0
ENDCHAR

STARTCHAR FORMS DOUBLE UP AND LEFT
ENCODING 9565
SWIDTH 602 0
DWIDTH 6 0
BBX 4 7 0 2
BITMAP
50
50
50
50
D0
10
F0
ENDCHAR

STARTCHAR FORMS VERTICAL SINGLE AND RIGHT DOUBLE
ENCODING 9566
SWIDTH 602 0
DWIDTH 6 0
BBX 4 11 2 -2
BITMAP
80
80
80
80
F0
80
F0
80
80
80
80
ENDCHAR

STARTCHAR FORMS VERTICAL DOUBLE AND RIGHT SINGLE
ENCODING 9567
SWIDTH 602 0
DWIDTH 6 0
BBX 5 11 1 -2
BITMAP
A0
A0
A0
A0
A0
B8
A0
A0
A0
A0
A0
ENDCHAR

STARTCHAR FORMS DOUBLE VERTICAL AND RIGHT
ENCODING 9568
SWIDTH 602 0
DWIDTH 6 0
BBX 5 11 1 -2
BITMAP
A0
A0
A0
A0
B8
80
B8
A0
A0
A0
A0
ENDCHAR

STARTCHAR FORMS VERTICAL SINGLE AND LEFT DOUBLE
ENCODING 9569
SWIDTH 602 0
DWIDTH 6 0
BBX 3 11 0 -2
BITMAP
20
20
20
20
E0
20
E0
20
20
20
20
ENDCHAR

STARTCHAR FORMS VERTICAL DOUBLE AND LEFT SINGLE
ENCODING 9570
SWIDTH 602 0
DWIDTH 6 0
BBX 4 11 0 -2
BITMAP
50
50
50
50
50
D0
50
50
50
50
50
ENDCHAR

STARTCHAR FORMS DOUBLE VERTICAL AND LEFT
ENCODING 9571
SWIDTH 602 0
DWIDTH 6 0
BBX 4 11 0 -2
BITMAP
50
50
50
50
D0
10
D0
50
50
50
50
ENDCHAR

STARTCHAR FORMS DOWN SINGLE AND HORIZONTAL DOUBLE
ENCODING 9572
SWIDTH 602 0
DWIDTH 6 0
BBX 6 7 0 -2
BITMAP
FC
00
FC
20
20
20
20
ENDCHAR

STARTCHAR FORMS DOWN DOUBLE AND HORIZONTAL SINGLE
ENCODING 9573
SWIDTH 602 0
DWIDTH 6 0
BBX 6 6 0 -2
BITMAP
FC
50
50
50
50
50
ENDCHAR

STARTCHAR FORMS DOUBLE DOWN AND HORIZONTAL
ENCODING 9574
SWIDTH 602 0
DWIDTH 6 0
BBX 6 7 0 -2
BITMAP
FC
00
DC
50
50
50
50
ENDCHAR

STARTCHAR FORMS UP SINGLE AND HORIZONTAL DOUBLE
ENCODING 9575
SWIDTH 602 0
DWIDTH 6 0
BBX 6 7 0 2
BITMAP
20
20
20
20
FC
00
FC
ENDCHAR

STARTCHAR FORMS UP DOUBLE AND HORIZONTAL SINGLE
ENCODING 9576
SWIDTH 602 0
DWIDTH 6 0
BBX 6 6 0 3
BITMAP
50
50
50
50
50
FC
ENDCHAR

STARTCHAR FORMS DOUBLE UP AND HORIZONTAL
ENCODING 9577
SWIDTH 602 0
DWIDTH 6 0
BBX 6 7 0 2
BITMAP
50
50
50
50
DC
00
FC
ENDCHAR

STARTCHAR FORMS VERTICAL SINGLE AND HORIZONTAL DOUBLE
ENCODING 9578
SWIDTH 602 0
DWIDTH 6 0
BBX 6 11 0 -2
BITMAP
20
20
20
20
FC
20
FC
20
20
20
20
ENDCHAR

STARTCHAR FORMS VERTICAL DOUBLE AND HORIZONTAL SINGLE
ENCODING 9579
SWIDTH 602 0
DWIDTH 6 0
BBX 6 11 0 -2
BITMAP
50
50
50
50
50
FC
50
50
50
50
50
ENDCHAR

STARTCHAR FORMS DOUBLE VERTICAL AND HORIZONTAL
ENCODING 9580
SWIDTH 602 0
DWIDTH 6 0
BBX 6 11 0 -2
BITMAP
50
50
50
50
DC
00
DC
50
50
50
50
ENDCHAR

STARTCHAR FORMS LIGHT LEFT
ENCODING 9588
SWIDTH 602 0
DWIDTH 6 0
BBX 3 1 0 3
BITMAP
E0
ENDCHAR

STARTCHAR FORMS LIGHT UP
ENCODING 9589
SWIDTH 602 0
DWIDTH 6 0
BBX 1 6 2 3
BITMAP
80
80
80
80
80
80
ENDCHAR

STARTCHAR FORMS LIGHT RIGHT
ENCODING 9590
SWIDTH 602 0
DWIDTH 6 0
BBX 4 1 2 3
BITMAP
F0
ENDCHAR

STARTCHAR FORMS LIGHT DOWN
ENCODING 9591
SWIDTH 602 0
DWIDTH 6 0
BBX 1 6 2 -2
BITMAP
80
80
80
80
80
80
ENDCHAR

STARTCHAR FORMS HEAVY LEFT
ENCODING 9592
SWIDTH 602 0
DWIDTH 6 0
BBX 4 3 0 2
BITMAP
F0
F0
F0
ENDCHAR

STARTCHAR FORMS HEAVY UP
ENCODING 9593
SWIDTH 602 0
DWIDTH 6 0
BBX 3 7 1 2
BITMAP
E0
E0
E0
E0
E0
E0
E0
ENDCHAR

STARTCHAR FORMS HEAVY RIGHT
ENCODING 9594
SWIDTH 602 0
DWIDTH 6 0
BBX 5 3 1 2
BITMAP
F8
F8
F8
ENDCHAR

STARTCHAR FORMS HEAVY DOWN
ENCODING 9595
SWIDTH 602 0
DWIDTH 6 0
BBX 3 7 1 -2
BITMAP
E0
E0
E0
E0
E0
E0
E0
ENDCHAR

STARTCHAR FORMS LIGHT LEFT AND HEAVY RIGHT
ENCODING 9596
SWIDTH 602 0
DWIDTH 6 0
BBX 6 3 0 2
BITMAP
7C
FC
7C
ENDCHAR

STARTCHAR FORMS LIGHT UP AND HEAVY DOWN
ENCODING 9597
SWIDTH 602 0
DWIDTH 6 0
BBX 3 11 1 -2
BITMAP
40
40
40
40
E0
E0
E0
E0
E0
E0
E0
ENDCHAR

STARTCHAR FORMS HEAVY LEFT AND LIGHT RIGHT
ENCODING 9598
SWIDTH 602 0
DWIDTH 6 0
BBX 6 3 0 2
BITMAP
F0
FC
F0
ENDCHAR

STARTCHAR FORMS HEAVY UP AND LIGHT DOWN
ENCODING 9599
SWIDTH 602 0
DWIDTH 6 0
BBX 3 11 1 -2
BITMAP
E0
E0
E0
E0
E0
E0
E0
40
40
40
40
ENDCHAR

STARTCHAR UPPER HALF BLOCK
ENCODING 9600
SWIDTH 602 0
DWIDTH 6 0
BBX 6 6 0 4
BITMAP
FC
FC
FC
FC
FC
FC
ENDCHAR

STARTCHAR LOWER ONE EIGHTH BLOCK
ENCODING 9601
SWIDTH 602 0
DWIDTH 6 0
BBX 6 2 0 -2
BITMAP
FC
FC
ENDCHAR

STARTCHAR LOWER ONE QUARTER BLOCK
ENCODING 9602
SWIDTH 602 0
DWIDTH 6 0
BBX 6 3 0 -2
BITMAP
FC
FC
FC
ENDCHAR

STARTCHAR LOWER THREE EIGHTHS BLOCK
ENCODING 9603
SWIDTH 602 0
DWIDTH 6 0
BBX 6 5 0 -2
BITMAP
FC
FC
FC
FC
FC
ENDCHAR

STARTCHAR LOWER HALF BLOCK
ENCODING 9604
SWIDTH 602 0
DWIDTH 6 0
BBX 6 6 0 -2
BITMAP
FC
FC
FC
FC
FC
FC
ENDCHAR

STARTCHAR LOWER FIVE EIGHTHS BLOCK
ENCODING 9605
SWIDTH 602 0
DWIDTH 6 0
BBX 6 8 0 -2
BITMAP
FC
FC
FC
FC
FC
FC
FC
FC
ENDCHAR

STARTCHAR LOWER THREE QUARTER BLOCK
ENCODING 9606
SWIDTH 602 0
DWIDTH 6 0
BBX 6 9 0 -2
BITMAP
FC
FC
FC
FC
FC
FC
FC
FC
FC
ENDCHAR

STARTCHAR LOWER SEVEN EIGHTHS BLOCK
ENCODING 9607
SWIDTH 602 0
DWIDTH 6 0
BBX 6 11 0 -2
BITMAP
FC
FC
FC
FC
FC
FC
FC
FC
FC
FC
FC
ENDCHAR

STARTCHAR FULL BLOCK
ENCODING 9608
SWIDTH 602 0
DWIDTH 6 0
BBX 6 12 0 -2
BITMAP
FC
FC
FC
FC
FC
FC
FC
FC
FC
FC
FC
FC
ENDCHAR

STARTCHAR LEFT SEVEN EIGHTHS BLOCK
ENCODING 9609
SWIDTH 602 0
DWIDTH 6 0
BBX 5 12 0 -2
BITMAP
F8
F8
F8
F8
F8
F8
F8
F8
F8
F8
F8
F8
ENDCHAR

STARTCHAR LEFT THREE QUARTER BLOCK
ENCODING 9610
SWIDTH 602 0
DWIDTH 6 0
BBX 5 12 0 -2
BITMAP
F8
F8
F8
F8
F8
F8
F8
F8
F8
F8
F8
F8
ENDCHAR

STARTCHAR LEFT FIVE EIGHTHS BLOCK
ENCODING 9611
SWIDTH 602 0
DWIDTH 6 0
BBX 4 12 0 -2
BITMAP
F0
F0
F0
F0
F0
F0
F0
F0
F0
F0
F0
F0
ENDCHAR

STARTCHAR LEFT HALF BLOCK
ENCODING 9612
SWIDTH 602 0
DWIDTH 6 0
BBX 3 12 0 -2
BITMAP
E0
E0
E0
E0
E0
E0
E0
E0
E0
E0
E0
E0
ENDCHAR

STARTCHAR LEFT THREE EIGHTHS BLOCK
ENCODING 9613
SWIDTH 602 0
DWIDTH 6 0
BBX 2 12 0 -2
BITMAP
C0
C0
C0
C0
C0
C0
C0
C0
C0
C0
C0
C0
ENDCHAR

STARTCHAR LEFT ONE QUARTER BLOCK
ENCODING 9614
SWIDTH 602 0
DWIDTH 6 0
BBX 2 12 0 -2
BITMAP
C0
C0
C0
C0
C0
C0
C0
C0
C0
C0
C0
C0
ENDCHAR

STARTCHAR LEFT ONE EIGHTH BLOCK
ENCODING 9615
SWIDTH 602 0
DWIDTH 6 0
BBX 1 12 0 -2
BITMAP
80
80
80
80
80
80
80
80
80
80
80
80
ENDCHAR

STARTCHAR RIGHT HALF BLOCK
ENCODING 9616
SWIDTH 602 0
DWIDTH 6 0
BBX 3 12 3 -2
BITMAP
E0
E0
E0
E0
E0
E0
E0
E0
E0
E0
E0
E0
ENDCHAR

STARTCHAR LIGHT SHADE
ENCODING 9617
SWIDTH 602 0
DWIDTH 6 0
BBX 6 11 0 -2
BITMAP
54
00
A8
00
54
00
A8
00
54
00
A8
ENDCHAR

STARTCHAR MEDIUM SHADE
ENCODING 9618
SWIDTH 602 0
DWIDTH 6 0
BBX 6 12 0 -2
BITMAP
54
A8
54
A8
54
A8
54
A8
54
A8
54
A8
ENDCHAR

STARTCHAR DARK SHADE
ENCODING 9619
SWIDTH 602 0
DWIDTH 6 0
BBX 6 12 0 -2
BITMAP
FC
A8
FC
54
FC
A8
FC
54
FC
A8
FC
54
ENDCHAR

STARTCHAR UPPER ONE EIGHTH BLOCK
ENCODING 9620
SWIDTH 602 0
DWIDTH 6 0
BBX 6 1 0 9
BITMAP
FC
ENDCHAR

STARTCHAR RIGHT ONE EIGHTH BLOCK
ENCODING 9621
SWIDTH 602 0
DWIDTH 6 0
BBX 1 12 5 -2
BITMAP
80
80
80
80
80
80
80
80
80
80
80
80
ENDCHAR

STARTCHAR BLACK SQUARE
ENCODING 9632
SWIDTH 602 0
DWIDTH 6 0
BBX 6 6 0 0
BITMAP
FC
FC
FC
FC
FC
FC
ENDCHAR

STARTCHAR BLACK RECTANGLE
ENCODING 9644
SWIDTH 602 0
DWIDTH 6 0
BBX 6 4 0 0
BITMAP
FC
FC
FC
FC
ENDCHAR

STARTCHAR BLACK UP POINTING TRIANGLE
ENCODING 9650
SWIDTH 602 0
DWIDTH 6 0
BBX 5 5 1 1
BITMAP
20
20
70
70
F8
ENDCHAR

STARTCHAR BLACK RIGHT POINTING TRIANGLE
ENCODING 9654
SWIDTH 602 0
DWIDTH 6 0
BBX 5 5 1 1
BITMAP
80
E0
F8
E0
80
ENDCHAR

STARTCHAR BLACK DOWN POINTING TRIANGLE
ENCODING 9660
SWIDTH 602 0
DWIDTH 6 0
BBX 5 5 1 1
BITMAP
F8
70
70
20
20
ENDCHAR

STARTCHAR BLACK LEFT POINTING TRIANGLE
ENCODING 9664
SWIDTH 602 0
DWIDTH 6 0
BBX 5 5 1 1
BITMAP
08
38
F8
38
08
ENDCHAR

STARTCHAR WHITE CIRCLE
ENCODING 9675
SWIDTH 602 0
DWIDTH 6 0
BBX 5 5 1 1
BITMAP
70
88
88
88
70
ENDCHAR

STARTCHAR INVERSE BULLET
ENCODING 9688
SWIDTH 602 0
DWIDTH 6 0
BBX 6 11 0 -2
BITMAP
FC
FC
FC
FC
CC
CC
FC
FC
FC
FC
FC
ENDCHAR

STARTCHAR INVERSE WHITE CIRCLE
ENCODING 9689
SWIDTH 602 0
DWIDTH 6 0
BBX 6 11 0 -2
BITMAP
FC
FC
FC
CC
B4
B4
CC
FC
FC
FC
FC
ENDCHAR

STARTCHAR WHITE SMILING FACE
ENCODING 9786
SWIDTH 602 0
DWIDTH 6 0
BBX 5 7 1 0
BITMAP
70
88
D8
88
D8
A8
70
ENDCHAR

STARTCHAR BLACK SMILING FACE
ENCODING 9787
SWIDTH 602 0
DWIDTH 6 0
BBX 5 7 1 0
BITMAP
70
F8
A8
F8
A8
D8
70
ENDCHAR

STARTCHAR WHITE SUN WITH RAYS
ENCODING 9788
SWIDTH 602 0
DWIDTH 6 0
BBX 5 5 1 1
BITMAP
A8
50
88
50
A8
ENDCHAR

STARTCHAR FEMALE SIGN
ENCODING 9792
SWIDTH 602 0
DWIDTH 6 0
BBX 5 8 1 -1
BITMAP
70
88
88
88
70
20
70
20
ENDCHAR

STARTCHAR MALE SIGN
ENCODING 9794
SWIDTH 602 0
DWIDTH 6 0
BBX 6 6 0 1
BITMAP
0C
74
88
88
88
70
ENDCHAR

STARTCHAR BLACK SPADE SUIT
ENCODING 9824
SWIDTH 602 0
DWIDTH 6 0
BBX 5 6 1 0
BITMAP
20
70
F8
F8
20
20
ENDCHAR

STARTCHAR BLACK CLUB SUIT
ENCODING 9827
SWIDTH 602 0
DWIDTH 6 0
BBX 5 7 1 0
BITMAP
70
70
F8
D8
D8
20
20
ENDCHAR

STARTCHAR BLACK HEART SUIT
ENCODING 9829
SWIDTH 602 0
DWIDTH 6 0
BBX 5 5 1 1
BITMAP
D8
F8
70
70
20
ENDCHAR

STARTCHAR BLACK DIAMOND SUIT
ENCODING 9830
SWIDTH 602 0
DWIDTH 6 0
BBX 5 5 1 1
BITMAP
20
70
F8
70
20
ENDCHAR

STARTCHAR EIGHTH NOTE
ENCODING 9834
SWIDTH 602 0
DWIDTH 6 0
BBX 4 8 1 -1
BITMAP
40
70
50
40
40
40
C0
C0
ENDCHAR

STARTCHAR BARRED EIGHTH NOTES
ENCODING 9835
SWIDTH 602 0
DWIDTH 6 0
BBX 5 9 1 -1
BITMAP
60
78
48
48
48
48
C8
D8
18
ENDCHAR

STARTCHAR LATIN SMALL LIGATURE FI
ENCODING 64257
SWIDTH 602 0
DWIDTH 6 0
BBX 5 8 0 0
BITMAP
38
40
F8
48
48
48
48
48
ENDCHAR

STARTCHAR LATIN SMALL LIGATURE FL
ENCODING 64258
SWIDTH 602 0
DWIDTH 6 0
BBX 5 8 0 0
BITMAP
38
48
E8
48
48
48
48
48
ENDCHAR
ENDFONT
